%FSLAX24Y24*%
%MOIN*%
G70*
G01*
G75*
G04 Layer_Physical_Order=2*
G04 Layer_Color=16711680*
%ADD10R,0.0551X0.0591*%
%ADD11R,0.0354X0.0394*%
%ADD12R,0.0394X0.0354*%
%ADD13R,0.0315X0.0354*%
%ADD14R,0.0354X0.0315*%
%ADD15R,0.0591X0.0512*%
%ADD16R,0.0512X0.0591*%
%ADD17R,0.0610X0.0591*%
%ADD18R,0.0532X0.0157*%
%ADD19R,0.0433X0.0709*%
%ADD20O,0.0138X0.0669*%
%ADD21O,0.0886X0.0157*%
%ADD22O,0.0236X0.0768*%
%ADD23O,0.0768X0.0236*%
%ADD24R,0.0827X0.0157*%
%ADD25R,0.0394X0.0394*%
%ADD26R,0.0394X0.0394*%
%ADD27R,0.0512X0.1063*%
%ADD28R,0.0315X0.0315*%
%ADD29R,0.0315X0.0315*%
%ADD30R,0.0118X0.0571*%
%ADD31R,0.2047X0.3445*%
%ADD32C,0.0100*%
%ADD33C,0.0200*%
%ADD34C,0.0198*%
%ADD35C,0.3500*%
%ADD36C,0.0500*%
%ADD37C,0.0787*%
%ADD38C,0.1575*%
%ADD39C,0.0610*%
%ADD40C,0.0492*%
%ADD41C,0.0750*%
%ADD42C,0.0394*%
%ADD43C,0.2200*%
%ADD44C,0.0300*%
G36*
X1572Y33268D02*
Y33268D01*
X32776Y33271D01*
X32825Y33221D01*
Y31980D01*
X32787Y31934D01*
X32708Y31786D01*
X32659Y31627D01*
X32643Y31461D01*
X32659Y31295D01*
X32708Y31135D01*
X32787Y30988D01*
X32825Y30941D01*
Y21271D01*
X32775Y21244D01*
X32750Y21261D01*
X32668Y21277D01*
X32586Y21261D01*
X32516Y21214D01*
X32470Y21145D01*
X32454Y21063D01*
X32470Y20981D01*
X32516Y20912D01*
X32586Y20865D01*
X32668Y20849D01*
X32714Y20858D01*
X32825Y20747D01*
Y20342D01*
X32779Y20323D01*
X32528Y20574D01*
X32537Y20620D01*
X32521Y20702D01*
X32475Y20771D01*
X32405Y20818D01*
X32323Y20834D01*
X32241Y20818D01*
X32172Y20771D01*
X32125Y20702D01*
X32109Y20620D01*
X32125Y20538D01*
X32172Y20469D01*
X32241Y20422D01*
X32323Y20406D01*
X32370Y20415D01*
X32825Y19960D01*
Y19752D01*
X32779Y19733D01*
X32042Y20470D01*
Y20885D01*
X32081Y20912D01*
X32127Y20981D01*
X32144Y21063D01*
X32127Y21145D01*
X32081Y21214D01*
X32011Y21261D01*
X31930Y21277D01*
X31848Y21261D01*
X31778Y21214D01*
X31732Y21145D01*
X31715Y21063D01*
X31732Y20981D01*
X31778Y20912D01*
X31817Y20885D01*
Y20423D01*
X31817Y20423D01*
X31818Y20419D01*
X31772Y20395D01*
X31642Y20525D01*
X31652Y20571D01*
X31635Y20653D01*
X31589Y20722D01*
X31519Y20769D01*
X31437Y20785D01*
X31355Y20769D01*
X31286Y20722D01*
X31240Y20653D01*
X31223Y20571D01*
X31240Y20489D01*
X31286Y20419D01*
X31355Y20373D01*
X31437Y20357D01*
X31484Y20366D01*
X32825Y19025D01*
Y18701D01*
X33022D01*
Y18763D01*
X33068Y18782D01*
X33598Y18251D01*
Y16289D01*
X32874D01*
Y16093D01*
X33598D01*
Y14361D01*
X33598Y14361D01*
X33607Y14318D01*
X33631Y14281D01*
X36354Y11558D01*
Y5159D01*
X36250Y5145D01*
X36140Y5099D01*
X36045Y5026D01*
X35972Y4932D01*
X35926Y4821D01*
X35911Y4703D01*
X35926Y4584D01*
X35972Y4474D01*
X36045Y4379D01*
X36140Y4306D01*
X36250Y4261D01*
X36369Y4245D01*
X36487Y4261D01*
X36597Y4306D01*
X36692Y4379D01*
X36765Y4474D01*
X36811Y4584D01*
X36826Y4703D01*
X36811Y4821D01*
X36765Y4932D01*
X36692Y5026D01*
X36597Y5099D01*
X36579Y5107D01*
Y11605D01*
X36570Y11648D01*
X36546Y11684D01*
X36546Y11684D01*
X33823Y14407D01*
Y14470D01*
X33873Y14485D01*
X33877Y14478D01*
X36748Y11608D01*
Y5453D01*
X36748Y5453D01*
X36757Y5410D01*
X36781Y5374D01*
X36978Y5177D01*
X37184Y4971D01*
X37153Y4932D01*
X37108Y4821D01*
X37092Y4703D01*
X37108Y4584D01*
X37153Y4474D01*
X37226Y4379D01*
X37321Y4306D01*
X37431Y4261D01*
X37550Y4245D01*
X37668Y4261D01*
X37778Y4306D01*
X37873Y4379D01*
X37946Y4474D01*
X37992Y4584D01*
X38007Y4703D01*
X37992Y4821D01*
X37946Y4932D01*
X37873Y5026D01*
X37778Y5099D01*
X37668Y5145D01*
X37550Y5160D01*
X37431Y5145D01*
X37358Y5114D01*
X37136Y5336D01*
X37136D01*
Y5336D01*
X36972Y5500D01*
Y11654D01*
X36972Y11654D01*
X36964Y11697D01*
X36940Y11733D01*
X36940Y11733D01*
X34099Y14574D01*
X34100Y14579D01*
X34155Y14594D01*
X37191Y11558D01*
Y6871D01*
X37152Y6844D01*
X37105Y6775D01*
X37089Y6693D01*
X37105Y6611D01*
X37152Y6542D01*
X37221Y6495D01*
X37303Y6479D01*
X37385Y6495D01*
X37455Y6542D01*
X37485Y6588D01*
X37535Y6573D01*
Y5945D01*
X37535Y5945D01*
X37544Y5902D01*
X37568Y5866D01*
X38117Y5318D01*
Y4279D01*
X37762Y3925D01*
X37668Y3964D01*
X37550Y3979D01*
X37431Y3964D01*
X37321Y3918D01*
X37226Y3845D01*
X37153Y3750D01*
X37108Y3640D01*
X37092Y3522D01*
X37108Y3403D01*
X37153Y3293D01*
X37226Y3198D01*
X37321Y3125D01*
X37431Y3080D01*
X37550Y3064D01*
X37668Y3080D01*
X37778Y3125D01*
X37873Y3198D01*
X37946Y3293D01*
X37992Y3403D01*
X38007Y3522D01*
X37992Y3640D01*
X37946Y3750D01*
X37928Y3773D01*
X38308Y4153D01*
X38308Y4153D01*
X38332Y4189D01*
X38341Y4232D01*
X38341Y4232D01*
Y5364D01*
X38341Y5364D01*
X38332Y5407D01*
X38308Y5443D01*
X38308Y5443D01*
X37760Y5992D01*
Y11654D01*
X37751Y11697D01*
X37727Y11733D01*
X37727Y11733D01*
X34561Y14899D01*
Y16057D01*
X34596Y16093D01*
X44687D01*
X44734Y16093D01*
X44737Y16044D01*
X44739Y1526D01*
Y1526D01*
X44720Y1286D01*
X44664Y1053D01*
X44572Y831D01*
X44447Y626D01*
X44291Y443D01*
X44108Y288D01*
X43903Y162D01*
X43682Y70D01*
X43448Y14D01*
X43259Y-1D01*
X43209Y-0D01*
Y-0D01*
X1526Y-5D01*
X1286Y14D01*
X1053Y70D01*
X831Y162D01*
X626Y288D01*
X443Y443D01*
X288Y626D01*
X162Y831D01*
X70Y1053D01*
X14Y1286D01*
X-1Y1476D01*
X-0Y1526D01*
X-0D01*
X-0Y30115D01*
X-7Y31693D01*
X12Y31940D01*
X70Y32181D01*
X165Y32410D01*
X294Y32621D01*
X455Y32810D01*
X644Y32971D01*
X855Y33100D01*
X1084Y33195D01*
X1325Y33253D01*
X1568Y33272D01*
X1572Y33268D01*
D02*
G37*
G36*
X43531Y33255D02*
X43749Y33202D01*
X43957Y33116D01*
X44149Y32999D01*
X44319Y32853D01*
X44465Y32682D01*
X44583Y32490D01*
X44669Y32283D01*
X44721Y32065D01*
X44735Y31891D01*
X44734Y31841D01*
X44734D01*
X44737Y16338D01*
X44687Y16289D01*
X34561D01*
Y19282D01*
X34552Y19325D01*
X34528Y19361D01*
X34528Y19361D01*
X33022Y20868D01*
Y30704D01*
X33065Y30730D01*
X33169Y30674D01*
X33328Y30625D01*
X33495Y30609D01*
X33661Y30625D01*
X33820Y30674D01*
X33968Y30753D01*
X34097Y30859D01*
X34202Y30988D01*
X34281Y31135D01*
X34330Y31295D01*
X34346Y31461D01*
X34330Y31627D01*
X34281Y31786D01*
X34202Y31934D01*
X34097Y32063D01*
X33968Y32169D01*
X33820Y32247D01*
X33661Y32296D01*
X33495Y32312D01*
X33328Y32296D01*
X33169Y32247D01*
X33065Y32192D01*
X33022Y32217D01*
Y33221D01*
X33022Y33268D01*
X33070Y33271D01*
X43307Y33272D01*
X43307D01*
X43531Y33255D01*
D02*
G37*
%LPC*%
G36*
X38648Y11264D02*
Y11099D01*
X38813D01*
X38809Y11121D01*
X38753Y11204D01*
X38671Y11259D01*
X38648Y11264D01*
D02*
G37*
G36*
X40960Y11533D02*
X40878Y11517D01*
X40809Y11470D01*
X40762Y11401D01*
X40746Y11319D01*
X40759Y11252D01*
X40561Y11054D01*
X40537Y11017D01*
X40528Y10974D01*
X40528Y10974D01*
Y9695D01*
X40528Y9695D01*
X40537Y9652D01*
X40561Y9616D01*
X40772Y9405D01*
X40771Y9400D01*
X40787Y9318D01*
X40833Y9248D01*
X40903Y9202D01*
X40985Y9186D01*
X41067Y9202D01*
X41136Y9248D01*
X41182Y9318D01*
X41199Y9400D01*
X41182Y9482D01*
X41136Y9551D01*
X41067Y9597D01*
X40985Y9614D01*
X40903Y9597D01*
X40899Y9595D01*
X40752Y9741D01*
Y10928D01*
X40934Y11110D01*
X40960Y11105D01*
X41042Y11121D01*
X41111Y11168D01*
X41158Y11237D01*
X41174Y11319D01*
X41158Y11401D01*
X41111Y11470D01*
X41042Y11517D01*
X40960Y11533D01*
D02*
G37*
G36*
X27563Y11518D02*
X27561Y11518D01*
X27489Y11488D01*
X27426Y11440D01*
X27379Y11378D01*
X27349Y11306D01*
X27349Y11303D01*
X27563D01*
Y11518D01*
D02*
G37*
G36*
X38498Y10949D02*
X38333D01*
X38338Y10926D01*
X38393Y10843D01*
X38476Y10788D01*
X38498Y10784D01*
Y10949D01*
D02*
G37*
G36*
X38813D02*
X38648D01*
Y10784D01*
X38671Y10788D01*
X38753Y10843D01*
X38809Y10926D01*
X38813Y10949D01*
D02*
G37*
G36*
X38498Y11264D02*
X38476Y11259D01*
X38393Y11204D01*
X38338Y11121D01*
X38333Y11099D01*
X38498D01*
Y11264D01*
D02*
G37*
G36*
X17652Y11785D02*
X17487D01*
Y11620D01*
X17509Y11625D01*
X17592Y11680D01*
X17647Y11763D01*
X17652Y11785D01*
D02*
G37*
G36*
X40959Y11834D02*
X40794D01*
X40798Y11812D01*
X40854Y11729D01*
X40936Y11674D01*
X40959Y11669D01*
Y11834D01*
D02*
G37*
G36*
X18839Y12074D02*
X18757Y12058D01*
X18688Y12012D01*
X18641Y11942D01*
X18625Y11860D01*
X18634Y11814D01*
X18277Y11457D01*
X18253Y11420D01*
X18244Y11378D01*
X18244Y11378D01*
Y11103D01*
X18205Y11077D01*
X18158Y11007D01*
X18142Y10925D01*
X18158Y10843D01*
X18205Y10774D01*
X18244Y10748D01*
Y6877D01*
X18195Y6844D01*
X18169Y6805D01*
X14794D01*
X14768Y6844D01*
X14698Y6891D01*
X14616Y6907D01*
X14534Y6891D01*
X14465Y6844D01*
X14418Y6775D01*
X14402Y6693D01*
X14418Y6611D01*
X14465Y6542D01*
X14534Y6495D01*
X14616Y6479D01*
X14698Y6495D01*
X14768Y6542D01*
X14794Y6581D01*
X18169D01*
X18195Y6542D01*
X18265Y6495D01*
X18347Y6479D01*
X18393Y6488D01*
X18710Y6171D01*
X18710Y6171D01*
X18747Y6146D01*
X18790Y6138D01*
X20660D01*
X20660Y6138D01*
X20703Y6146D01*
X20739Y6171D01*
X21444Y6876D01*
X21771D01*
X21797Y6837D01*
X21867Y6790D01*
X21949Y6774D01*
X22031Y6790D01*
X22100Y6837D01*
X22147Y6906D01*
X22163Y6988D01*
X22147Y7070D01*
X22100Y7140D01*
X22031Y7186D01*
X21949Y7202D01*
X21867Y7186D01*
X21797Y7140D01*
X21771Y7100D01*
X21398D01*
X21398Y7100D01*
X21355Y7092D01*
X21319Y7067D01*
X21319Y7067D01*
X20613Y6362D01*
X18836D01*
X18552Y6647D01*
X18561Y6693D01*
X18545Y6775D01*
X18498Y6844D01*
X18468Y6864D01*
Y10748D01*
X18508Y10774D01*
X18554Y10843D01*
X18570Y10925D01*
X18554Y11007D01*
X18508Y11077D01*
X18468Y11103D01*
Y11331D01*
X18793Y11655D01*
X18839Y11646D01*
X18921Y11662D01*
X18990Y11709D01*
X19037Y11778D01*
X19053Y11860D01*
X19037Y11942D01*
X18990Y12012D01*
X18921Y12058D01*
X18839Y12074D01*
D02*
G37*
G36*
X42864Y12218D02*
X42784Y12208D01*
X42710Y12177D01*
X42646Y12128D01*
X42597Y12064D01*
X42566Y11989D01*
X42555Y11909D01*
X42566Y11830D01*
X42597Y11755D01*
X42646Y11691D01*
X42710Y11642D01*
X42784Y11611D01*
X42864Y11601D01*
X42944Y11611D01*
X43019Y11642D01*
X43082Y11691D01*
X43132Y11755D01*
X43162Y11830D01*
X43173Y11909D01*
X43162Y11989D01*
X43132Y12064D01*
X43082Y12128D01*
X43019Y12177D01*
X42944Y12208D01*
X42864Y12218D01*
D02*
G37*
G36*
X41274Y11834D02*
X41109D01*
Y11669D01*
X41131Y11674D01*
X41214Y11729D01*
X41269Y11812D01*
X41274Y11834D01*
D02*
G37*
G36*
X17337Y11785D02*
X17172D01*
X17176Y11763D01*
X17232Y11680D01*
X17314Y11625D01*
X17337Y11620D01*
Y11785D01*
D02*
G37*
G36*
X26861Y12419D02*
X26779Y12403D01*
X26709Y12356D01*
X26663Y12287D01*
X26647Y12205D01*
X26663Y12123D01*
X26709Y12053D01*
X26779Y12007D01*
X26861Y11991D01*
X26943Y12007D01*
X27012Y12053D01*
X27038Y12093D01*
X28192D01*
X28865Y11420D01*
Y11152D01*
X28825Y11126D01*
X28779Y11056D01*
X28763Y10974D01*
X28779Y10892D01*
X28825Y10823D01*
X28895Y10777D01*
X28977Y10760D01*
X29059Y10777D01*
X29128Y10823D01*
X29175Y10892D01*
X29191Y10974D01*
X29175Y11056D01*
X29128Y11126D01*
X29089Y11152D01*
Y11467D01*
X29089Y11467D01*
X29080Y11509D01*
X29056Y11546D01*
X29056Y11546D01*
X28318Y12284D01*
X28282Y12308D01*
X28239Y12317D01*
X28239Y12317D01*
X27038D01*
X27012Y12356D01*
X26943Y12403D01*
X26861Y12419D01*
D02*
G37*
G36*
X31313Y9472D02*
X31148D01*
X31153Y9450D01*
X31208Y9367D01*
X31291Y9312D01*
X31313Y9307D01*
Y9472D01*
D02*
G37*
G36*
X31628D02*
X31463D01*
Y9307D01*
X31486Y9312D01*
X31568Y9367D01*
X31624Y9450D01*
X31628Y9472D01*
D02*
G37*
G36*
X31313Y9787D02*
X31291Y9783D01*
X31208Y9727D01*
X31153Y9645D01*
X31148Y9622D01*
X31313D01*
Y9787D01*
D02*
G37*
G36*
X38573Y10155D02*
X38491Y10139D01*
X38422Y10092D01*
X38375Y10023D01*
X38359Y9941D01*
X38375Y9859D01*
X38422Y9790D01*
X38461Y9763D01*
Y9400D01*
X38461Y9400D01*
X38470Y9357D01*
X38494Y9320D01*
X38559Y9256D01*
X38534Y9210D01*
X38524Y9212D01*
X38426Y9192D01*
X38344Y9137D01*
X38289Y9054D01*
X38284Y9032D01*
X38524D01*
Y8957D01*
X38599D01*
Y8717D01*
X38622Y8721D01*
X38704Y8776D01*
X38760Y8859D01*
X38765Y8887D01*
X38816D01*
X38818Y8875D01*
X38865Y8805D01*
X38934Y8759D01*
X39016Y8743D01*
X39098Y8759D01*
X39168Y8805D01*
X39214Y8875D01*
X39230Y8957D01*
X39214Y9039D01*
X39168Y9108D01*
X39098Y9155D01*
X39016Y9171D01*
X38970Y9162D01*
X38685Y9446D01*
Y9763D01*
X38725Y9790D01*
X38771Y9859D01*
X38787Y9941D01*
X38771Y10023D01*
X38725Y10092D01*
X38655Y10139D01*
X38573Y10155D01*
D02*
G37*
G36*
X15467Y9394D02*
X15444Y9389D01*
X15362Y9334D01*
X15306Y9251D01*
X15302Y9229D01*
X15467D01*
Y9394D01*
D02*
G37*
G36*
X15617D02*
Y9229D01*
X15782D01*
X15777Y9251D01*
X15722Y9334D01*
X15639Y9389D01*
X15617Y9394D01*
D02*
G37*
G36*
X31463Y9787D02*
Y9622D01*
X31628D01*
X31624Y9645D01*
X31568Y9727D01*
X31486Y9783D01*
X31463Y9787D01*
D02*
G37*
G36*
X41034Y11041D02*
X40952Y11025D01*
X40882Y10978D01*
X40836Y10909D01*
X40820Y10827D01*
X40836Y10745D01*
X40882Y10675D01*
X40922Y10649D01*
Y10217D01*
X40882Y10191D01*
X40836Y10121D01*
X40820Y10039D01*
X40836Y9957D01*
X40882Y9888D01*
X40952Y9842D01*
X41034Y9825D01*
X41116Y9842D01*
X41185Y9888D01*
X41232Y9957D01*
X41248Y10039D01*
X41232Y10121D01*
X41185Y10191D01*
X41146Y10217D01*
Y10649D01*
X41185Y10675D01*
X41232Y10745D01*
X41248Y10827D01*
X41232Y10909D01*
X41185Y10978D01*
X41116Y11025D01*
X41034Y11041D01*
D02*
G37*
G36*
X33331Y10181D02*
X33308Y10176D01*
X33226Y10121D01*
X33170Y10038D01*
X33166Y10016D01*
X33331D01*
Y10181D01*
D02*
G37*
G36*
X33481D02*
Y10016D01*
X33646D01*
X33641Y10038D01*
X33586Y10121D01*
X33503Y10176D01*
X33481Y10181D01*
D02*
G37*
G36*
X42864Y10250D02*
X42784Y10239D01*
X42710Y10208D01*
X42646Y10159D01*
X42597Y10095D01*
X42566Y10021D01*
X42555Y9941D01*
X42566Y9861D01*
X42597Y9787D01*
X42646Y9723D01*
X42710Y9674D01*
X42784Y9643D01*
X42864Y9632D01*
X42944Y9643D01*
X43019Y9674D01*
X43082Y9723D01*
X43132Y9787D01*
X43162Y9861D01*
X43173Y9941D01*
X43162Y10021D01*
X43132Y10095D01*
X43082Y10159D01*
X43019Y10208D01*
X42944Y10239D01*
X42864Y10250D01*
D02*
G37*
G36*
X33331Y9866D02*
X33166D01*
X33170Y9843D01*
X33226Y9761D01*
X33308Y9705D01*
X33331Y9701D01*
Y9866D01*
D02*
G37*
G36*
X33646D02*
X33481D01*
Y9701D01*
X33503Y9705D01*
X33586Y9761D01*
X33641Y9843D01*
X33646Y9866D01*
D02*
G37*
G36*
X13376Y15372D02*
X13294Y15355D01*
X13225Y15309D01*
X13179Y15239D01*
X13162Y15157D01*
X13171Y15111D01*
X11230Y13170D01*
X11206Y13133D01*
X11197Y13091D01*
X11197Y13091D01*
Y12694D01*
X10568Y12065D01*
X10522Y12074D01*
X10440Y12058D01*
X10371Y12012D01*
X10324Y11942D01*
X10308Y11860D01*
X10324Y11778D01*
X10371Y11709D01*
X10440Y11662D01*
X10522Y11646D01*
X10604Y11662D01*
X10673Y11709D01*
X10720Y11778D01*
X10736Y11860D01*
X10727Y11907D01*
X11389Y12568D01*
X11389Y12568D01*
X11413Y12605D01*
X11422Y12648D01*
X11422Y12648D01*
Y13044D01*
X13330Y14953D01*
X13376Y14943D01*
X13458Y14960D01*
X13528Y15006D01*
X13574Y15076D01*
X13591Y15157D01*
X13574Y15239D01*
X13528Y15309D01*
X13458Y15355D01*
X13376Y15372D01*
D02*
G37*
G36*
X10210Y15299D02*
X10188Y15295D01*
X10105Y15239D01*
X10050Y15157D01*
X10045Y15134D01*
X10210D01*
Y15299D01*
D02*
G37*
G36*
X10360D02*
Y15134D01*
X10525D01*
X10521Y15157D01*
X10466Y15239D01*
X10383Y15295D01*
X10360Y15299D01*
D02*
G37*
G36*
X21358Y15126D02*
X21276Y15109D01*
X21207Y15063D01*
X21160Y14993D01*
X21144Y14911D01*
X21153Y14865D01*
X20787Y14499D01*
X20763Y14462D01*
X20754Y14419D01*
X20754Y14419D01*
Y9233D01*
X20715Y9207D01*
X20668Y9137D01*
X20652Y9055D01*
X20668Y8973D01*
X20715Y8904D01*
X20784Y8857D01*
X20866Y8841D01*
X20948Y8857D01*
X21018Y8904D01*
X21064Y8973D01*
X21080Y9055D01*
X21064Y9137D01*
X21018Y9207D01*
X20978Y9233D01*
Y14373D01*
X21312Y14707D01*
X21358Y14697D01*
X21440Y14714D01*
X21510Y14760D01*
X21556Y14829D01*
X21572Y14911D01*
X21556Y14993D01*
X21510Y15063D01*
X21440Y15109D01*
X21358Y15126D01*
D02*
G37*
G36*
X10210Y14984D02*
X10045D01*
X10050Y14962D01*
X10105Y14879D01*
X10188Y14824D01*
X10210Y14819D01*
Y14984D01*
D02*
G37*
G36*
X10525D02*
X10360D01*
Y14819D01*
X10383Y14824D01*
X10466Y14879D01*
X10521Y14962D01*
X10525Y14984D01*
D02*
G37*
G36*
X21358Y15667D02*
X21276Y15651D01*
X21207Y15604D01*
X21181Y15565D01*
X19045D01*
X19045Y15565D01*
X19002Y15556D01*
X18966Y15532D01*
X14865Y11431D01*
X12382D01*
X12356Y11470D01*
X12287Y11517D01*
X12205Y11533D01*
X12123Y11517D01*
X12053Y11470D01*
X12007Y11401D01*
X11991Y11319D01*
X12007Y11237D01*
X12053Y11168D01*
X12123Y11121D01*
X12205Y11105D01*
X12287Y11121D01*
X12356Y11168D01*
X12382Y11207D01*
X14911D01*
X14911Y11207D01*
X14954Y11215D01*
X14991Y11240D01*
X19092Y15341D01*
X21181D01*
X21207Y15301D01*
X21276Y15255D01*
X21358Y15239D01*
X21440Y15255D01*
X21510Y15301D01*
X21556Y15371D01*
X21572Y15453D01*
X21556Y15535D01*
X21510Y15604D01*
X21440Y15651D01*
X21358Y15667D01*
D02*
G37*
G36*
X12425Y16185D02*
X12402Y16180D01*
X12320Y16125D01*
X12264Y16042D01*
X12260Y16020D01*
X12425D01*
Y16185D01*
D02*
G37*
G36*
X12575D02*
Y16020D01*
X12740D01*
X12736Y16042D01*
X12680Y16125D01*
X12598Y16180D01*
X12575Y16185D01*
D02*
G37*
G36*
X26762Y20391D02*
X26680Y20375D01*
X26611Y20329D01*
X26564Y20259D01*
X26548Y20177D01*
X26557Y20131D01*
X25173Y18746D01*
X25123D01*
X24498Y19371D01*
X24462Y19395D01*
X24419Y19404D01*
X24419Y19403D01*
X24390D01*
X24364Y19443D01*
X24295Y19489D01*
X24213Y19505D01*
X24131Y19489D01*
X24061Y19443D01*
X24015Y19373D01*
X23998Y19291D01*
X24015Y19209D01*
X24061Y19140D01*
X24131Y19094D01*
X24213Y19077D01*
X24295Y19094D01*
X24364Y19140D01*
X24407Y19144D01*
X25035Y18516D01*
Y18337D01*
X24996Y18311D01*
X24950Y18241D01*
X24934Y18159D01*
X24950Y18078D01*
X24996Y18008D01*
X25066Y17962D01*
X25148Y17945D01*
X25230Y17962D01*
X25299Y18008D01*
X25345Y18078D01*
X25362Y18159D01*
X25345Y18241D01*
X25299Y18311D01*
X25260Y18337D01*
Y18516D01*
X26716Y19972D01*
X26762Y19963D01*
X26844Y19979D01*
X26914Y20026D01*
X26940Y20065D01*
X30170D01*
X30793Y19442D01*
Y16615D01*
X30754Y16588D01*
X30708Y16519D01*
X30691Y16437D01*
X30708Y16355D01*
X30754Y16286D01*
X30824Y16239D01*
X30906Y16223D01*
X30987Y16239D01*
X31057Y16286D01*
X31103Y16355D01*
X31120Y16437D01*
X31103Y16519D01*
X31057Y16588D01*
X31018Y16615D01*
Y19488D01*
X31009Y19531D01*
X30985Y19567D01*
X30985Y19568D01*
X30296Y20256D01*
X30259Y20281D01*
X30217Y20289D01*
X30217Y20289D01*
X26940D01*
X26914Y20329D01*
X26844Y20375D01*
X26762Y20391D01*
D02*
G37*
G36*
X12425Y15870D02*
X12260D01*
X12264Y15847D01*
X12320Y15765D01*
X12402Y15709D01*
X12425Y15705D01*
Y15870D01*
D02*
G37*
G36*
X12740D02*
X12575D01*
Y15705D01*
X12598Y15709D01*
X12680Y15765D01*
X12736Y15847D01*
X12740Y15870D01*
D02*
G37*
G36*
X25148Y16257D02*
X25066Y16241D01*
X24996Y16195D01*
X24950Y16125D01*
X24934Y16043D01*
X24943Y15997D01*
X23920Y14974D01*
X23179D01*
X23136Y14966D01*
X23100Y14942D01*
X23100Y14942D01*
X22805Y14646D01*
X22780Y14610D01*
X22772Y14567D01*
X22772Y14567D01*
Y13435D01*
X22772Y13435D01*
X22780Y13392D01*
X22805Y13356D01*
X24740Y11420D01*
Y9695D01*
X24740Y9695D01*
X24749Y9652D01*
X24773Y9616D01*
X28382Y6007D01*
Y5132D01*
X28376Y5131D01*
X28265Y5085D01*
X28171Y5013D01*
X28098Y4918D01*
X28052Y4807D01*
X28036Y4689D01*
X28052Y4571D01*
X28098Y4460D01*
X28171Y4365D01*
X28225Y4323D01*
X28233Y4256D01*
X28226Y4246D01*
X23472D01*
X22504Y5214D01*
Y5469D01*
X22514Y5477D01*
X22581Y5467D01*
X22605Y5430D01*
X22688Y5375D01*
X22710Y5370D01*
Y5610D01*
Y5850D01*
X22688Y5846D01*
X22605Y5790D01*
X22581Y5754D01*
X22514Y5744D01*
X22504Y5752D01*
Y7992D01*
X22543Y8018D01*
X22590Y8087D01*
X22606Y8169D01*
X22590Y8251D01*
X22543Y8321D01*
X22474Y8367D01*
X22392Y8383D01*
X22310Y8367D01*
X22240Y8321D01*
X22194Y8251D01*
X22178Y8169D01*
X22194Y8087D01*
X22240Y8018D01*
X22280Y7992D01*
Y5167D01*
X22280Y5167D01*
X22288Y5124D01*
X22312Y5088D01*
X23346Y4055D01*
X23346Y4055D01*
X23382Y4030D01*
X23425Y4022D01*
X29120D01*
X29120Y4022D01*
X29163Y4030D01*
X29199Y4055D01*
X29441Y4297D01*
X29446Y4293D01*
X29557Y4247D01*
X29675Y4231D01*
X29794Y4247D01*
X29904Y4293D01*
X29999Y4365D01*
X30071Y4460D01*
X30117Y4571D01*
X30133Y4689D01*
X30117Y4807D01*
X30071Y4918D01*
X29999Y5013D01*
X29904Y5085D01*
X29794Y5131D01*
X29675Y5147D01*
X29557Y5131D01*
X29446Y5085D01*
X29352Y5013D01*
X29279Y4918D01*
X29233Y4807D01*
X29218Y4689D01*
X29233Y4571D01*
X29279Y4460D01*
X29283Y4455D01*
X29074Y4246D01*
X28763D01*
X28755Y4256D01*
X28763Y4323D01*
X28818Y4365D01*
X28890Y4460D01*
X28936Y4571D01*
X28952Y4689D01*
X28936Y4807D01*
X28890Y4918D01*
X28818Y5013D01*
X28723Y5085D01*
X28613Y5131D01*
X28606Y5132D01*
Y6053D01*
X28598Y6096D01*
X28573Y6132D01*
X28573Y6132D01*
X25727Y8979D01*
X25759Y9018D01*
X25784Y9001D01*
X25827Y8992D01*
X25827Y8992D01*
X28291D01*
X31335Y5948D01*
Y4850D01*
X31285Y4840D01*
X31253Y4918D01*
X31180Y5013D01*
X31085Y5085D01*
X30975Y5131D01*
X30856Y5147D01*
X30738Y5131D01*
X30627Y5085D01*
X30533Y5013D01*
X30460Y4918D01*
X30414Y4807D01*
X30399Y4689D01*
X30414Y4571D01*
X30460Y4460D01*
X30533Y4365D01*
X30627Y4293D01*
X30738Y4247D01*
X30856Y4231D01*
X30975Y4247D01*
X31085Y4293D01*
X31180Y4365D01*
X31253Y4460D01*
X31285Y4538D01*
X31335Y4528D01*
Y4098D01*
X31335Y4098D01*
X31343Y4056D01*
X31368Y4019D01*
X31645Y3742D01*
X31641Y3737D01*
X31595Y3626D01*
X31580Y3508D01*
X31595Y3389D01*
X31641Y3279D01*
X31714Y3184D01*
X31809Y3112D01*
X31919Y3066D01*
X32037Y3050D01*
X32156Y3066D01*
X32266Y3112D01*
X32361Y3184D01*
X32434Y3279D01*
X32479Y3389D01*
X32495Y3508D01*
X32479Y3626D01*
X32434Y3737D01*
X32361Y3831D01*
X32266Y3904D01*
X32156Y3950D01*
X32037Y3965D01*
X31919Y3950D01*
X31809Y3904D01*
X31804Y3900D01*
X31559Y4145D01*
Y4528D01*
X31609Y4538D01*
X31641Y4460D01*
X31714Y4365D01*
X31809Y4293D01*
X31919Y4247D01*
X32037Y4231D01*
X32156Y4247D01*
X32266Y4293D01*
X32361Y4365D01*
X32434Y4460D01*
X32479Y4571D01*
X32495Y4689D01*
X32479Y4807D01*
X32434Y4918D01*
X32361Y5013D01*
X32266Y5085D01*
X32156Y5131D01*
X32150Y5132D01*
Y6142D01*
X32150Y6142D01*
X32141Y6185D01*
X32117Y6221D01*
X31510Y6828D01*
Y7532D01*
X32314Y8336D01*
X32314Y8336D01*
X32338Y8372D01*
X32346Y8415D01*
X32346Y8415D01*
Y12648D01*
X32346Y12648D01*
X32338Y12691D01*
X32314Y12727D01*
X29951Y15089D01*
X29915Y15113D01*
X29872Y15122D01*
X29872Y15122D01*
X27087D01*
X27061Y15161D01*
X26992Y15208D01*
X26910Y15224D01*
X26828Y15208D01*
X26758Y15161D01*
X26712Y15092D01*
X26696Y15010D01*
X26712Y14928D01*
X26758Y14858D01*
X26828Y14812D01*
X26910Y14796D01*
X26992Y14812D01*
X27061Y14858D01*
X27087Y14898D01*
X29826D01*
X32122Y12601D01*
Y8462D01*
X31318Y7658D01*
X31294Y7622D01*
X31285Y7579D01*
X31285Y7579D01*
Y6782D01*
X31285Y6782D01*
X31294Y6739D01*
X31318Y6703D01*
X31925Y6096D01*
Y5132D01*
X31919Y5131D01*
X31809Y5085D01*
X31714Y5013D01*
X31641Y4918D01*
X31609Y4840D01*
X31559Y4850D01*
Y5995D01*
X31550Y6037D01*
X31526Y6074D01*
X31526Y6074D01*
X28416Y9184D01*
X28380Y9208D01*
X28337Y9216D01*
X28337Y9216D01*
X25890D01*
X25873Y9239D01*
X25899Y9287D01*
X28386D01*
X28386Y9287D01*
X28429Y9296D01*
X28466Y9320D01*
X29171Y10026D01*
X30817D01*
X30843Y9986D01*
X30913Y9940D01*
X30995Y9924D01*
X31076Y9940D01*
X31146Y9986D01*
X31192Y10056D01*
X31209Y10138D01*
X31192Y10220D01*
X31146Y10289D01*
X31076Y10336D01*
X30995Y10352D01*
X30913Y10336D01*
X30843Y10289D01*
X30817Y10250D01*
X29124D01*
X29124Y10250D01*
X29081Y10241D01*
X29045Y10217D01*
X29045Y10217D01*
X28340Y9512D01*
X25923D01*
X25506Y9929D01*
Y10411D01*
X25556Y10426D01*
X25587Y10380D01*
X25656Y10334D01*
X25738Y10317D01*
X25820Y10334D01*
X25890Y10380D01*
X25916Y10419D01*
X27398D01*
X27423Y10369D01*
X27414Y10358D01*
X27388Y10295D01*
X27379Y10228D01*
X27388Y10161D01*
X27414Y10099D01*
X27455Y10045D01*
X27509Y10004D01*
X27571Y9978D01*
X27638Y9969D01*
X27705Y9978D01*
X27768Y10004D01*
X27821Y10045D01*
X27863Y10099D01*
X27883Y10147D01*
X27933Y10137D01*
Y9972D01*
X28446D01*
Y10485D01*
X28377D01*
X28360Y10535D01*
X28373Y10545D01*
X28414Y10599D01*
X28440Y10661D01*
X28448Y10728D01*
X28440Y10795D01*
X28414Y10858D01*
X28373Y10912D01*
X28321Y10951D01*
X28317Y10978D01*
Y10979D01*
X28321Y11006D01*
X28373Y11045D01*
X28414Y11099D01*
X28440Y11161D01*
X28448Y11228D01*
X28440Y11295D01*
X28414Y11358D01*
X28373Y11412D01*
X28319Y11453D01*
X28256Y11479D01*
X28189Y11487D01*
X28122Y11479D01*
X28060Y11453D01*
X28006Y11412D01*
X27965Y11358D01*
X27963Y11352D01*
X27908D01*
X27898Y11378D01*
X27850Y11440D01*
X27788Y11488D01*
X27716Y11518D01*
X27713Y11518D01*
Y11228D01*
X27638D01*
Y11153D01*
X27349D01*
X27349Y11151D01*
X27379Y11079D01*
X27426Y11017D01*
X27468Y10985D01*
X27473Y10930D01*
X27470Y10923D01*
X27455Y10912D01*
X27414Y10858D01*
X27388Y10795D01*
X27379Y10728D01*
X27384Y10694D01*
X27346Y10645D01*
X27342Y10644D01*
X25916D01*
X25890Y10683D01*
X25820Y10729D01*
X25738Y10746D01*
X25656Y10729D01*
X25587Y10683D01*
X25556Y10637D01*
X25506Y10652D01*
Y12392D01*
X25497Y12435D01*
X25473Y12471D01*
X25473Y12471D01*
X24993Y12951D01*
X25014Y12991D01*
Y13163D01*
X24841D01*
X24802Y13142D01*
X23921Y14024D01*
X23946Y14070D01*
X24006Y14058D01*
X24088Y14074D01*
X24158Y14120D01*
X24184Y14159D01*
X24427D01*
X24443Y14109D01*
X24396Y14079D01*
X24350Y14009D01*
X24334Y13927D01*
X24350Y13845D01*
X24396Y13776D01*
X24466Y13729D01*
X24548Y13713D01*
X24630Y13729D01*
X24684Y13766D01*
X28799D01*
X28815Y13741D01*
Y12727D01*
X28776Y12701D01*
X28730Y12631D01*
X28713Y12549D01*
X28730Y12467D01*
X28776Y12398D01*
X28846Y12351D01*
X28928Y12335D01*
X29010Y12351D01*
X29079Y12398D01*
X29125Y12467D01*
X29142Y12549D01*
X29125Y12631D01*
X29079Y12701D01*
X29040Y12727D01*
Y13676D01*
X29059Y13680D01*
X29128Y13727D01*
X29175Y13796D01*
X29191Y13878D01*
X29175Y13960D01*
X29128Y14029D01*
X29059Y14076D01*
X28977Y14092D01*
X28895Y14076D01*
X28825Y14029D01*
X28799Y13990D01*
X24749D01*
X24745Y14009D01*
X24699Y14079D01*
X24653Y14109D01*
X24668Y14159D01*
X29472D01*
X31063Y12568D01*
X31063Y12568D01*
X31099Y12544D01*
X31142Y12535D01*
X31161D01*
X31188Y12496D01*
X31257Y12450D01*
X31339Y12434D01*
X31421Y12450D01*
X31490Y12496D01*
X31537Y12566D01*
X31553Y12648D01*
X31599Y12672D01*
X31817Y12454D01*
Y8905D01*
X30800Y7888D01*
X30582D01*
X30555Y7927D01*
X30486Y7973D01*
X30404Y7990D01*
X30322Y7973D01*
X30253Y7927D01*
X30206Y7858D01*
X30190Y7776D01*
X30206Y7694D01*
X30253Y7624D01*
X30322Y7578D01*
X30404Y7561D01*
X30486Y7578D01*
X30555Y7624D01*
X30582Y7663D01*
X30847D01*
X30847Y7663D01*
X30890Y7672D01*
X30926Y7696D01*
X32009Y8779D01*
X32009Y8779D01*
X32033Y8815D01*
X32042Y8858D01*
Y12500D01*
X32042Y12500D01*
X32033Y12543D01*
X32009Y12579D01*
X32009Y12579D01*
X29893Y14695D01*
X29856Y14720D01*
X29813Y14728D01*
X29813Y14728D01*
X27629D01*
X27603Y14768D01*
X27533Y14814D01*
X27451Y14830D01*
X27369Y14814D01*
X27300Y14768D01*
X27253Y14698D01*
X27237Y14616D01*
X27253Y14534D01*
X27300Y14465D01*
X27346Y14434D01*
X27331Y14384D01*
X24184D01*
X24158Y14423D01*
X24088Y14469D01*
X24006Y14486D01*
X23924Y14469D01*
X23855Y14423D01*
X23809Y14354D01*
X23792Y14272D01*
X23804Y14211D01*
X23758Y14186D01*
X23719Y14225D01*
X23728Y14272D01*
X23712Y14354D01*
X23666Y14423D01*
X23596Y14469D01*
X23514Y14486D01*
X23432Y14469D01*
X23363Y14423D01*
X23316Y14354D01*
X23300Y14272D01*
X23316Y14190D01*
X23363Y14120D01*
X23432Y14074D01*
X23514Y14058D01*
X23560Y14067D01*
X24436Y13191D01*
X24412Y13145D01*
X24351Y13157D01*
X24269Y13141D01*
X24199Y13094D01*
X24153Y13025D01*
X24137Y12943D01*
X24153Y12861D01*
X24199Y12792D01*
X24239Y12765D01*
Y12559D01*
X24239Y12559D01*
X24247Y12516D01*
X24271Y12479D01*
X25085Y11666D01*
Y9735D01*
X25085Y9735D01*
X25093Y9692D01*
X25110Y9666D01*
X25071Y9635D01*
X24965Y9741D01*
Y11467D01*
X24965Y11467D01*
X24956Y11509D01*
X24932Y11546D01*
X22996Y13482D01*
Y14520D01*
X23226Y14750D01*
X23967D01*
X23967Y14750D01*
X24009Y14759D01*
X24046Y14783D01*
X25101Y15838D01*
X25148Y15829D01*
X25230Y15845D01*
X25299Y15892D01*
X25345Y15961D01*
X25362Y16043D01*
X25345Y16125D01*
X25299Y16195D01*
X25230Y16241D01*
X25148Y16257D01*
D02*
G37*
G36*
X17337Y12100D02*
X17314Y12096D01*
X17232Y12040D01*
X17176Y11958D01*
X17172Y11935D01*
X17337D01*
Y12100D01*
D02*
G37*
G36*
X17487D02*
Y11935D01*
X17652D01*
X17647Y11958D01*
X17592Y12040D01*
X17509Y12096D01*
X17487Y12100D01*
D02*
G37*
G36*
X40959Y12149D02*
X40936Y12145D01*
X40854Y12090D01*
X40798Y12007D01*
X40794Y11984D01*
X40959D01*
Y12149D01*
D02*
G37*
G36*
X29000Y11884D02*
X28835D01*
X28840Y11861D01*
X28895Y11778D01*
X28978Y11723D01*
X29000Y11719D01*
Y11884D01*
D02*
G37*
G36*
X29315D02*
X29150D01*
Y11719D01*
X29173Y11723D01*
X29255Y11778D01*
X29311Y11861D01*
X29315Y11884D01*
D02*
G37*
G36*
X43927Y12650D02*
X43832Y12637D01*
X43743Y12600D01*
X43667Y12542D01*
X43608Y12466D01*
X43571Y12377D01*
X43559Y12282D01*
X43571Y12186D01*
X43608Y12097D01*
X43667Y12021D01*
X43743Y11963D01*
X43832Y11926D01*
X43927Y11913D01*
X44022Y11926D01*
X44111Y11963D01*
X44188Y12021D01*
X44246Y12097D01*
X44283Y12186D01*
X44295Y12282D01*
X44283Y12377D01*
X44246Y12466D01*
X44188Y12542D01*
X44111Y12600D01*
X44022Y12637D01*
X43927Y12650D01*
D02*
G37*
G36*
X41109Y12149D02*
Y11984D01*
X41274D01*
X41269Y12007D01*
X41214Y12090D01*
X41131Y12145D01*
X41109Y12149D01*
D02*
G37*
G36*
X25014Y13478D02*
X24991Y13474D01*
X24909Y13418D01*
X24853Y13336D01*
X24849Y13313D01*
X25014D01*
Y13478D01*
D02*
G37*
G36*
X25164D02*
Y13313D01*
X25329D01*
X25324Y13336D01*
X25269Y13418D01*
X25187Y13474D01*
X25164Y13478D01*
D02*
G37*
G36*
X30118Y19948D02*
X30036Y19932D01*
X29967Y19886D01*
X29920Y19816D01*
X29904Y19734D01*
X29920Y19652D01*
X29967Y19583D01*
X30006Y19557D01*
Y15886D01*
X30006Y15886D01*
X30014Y15843D01*
X30039Y15807D01*
X31774Y14072D01*
X31765Y14026D01*
X31781Y13944D01*
X31827Y13874D01*
X31897Y13828D01*
X31979Y13811D01*
X32061Y13828D01*
X32130Y13874D01*
X32177Y13944D01*
X32193Y14026D01*
X32177Y14108D01*
X32130Y14177D01*
X32061Y14223D01*
X31979Y14240D01*
X31932Y14231D01*
X30230Y15933D01*
Y19557D01*
X30270Y19583D01*
X30316Y19652D01*
X30332Y19734D01*
X30316Y19816D01*
X30270Y19886D01*
X30200Y19932D01*
X30118Y19948D01*
D02*
G37*
G36*
X29000Y12199D02*
X28978Y12194D01*
X28895Y12139D01*
X28840Y12056D01*
X28835Y12034D01*
X29000D01*
Y12199D01*
D02*
G37*
G36*
X29150D02*
Y12034D01*
X29315D01*
X29311Y12056D01*
X29255Y12139D01*
X29173Y12194D01*
X29150Y12199D01*
D02*
G37*
G36*
X25329Y13163D02*
X25164D01*
Y12998D01*
X25187Y13003D01*
X25269Y13058D01*
X25324Y13141D01*
X25329Y13163D01*
D02*
G37*
G36*
X43927Y9937D02*
X43832Y9925D01*
X43743Y9888D01*
X43667Y9829D01*
X43608Y9753D01*
X43571Y9664D01*
X43559Y9569D01*
X43571Y9474D01*
X43608Y9385D01*
X43667Y9308D01*
X43743Y9250D01*
X43832Y9213D01*
X43927Y9201D01*
X44022Y9213D01*
X44111Y9250D01*
X44188Y9308D01*
X44246Y9385D01*
X44283Y9474D01*
X44295Y9569D01*
X44283Y9664D01*
X44246Y9753D01*
X44188Y9829D01*
X44111Y9888D01*
X44022Y9925D01*
X43927Y9937D01*
D02*
G37*
G36*
X28494Y3965D02*
X28376Y3950D01*
X28265Y3904D01*
X28171Y3831D01*
X28098Y3737D01*
X28052Y3626D01*
X28036Y3508D01*
X28052Y3389D01*
X28098Y3279D01*
X28171Y3184D01*
X28265Y3112D01*
X28376Y3066D01*
X28494Y3050D01*
X28613Y3066D01*
X28723Y3112D01*
X28818Y3184D01*
X28890Y3279D01*
X28936Y3389D01*
X28952Y3508D01*
X28936Y3626D01*
X28890Y3737D01*
X28818Y3831D01*
X28723Y3904D01*
X28613Y3950D01*
X28494Y3965D01*
D02*
G37*
G36*
X29675D02*
X29557Y3950D01*
X29446Y3904D01*
X29352Y3831D01*
X29279Y3737D01*
X29233Y3626D01*
X29218Y3508D01*
X29233Y3389D01*
X29279Y3279D01*
X29352Y3184D01*
X29446Y3112D01*
X29557Y3066D01*
X29675Y3050D01*
X29794Y3066D01*
X29904Y3112D01*
X29999Y3184D01*
X30071Y3279D01*
X30117Y3389D01*
X30133Y3508D01*
X30117Y3626D01*
X30071Y3737D01*
X29999Y3831D01*
X29904Y3904D01*
X29794Y3950D01*
X29675Y3965D01*
D02*
G37*
G36*
X30856D02*
X30738Y3950D01*
X30627Y3904D01*
X30533Y3831D01*
X30460Y3737D01*
X30414Y3626D01*
X30399Y3508D01*
X30414Y3389D01*
X30460Y3279D01*
X30533Y3184D01*
X30627Y3112D01*
X30738Y3066D01*
X30856Y3050D01*
X30975Y3066D01*
X31085Y3112D01*
X31180Y3184D01*
X31253Y3279D01*
X31298Y3389D01*
X31314Y3508D01*
X31298Y3626D01*
X31253Y3737D01*
X31180Y3831D01*
X31085Y3904D01*
X30975Y3950D01*
X30856Y3965D01*
D02*
G37*
G36*
X18848D02*
X18730Y3950D01*
X18620Y3904D01*
X18525Y3831D01*
X18452Y3737D01*
X18406Y3626D01*
X18391Y3508D01*
X18406Y3389D01*
X18452Y3279D01*
X18525Y3184D01*
X18620Y3112D01*
X18730Y3066D01*
X18848Y3050D01*
X18967Y3066D01*
X19077Y3112D01*
X19172Y3184D01*
X19245Y3279D01*
X19290Y3389D01*
X19306Y3508D01*
X19290Y3626D01*
X19245Y3737D01*
X19172Y3831D01*
X19077Y3904D01*
X18967Y3950D01*
X18848Y3965D01*
D02*
G37*
G36*
X22835D02*
X22716Y3950D01*
X22606Y3904D01*
X22511Y3831D01*
X22438Y3737D01*
X22393Y3626D01*
X22377Y3508D01*
X22393Y3389D01*
X22438Y3279D01*
X22511Y3184D01*
X22606Y3112D01*
X22716Y3066D01*
X22835Y3050D01*
X22953Y3066D01*
X23063Y3112D01*
X23158Y3184D01*
X23231Y3279D01*
X23277Y3389D01*
X23292Y3508D01*
X23277Y3626D01*
X23231Y3737D01*
X23158Y3831D01*
X23063Y3904D01*
X22953Y3950D01*
X22835Y3965D01*
D02*
G37*
G36*
X24016D02*
X23897Y3950D01*
X23787Y3904D01*
X23692Y3831D01*
X23619Y3737D01*
X23574Y3626D01*
X23558Y3508D01*
X23574Y3389D01*
X23619Y3279D01*
X23692Y3184D01*
X23787Y3112D01*
X23897Y3066D01*
X24016Y3050D01*
X24134Y3066D01*
X24245Y3112D01*
X24339Y3184D01*
X24412Y3279D01*
X24458Y3389D01*
X24473Y3508D01*
X24458Y3626D01*
X24412Y3737D01*
X24339Y3831D01*
X24245Y3904D01*
X24134Y3950D01*
X24016Y3965D01*
D02*
G37*
G36*
X12589Y3979D02*
X12470Y3964D01*
X12360Y3918D01*
X12265Y3845D01*
X12192Y3750D01*
X12147Y3640D01*
X12131Y3522D01*
X12147Y3403D01*
X12192Y3293D01*
X12265Y3198D01*
X12360Y3125D01*
X12470Y3080D01*
X12589Y3064D01*
X12707Y3080D01*
X12817Y3125D01*
X12912Y3198D01*
X12985Y3293D01*
X13031Y3403D01*
X13046Y3522D01*
X13031Y3640D01*
X12985Y3750D01*
X12912Y3845D01*
X12817Y3918D01*
X12707Y3964D01*
X12589Y3979D01*
D02*
G37*
G36*
X13770Y5160D02*
X13651Y5145D01*
X13541Y5099D01*
X13446Y5026D01*
X13373Y4932D01*
X13328Y4821D01*
X13312Y4703D01*
X13328Y4584D01*
X13373Y4474D01*
X13446Y4379D01*
X13541Y4306D01*
X13651Y4261D01*
X13770Y4245D01*
X13888Y4261D01*
X13998Y4306D01*
X14093Y4379D01*
X14166Y4474D01*
X14212Y4584D01*
X14227Y4703D01*
X14212Y4821D01*
X14166Y4932D01*
X14093Y5026D01*
X13998Y5099D01*
X13888Y5145D01*
X13770Y5160D01*
D02*
G37*
G36*
X23025Y5535D02*
X22860D01*
Y5370D01*
X22883Y5375D01*
X22966Y5430D01*
X23021Y5513D01*
X23025Y5535D01*
D02*
G37*
G36*
X24334D02*
X24169D01*
X24174Y5513D01*
X24229Y5430D01*
X24312Y5375D01*
X24334Y5370D01*
Y5535D01*
D02*
G37*
G36*
X13770Y3979D02*
X13651Y3964D01*
X13541Y3918D01*
X13446Y3845D01*
X13373Y3750D01*
X13328Y3640D01*
X13312Y3522D01*
X13328Y3403D01*
X13373Y3293D01*
X13446Y3198D01*
X13541Y3125D01*
X13651Y3080D01*
X13770Y3064D01*
X13888Y3080D01*
X13998Y3125D01*
X14093Y3198D01*
X14166Y3293D01*
X14212Y3403D01*
X14227Y3522D01*
X14212Y3640D01*
X14166Y3750D01*
X14093Y3845D01*
X13998Y3918D01*
X13888Y3964D01*
X13770Y3979D01*
D02*
G37*
G36*
X36369Y3979D02*
X36250Y3964D01*
X36140Y3918D01*
X36045Y3845D01*
X35972Y3750D01*
X35926Y3640D01*
X35911Y3522D01*
X35926Y3403D01*
X35972Y3293D01*
X36045Y3198D01*
X36140Y3125D01*
X36250Y3080D01*
X36369Y3064D01*
X36487Y3080D01*
X36597Y3125D01*
X36692Y3198D01*
X36765Y3293D01*
X36811Y3403D01*
X36826Y3522D01*
X36811Y3640D01*
X36765Y3750D01*
X36692Y3845D01*
X36597Y3918D01*
X36487Y3964D01*
X36369Y3979D01*
D02*
G37*
G36*
X12589Y5160D02*
X12470Y5145D01*
X12360Y5099D01*
X12265Y5026D01*
X12192Y4932D01*
X12147Y4821D01*
X12131Y4703D01*
X12147Y4584D01*
X12192Y4474D01*
X12265Y4379D01*
X12360Y4306D01*
X12470Y4261D01*
X12589Y4245D01*
X12707Y4261D01*
X12817Y4306D01*
X12912Y4379D01*
X12985Y4474D01*
X13031Y4584D01*
X13046Y4703D01*
X13031Y4821D01*
X12985Y4932D01*
X12912Y5026D01*
X12817Y5099D01*
X12707Y5145D01*
X12589Y5160D01*
D02*
G37*
G36*
X19695Y2659D02*
X19529Y2642D01*
X19369Y2594D01*
X19222Y2515D01*
X19093Y2409D01*
X18987Y2280D01*
X18908Y2133D01*
X18860Y1973D01*
X18843Y1807D01*
X18860Y1641D01*
X18908Y1481D01*
X18987Y1334D01*
X19093Y1205D01*
X19222Y1099D01*
X19369Y1020D01*
X19529Y972D01*
X19695Y956D01*
X19861Y972D01*
X20021Y1020D01*
X20168Y1099D01*
X20297Y1205D01*
X20403Y1334D01*
X20482Y1481D01*
X20530Y1641D01*
X20546Y1807D01*
X20530Y1973D01*
X20482Y2133D01*
X20403Y2280D01*
X20297Y2409D01*
X20168Y2515D01*
X20021Y2594D01*
X19861Y2642D01*
X19695Y2659D01*
D02*
G37*
G36*
X21988D02*
X21822Y2642D01*
X21662Y2594D01*
X21515Y2515D01*
X21386Y2409D01*
X21280Y2280D01*
X21202Y2133D01*
X21153Y1973D01*
X21137Y1807D01*
X21153Y1641D01*
X21202Y1481D01*
X21280Y1334D01*
X21386Y1205D01*
X21515Y1099D01*
X21662Y1020D01*
X21822Y972D01*
X21988Y956D01*
X22154Y972D01*
X22314Y1020D01*
X22461Y1099D01*
X22590Y1205D01*
X22696Y1334D01*
X22775Y1481D01*
X22823Y1641D01*
X22840Y1807D01*
X22823Y1973D01*
X22775Y2133D01*
X22696Y2280D01*
X22590Y2409D01*
X22461Y2515D01*
X22314Y2594D01*
X22154Y2642D01*
X21988Y2659D01*
D02*
G37*
G36*
X24862D02*
X24696Y2642D01*
X24536Y2594D01*
X24389Y2515D01*
X24260Y2409D01*
X24154Y2280D01*
X24076Y2133D01*
X24027Y1973D01*
X24011Y1807D01*
X24027Y1641D01*
X24076Y1481D01*
X24154Y1334D01*
X24260Y1205D01*
X24389Y1099D01*
X24536Y1020D01*
X24696Y972D01*
X24862Y956D01*
X25028Y972D01*
X25188Y1020D01*
X25335Y1099D01*
X25464Y1205D01*
X25570Y1334D01*
X25649Y1481D01*
X25697Y1641D01*
X25714Y1807D01*
X25697Y1973D01*
X25649Y2133D01*
X25570Y2280D01*
X25464Y2409D01*
X25335Y2515D01*
X25188Y2594D01*
X25028Y2642D01*
X24862Y2659D01*
D02*
G37*
G36*
X1526Y2739D02*
X1336Y2724D01*
X1151Y2680D01*
X975Y2607D01*
X812Y2508D01*
X667Y2384D01*
X544Y2239D01*
X444Y2077D01*
X371Y1901D01*
X327Y1715D01*
X312Y1526D01*
X327Y1336D01*
X371Y1151D01*
X444Y975D01*
X544Y812D01*
X667Y667D01*
X812Y544D01*
X975Y444D01*
X1151Y371D01*
X1336Y327D01*
X1526Y312D01*
X1715Y327D01*
X1901Y371D01*
X2077Y444D01*
X2239Y544D01*
X2384Y667D01*
X2508Y812D01*
X2607Y975D01*
X2680Y1151D01*
X2724Y1336D01*
X2739Y1526D01*
X2724Y1715D01*
X2680Y1901D01*
X2607Y2077D01*
X2508Y2239D01*
X2384Y2384D01*
X2239Y2508D01*
X2077Y2607D01*
X1901Y2680D01*
X1715Y2724D01*
X1526Y2739D01*
D02*
G37*
G36*
X43209D02*
X43019Y2724D01*
X42834Y2680D01*
X42658Y2607D01*
X42495Y2508D01*
X42350Y2384D01*
X42227Y2239D01*
X42127Y2077D01*
X42054Y1901D01*
X42010Y1715D01*
X41995Y1526D01*
X42010Y1336D01*
X42054Y1151D01*
X42127Y975D01*
X42227Y812D01*
X42350Y667D01*
X42495Y544D01*
X42658Y444D01*
X42834Y371D01*
X43019Y327D01*
X43209Y312D01*
X43399Y327D01*
X43584Y371D01*
X43760Y444D01*
X43922Y544D01*
X44067Y667D01*
X44191Y812D01*
X44290Y975D01*
X44363Y1151D01*
X44407Y1336D01*
X44422Y1526D01*
X44407Y1715D01*
X44363Y1901D01*
X44290Y2077D01*
X44191Y2239D01*
X44067Y2384D01*
X43922Y2508D01*
X43760Y2607D01*
X43584Y2680D01*
X43399Y2724D01*
X43209Y2739D01*
D02*
G37*
G36*
X16821Y2659D02*
X16655Y2642D01*
X16495Y2594D01*
X16348Y2515D01*
X16219Y2409D01*
X16113Y2280D01*
X16034Y2133D01*
X15986Y1973D01*
X15969Y1807D01*
X15986Y1641D01*
X16034Y1481D01*
X16113Y1334D01*
X16219Y1205D01*
X16348Y1099D01*
X16495Y1020D01*
X16655Y972D01*
X16821Y956D01*
X16987Y972D01*
X17147Y1020D01*
X17294Y1099D01*
X17423Y1205D01*
X17529Y1334D01*
X17608Y1481D01*
X17656Y1641D01*
X17672Y1807D01*
X17656Y1973D01*
X17608Y2133D01*
X17529Y2280D01*
X17423Y2409D01*
X17294Y2515D01*
X17147Y2594D01*
X16987Y2642D01*
X16821Y2659D01*
D02*
G37*
G36*
X27648D02*
X27482Y2642D01*
X27322Y2594D01*
X27175Y2515D01*
X27046Y2409D01*
X26940Y2280D01*
X26861Y2133D01*
X26813Y1973D01*
X26796Y1807D01*
X26813Y1641D01*
X26861Y1481D01*
X26940Y1334D01*
X27046Y1205D01*
X27175Y1099D01*
X27322Y1020D01*
X27482Y972D01*
X27648Y956D01*
X27814Y972D01*
X27973Y1020D01*
X28121Y1099D01*
X28250Y1205D01*
X28356Y1334D01*
X28434Y1481D01*
X28483Y1641D01*
X28499Y1807D01*
X28483Y1973D01*
X28434Y2133D01*
X28356Y2280D01*
X28250Y2409D01*
X28121Y2515D01*
X27973Y2594D01*
X27814Y2642D01*
X27648Y2659D01*
D02*
G37*
G36*
X35522Y2672D02*
X35356Y2656D01*
X35196Y2608D01*
X35049Y2529D01*
X34920Y2423D01*
X34814Y2294D01*
X34735Y2147D01*
X34687Y1987D01*
X34671Y1821D01*
X34687Y1655D01*
X34735Y1495D01*
X34814Y1348D01*
X34920Y1219D01*
X35049Y1113D01*
X35196Y1034D01*
X35356Y986D01*
X35522Y969D01*
X35688Y986D01*
X35848Y1034D01*
X35995Y1113D01*
X36124Y1219D01*
X36230Y1348D01*
X36309Y1495D01*
X36357Y1655D01*
X36374Y1821D01*
X36357Y1987D01*
X36309Y2147D01*
X36230Y2294D01*
X36124Y2423D01*
X35995Y2529D01*
X35848Y2608D01*
X35688Y2656D01*
X35522Y2672D01*
D02*
G37*
G36*
X38396D02*
X38230Y2656D01*
X38070Y2608D01*
X37923Y2529D01*
X37794Y2423D01*
X37688Y2294D01*
X37609Y2147D01*
X37561Y1987D01*
X37545Y1821D01*
X37561Y1655D01*
X37609Y1495D01*
X37688Y1348D01*
X37794Y1219D01*
X37923Y1113D01*
X38070Y1034D01*
X38230Y986D01*
X38396Y969D01*
X38562Y986D01*
X38722Y1034D01*
X38869Y1113D01*
X38998Y1219D01*
X39104Y1348D01*
X39183Y1495D01*
X39231Y1655D01*
X39248Y1821D01*
X39231Y1987D01*
X39183Y2147D01*
X39104Y2294D01*
X38998Y2423D01*
X38869Y2529D01*
X38722Y2608D01*
X38562Y2656D01*
X38396Y2672D01*
D02*
G37*
G36*
X17667Y3965D02*
X17549Y3950D01*
X17439Y3904D01*
X17344Y3831D01*
X17271Y3737D01*
X17225Y3626D01*
X17210Y3508D01*
X17225Y3389D01*
X17271Y3279D01*
X17344Y3184D01*
X17439Y3112D01*
X17549Y3066D01*
X17667Y3050D01*
X17786Y3066D01*
X17896Y3112D01*
X17991Y3184D01*
X18064Y3279D01*
X18109Y3389D01*
X18125Y3508D01*
X18109Y3626D01*
X18064Y3737D01*
X17991Y3831D01*
X17896Y3904D01*
X17786Y3950D01*
X17667Y3965D01*
D02*
G37*
G36*
X32884Y2659D02*
X32718Y2642D01*
X32558Y2594D01*
X32411Y2515D01*
X32282Y2409D01*
X32176Y2280D01*
X32097Y2133D01*
X32049Y1973D01*
X32032Y1807D01*
X32049Y1641D01*
X32097Y1481D01*
X32176Y1334D01*
X32282Y1205D01*
X32411Y1099D01*
X32558Y1020D01*
X32718Y972D01*
X32884Y956D01*
X33050Y972D01*
X33210Y1020D01*
X33357Y1099D01*
X33486Y1205D01*
X33592Y1334D01*
X33671Y1481D01*
X33719Y1641D01*
X33735Y1807D01*
X33719Y1973D01*
X33671Y2133D01*
X33592Y2280D01*
X33486Y2409D01*
X33357Y2515D01*
X33210Y2594D01*
X33050Y2642D01*
X32884Y2659D01*
D02*
G37*
G36*
X11742Y2672D02*
X11576Y2656D01*
X11416Y2608D01*
X11269Y2529D01*
X11140Y2423D01*
X11034Y2294D01*
X10955Y2147D01*
X10907Y1987D01*
X10891Y1821D01*
X10907Y1655D01*
X10955Y1495D01*
X11034Y1348D01*
X11140Y1219D01*
X11269Y1113D01*
X11416Y1034D01*
X11576Y986D01*
X11742Y969D01*
X11908Y986D01*
X12068Y1034D01*
X12215Y1113D01*
X12344Y1219D01*
X12450Y1348D01*
X12529Y1495D01*
X12577Y1655D01*
X12594Y1821D01*
X12577Y1987D01*
X12529Y2147D01*
X12450Y2294D01*
X12344Y2423D01*
X12215Y2529D01*
X12068Y2608D01*
X11908Y2656D01*
X11742Y2672D01*
D02*
G37*
G36*
X14616D02*
X14450Y2656D01*
X14290Y2608D01*
X14143Y2529D01*
X14014Y2423D01*
X13908Y2294D01*
X13829Y2147D01*
X13781Y1987D01*
X13765Y1821D01*
X13781Y1655D01*
X13829Y1495D01*
X13908Y1348D01*
X14014Y1219D01*
X14143Y1113D01*
X14290Y1034D01*
X14450Y986D01*
X14616Y969D01*
X14782Y986D01*
X14942Y1034D01*
X15089Y1113D01*
X15218Y1219D01*
X15324Y1348D01*
X15403Y1495D01*
X15451Y1655D01*
X15468Y1821D01*
X15451Y1987D01*
X15403Y2147D01*
X15324Y2294D01*
X15218Y2423D01*
X15089Y2529D01*
X14942Y2608D01*
X14782Y2656D01*
X14616Y2672D01*
D02*
G37*
G36*
X24649Y5535D02*
X24484D01*
Y5370D01*
X24507Y5375D01*
X24590Y5430D01*
X24645Y5513D01*
X24649Y5535D01*
D02*
G37*
G36*
X24449Y10844D02*
X24367Y10828D01*
X24298Y10781D01*
X24251Y10712D01*
X24235Y10630D01*
X24251Y10548D01*
X24298Y10479D01*
X24337Y10452D01*
Y10362D01*
X23346Y9371D01*
X23322Y9335D01*
X23313Y9292D01*
X23313Y9292D01*
Y8002D01*
X23274Y7976D01*
X23227Y7907D01*
X23211Y7825D01*
X23227Y7743D01*
X23274Y7673D01*
X23343Y7627D01*
X23425Y7611D01*
X23507Y7627D01*
X23577Y7673D01*
X23623Y7743D01*
X23639Y7825D01*
X23623Y7907D01*
X23577Y7976D01*
X23537Y8002D01*
Y9245D01*
X24529Y10236D01*
X24529Y10236D01*
X24553Y10273D01*
X24561Y10316D01*
X24561Y10316D01*
Y10452D01*
X24601Y10479D01*
X24647Y10548D01*
X24663Y10630D01*
X24647Y10712D01*
X24601Y10781D01*
X24531Y10828D01*
X24449Y10844D01*
D02*
G37*
G36*
X26664Y16061D02*
X26582Y16044D01*
X26512Y15998D01*
X26466Y15928D01*
X26450Y15846D01*
X26466Y15765D01*
X26512Y15695D01*
X26582Y15649D01*
X26664Y15632D01*
X26746Y15649D01*
X26815Y15695D01*
X26841Y15734D01*
X29422D01*
X32408Y12749D01*
Y7883D01*
X31877Y7353D01*
X31831Y7362D01*
X31749Y7346D01*
X31680Y7299D01*
X31633Y7230D01*
X31617Y7148D01*
X31633Y7066D01*
X31680Y6997D01*
X31749Y6950D01*
X31831Y6934D01*
X31913Y6950D01*
X31983Y6997D01*
X32029Y7066D01*
X32045Y7148D01*
X32036Y7194D01*
X32599Y7758D01*
X32599Y7758D01*
X32624Y7794D01*
X32632Y7837D01*
Y9115D01*
X32682Y9130D01*
X32687Y9123D01*
X33299Y8511D01*
X33290Y8465D01*
X33307Y8383D01*
X33353Y8313D01*
X33422Y8267D01*
X33504Y8250D01*
X33586Y8267D01*
X33656Y8313D01*
X33702Y8383D01*
X33718Y8465D01*
X33702Y8547D01*
X33656Y8616D01*
X33586Y8662D01*
X33504Y8679D01*
X33458Y8669D01*
X32878Y9249D01*
Y13356D01*
X32918Y13382D01*
X32964Y13452D01*
X32980Y13533D01*
X32964Y13615D01*
X32918Y13685D01*
X32848Y13731D01*
X32766Y13748D01*
X32684Y13731D01*
X32615Y13685D01*
X32568Y13615D01*
X32552Y13533D01*
X32568Y13452D01*
X32615Y13382D01*
X32654Y13356D01*
Y12883D01*
X32604Y12868D01*
X32599Y12875D01*
X32599Y12875D01*
X29548Y15926D01*
X29512Y15950D01*
X29469Y15959D01*
X29469Y15959D01*
X26841D01*
X26815Y15998D01*
X26746Y16044D01*
X26664Y16061D01*
D02*
G37*
G36*
X36063Y11582D02*
X35981Y11566D01*
X35912Y11520D01*
X35866Y11450D01*
X35849Y11368D01*
X35866Y11286D01*
X35912Y11217D01*
X35951Y11190D01*
Y8642D01*
X35912Y8616D01*
X35866Y8547D01*
X35849Y8465D01*
X35866Y8383D01*
X35912Y8313D01*
X35981Y8267D01*
X36063Y8250D01*
X36145Y8267D01*
X36215Y8313D01*
X36261Y8383D01*
X36278Y8465D01*
X36261Y8547D01*
X36215Y8616D01*
X36176Y8642D01*
Y11190D01*
X36215Y11217D01*
X36261Y11286D01*
X36278Y11368D01*
X36261Y11450D01*
X36215Y11520D01*
X36145Y11566D01*
X36063Y11582D01*
D02*
G37*
G36*
X10801Y6490D02*
X10778Y6485D01*
X10696Y6430D01*
X10640Y6348D01*
X10636Y6325D01*
X10801D01*
Y6490D01*
D02*
G37*
G36*
X10951D02*
Y6325D01*
X11116D01*
X11111Y6348D01*
X11056Y6430D01*
X10974Y6485D01*
X10951Y6490D01*
D02*
G37*
G36*
X23711Y10844D02*
X23629Y10828D01*
X23560Y10781D01*
X23513Y10712D01*
X23497Y10630D01*
X23513Y10548D01*
X23560Y10479D01*
X23573Y10470D01*
X23578Y10409D01*
X20023Y6854D01*
X19213D01*
X19187Y6894D01*
X19118Y6940D01*
X19036Y6956D01*
X18954Y6940D01*
X18884Y6894D01*
X18838Y6824D01*
X18822Y6742D01*
X18838Y6660D01*
X18884Y6591D01*
X18954Y6544D01*
X19036Y6528D01*
X19118Y6544D01*
X19187Y6591D01*
X19213Y6630D01*
X20069D01*
X20069Y6630D01*
X20112Y6639D01*
X20149Y6663D01*
X23790Y10305D01*
X23790Y10305D01*
X23815Y10341D01*
X23823Y10384D01*
X23823Y10384D01*
Y10452D01*
X23862Y10479D01*
X23909Y10548D01*
X23925Y10630D01*
X23909Y10712D01*
X23862Y10781D01*
X23793Y10828D01*
X23711Y10844D01*
D02*
G37*
G36*
X34955Y8783D02*
X34790D01*
X34794Y8761D01*
X34850Y8678D01*
X34932Y8623D01*
X34955Y8618D01*
Y8783D01*
D02*
G37*
G36*
X15782Y9079D02*
X15617D01*
Y8914D01*
X15639Y8918D01*
X15722Y8973D01*
X15777Y9056D01*
X15782Y9079D01*
D02*
G37*
G36*
X34955Y9098D02*
X34932Y9094D01*
X34850Y9039D01*
X34794Y8956D01*
X34790Y8933D01*
X34955D01*
Y9098D01*
D02*
G37*
G36*
X35105D02*
Y8933D01*
X35270D01*
X35265Y8956D01*
X35210Y9039D01*
X35127Y9094D01*
X35105Y9098D01*
D02*
G37*
G36*
X35270Y8783D02*
X35105D01*
Y8618D01*
X35127Y8623D01*
X35210Y8678D01*
X35265Y8761D01*
X35270Y8783D01*
D02*
G37*
G36*
X38449Y8882D02*
X38284D01*
X38289Y8859D01*
X38344Y8776D01*
X38426Y8721D01*
X38449Y8717D01*
Y8882D01*
D02*
G37*
G36*
X15467Y9079D02*
X15302D01*
X15306Y9056D01*
X15362Y8973D01*
X15444Y8918D01*
X15467Y8914D01*
Y9079D01*
D02*
G37*
G36*
X24334Y5850D02*
X24312Y5846D01*
X24229Y5790D01*
X24174Y5708D01*
X24169Y5685D01*
X24334D01*
Y5850D01*
D02*
G37*
G36*
X24484D02*
Y5685D01*
X24649D01*
X24645Y5708D01*
X24590Y5790D01*
X24507Y5846D01*
X24484Y5850D01*
D02*
G37*
G36*
X26155D02*
X26133Y5846D01*
X26050Y5790D01*
X25995Y5708D01*
X25990Y5685D01*
X26155D01*
Y5850D01*
D02*
G37*
G36*
Y5535D02*
X25990D01*
X25995Y5513D01*
X26050Y5430D01*
X26133Y5375D01*
X26155Y5370D01*
Y5535D01*
D02*
G37*
G36*
X26470D02*
X26305D01*
Y5370D01*
X26328Y5375D01*
X26411Y5430D01*
X26466Y5513D01*
X26470Y5535D01*
D02*
G37*
G36*
X22860Y5850D02*
Y5685D01*
X23025D01*
X23021Y5708D01*
X22966Y5790D01*
X22883Y5846D01*
X22860Y5850D01*
D02*
G37*
G36*
X26305D02*
Y5685D01*
X26470D01*
X26466Y5708D01*
X26411Y5790D01*
X26328Y5846D01*
X26305Y5850D01*
D02*
G37*
G36*
X11116Y6175D02*
X10951D01*
Y6010D01*
X10974Y6015D01*
X11056Y6070D01*
X11111Y6152D01*
X11116Y6175D01*
D02*
G37*
G36*
X15329Y6293D02*
X15306Y6289D01*
X15223Y6233D01*
X15168Y6151D01*
X15164Y6128D01*
X15329D01*
Y6293D01*
D02*
G37*
G36*
X15479D02*
Y6128D01*
X15644D01*
X15639Y6151D01*
X15584Y6233D01*
X15501Y6289D01*
X15479Y6293D01*
D02*
G37*
G36*
X15329Y5978D02*
X15164D01*
X15168Y5956D01*
X15223Y5873D01*
X15306Y5818D01*
X15329Y5813D01*
Y5978D01*
D02*
G37*
G36*
X15644D02*
X15479D01*
Y5813D01*
X15501Y5818D01*
X15584Y5873D01*
X15639Y5956D01*
X15644Y5978D01*
D02*
G37*
G36*
X10801Y6175D02*
X10636D01*
X10640Y6152D01*
X10696Y6070D01*
X10778Y6015D01*
X10801Y6010D01*
Y6175D01*
D02*
G37*
G36*
X25929Y29059D02*
X25764D01*
Y28894D01*
X25787Y28898D01*
X25869Y28954D01*
X25924Y29036D01*
X25929Y29059D01*
D02*
G37*
G36*
X25614Y29374D02*
X25591Y29369D01*
X25509Y29314D01*
X25453Y29231D01*
X25449Y29209D01*
X25614D01*
Y29374D01*
D02*
G37*
G36*
X25764D02*
Y29209D01*
X25929D01*
X25924Y29231D01*
X25869Y29314D01*
X25787Y29369D01*
X25764Y29374D01*
D02*
G37*
G36*
X20390Y28783D02*
Y28618D01*
X20555D01*
X20551Y28641D01*
X20496Y28724D01*
X20413Y28779D01*
X20390Y28783D01*
D02*
G37*
G36*
X21437Y30204D02*
X21319Y30188D01*
X21209Y30142D01*
X21114Y30070D01*
X21041Y29975D01*
X20995Y29865D01*
X20980Y29746D01*
X20995Y29628D01*
X21041Y29517D01*
X21114Y29422D01*
X21209Y29350D01*
X21319Y29304D01*
X21437Y29288D01*
X21556Y29304D01*
X21622Y29332D01*
X22181Y28773D01*
X22234Y28738D01*
X22244Y28736D01*
X22296Y28725D01*
X23281D01*
X23334Y28690D01*
X23416Y28674D01*
X23498Y28690D01*
X23567Y28736D01*
X23614Y28806D01*
X23630Y28888D01*
X23614Y28970D01*
X23567Y29039D01*
X23498Y29086D01*
X23416Y29102D01*
X23334Y29086D01*
X23281Y29050D01*
X22363D01*
X21852Y29561D01*
X21879Y29628D01*
X21895Y29746D01*
X21879Y29865D01*
X21834Y29975D01*
X21761Y30070D01*
X21666Y30142D01*
X21556Y30188D01*
X21437Y30204D01*
D02*
G37*
G36*
X25614Y29059D02*
X25449D01*
X25453Y29036D01*
X25509Y28954D01*
X25591Y28898D01*
X25614Y28894D01*
Y29059D01*
D02*
G37*
G36*
X23725Y29671D02*
X23312D01*
X23319Y29617D01*
X23368Y29497D01*
X23448Y29394D01*
X23551Y29315D01*
X23671Y29265D01*
X23725Y29258D01*
Y29671D01*
D02*
G37*
G36*
X35447Y29685D02*
X35034D01*
X35041Y29631D01*
X35091Y29511D01*
X35170Y29408D01*
X35273Y29329D01*
X35393Y29279D01*
X35447Y29272D01*
Y29685D01*
D02*
G37*
G36*
X36010D02*
X35597D01*
Y29272D01*
X35651Y29279D01*
X35771Y29329D01*
X35874Y29408D01*
X35953Y29511D01*
X36003Y29631D01*
X36010Y29685D01*
D02*
G37*
G36*
X40221D02*
X39808D01*
X39815Y29631D01*
X39864Y29511D01*
X39944Y29408D01*
X40047Y29329D01*
X40167Y29279D01*
X40221Y29272D01*
Y29685D01*
D02*
G37*
G36*
X24288Y29671D02*
X23875D01*
Y29258D01*
X23928Y29265D01*
X24049Y29315D01*
X24152Y29394D01*
X24231Y29497D01*
X24281Y29617D01*
X24288Y29671D01*
D02*
G37*
G36*
X29876D02*
X29463D01*
X29470Y29617D01*
X29520Y29497D01*
X29599Y29394D01*
X29702Y29315D01*
X29822Y29265D01*
X29876Y29258D01*
Y29671D01*
D02*
G37*
G36*
X30439D02*
X30026D01*
Y29258D01*
X30080Y29265D01*
X30200Y29315D01*
X30303Y29394D01*
X30382Y29497D01*
X30432Y29617D01*
X30439Y29671D01*
D02*
G37*
G36*
X30650Y25882D02*
X30536Y25867D01*
X30431Y25823D01*
X30340Y25753D01*
X30270Y25662D01*
X30226Y25556D01*
X30211Y25443D01*
X30226Y25329D01*
X30270Y25224D01*
X30340Y25133D01*
X30431Y25063D01*
X30536Y25019D01*
X30650Y25004D01*
X30764Y25019D01*
X30869Y25063D01*
X30960Y25133D01*
X31030Y25224D01*
X31074Y25329D01*
X31089Y25443D01*
X31074Y25556D01*
X31030Y25662D01*
X30960Y25753D01*
X30869Y25823D01*
X30764Y25867D01*
X30650Y25882D01*
D02*
G37*
G36*
X20315Y26029D02*
X20202Y26014D01*
X20096Y25971D01*
X20005Y25901D01*
X19935Y25810D01*
X19892Y25704D01*
X19877Y25591D01*
X19892Y25477D01*
X19935Y25371D01*
X20005Y25280D01*
X20096Y25211D01*
X20202Y25167D01*
X20315Y25152D01*
X20429Y25167D01*
X20535Y25211D01*
X20626Y25280D01*
X20695Y25371D01*
X20739Y25477D01*
X20754Y25591D01*
X20739Y25704D01*
X20695Y25810D01*
X20626Y25901D01*
X20535Y25971D01*
X20429Y26014D01*
X20315Y26029D01*
D02*
G37*
G36*
X23367Y26128D02*
X23253Y26113D01*
X23147Y26069D01*
X23056Y25999D01*
X22987Y25908D01*
X22943Y25803D01*
X22928Y25689D01*
X22943Y25575D01*
X22987Y25470D01*
X23056Y25379D01*
X23147Y25309D01*
X23253Y25265D01*
X23367Y25250D01*
X23480Y25265D01*
X23586Y25309D01*
X23677Y25379D01*
X23747Y25470D01*
X23790Y25575D01*
X23805Y25689D01*
X23790Y25803D01*
X23747Y25908D01*
X23677Y25999D01*
X23586Y26069D01*
X23480Y26113D01*
X23367Y26128D01*
D02*
G37*
G36*
X25211Y25174D02*
X25162Y25168D01*
X25046Y25120D01*
X24947Y25043D01*
X24871Y24944D01*
X24823Y24829D01*
X24817Y24780D01*
X25211D01*
Y25174D01*
D02*
G37*
G36*
X25361D02*
Y24780D01*
X25755D01*
X25749Y24829D01*
X25701Y24944D01*
X25625Y25043D01*
X25525Y25120D01*
X25410Y25168D01*
X25361Y25174D01*
D02*
G37*
G36*
X27008Y25882D02*
X26895Y25867D01*
X26789Y25823D01*
X26698Y25753D01*
X26628Y25662D01*
X26584Y25556D01*
X26570Y25443D01*
X26584Y25329D01*
X26628Y25224D01*
X26698Y25133D01*
X26789Y25063D01*
X26895Y25019D01*
X27008Y25004D01*
X27122Y25019D01*
X27228Y25063D01*
X27319Y25133D01*
X27388Y25224D01*
X27432Y25329D01*
X27447Y25443D01*
X27432Y25556D01*
X27388Y25662D01*
X27319Y25753D01*
X27228Y25823D01*
X27122Y25867D01*
X27008Y25882D01*
D02*
G37*
G36*
X40985Y27014D02*
X40871Y26999D01*
X40765Y26955D01*
X40674Y26885D01*
X40605Y26794D01*
X40561Y26688D01*
X40546Y26575D01*
X40561Y26461D01*
X40605Y26355D01*
X40674Y26265D01*
X40765Y26195D01*
X40871Y26151D01*
X40985Y26136D01*
X41098Y26151D01*
X41204Y26195D01*
X41295Y26265D01*
X41365Y26355D01*
X41408Y26461D01*
X41423Y26575D01*
X41408Y26688D01*
X41365Y26794D01*
X41295Y26885D01*
X41204Y26955D01*
X41098Y26999D01*
X40985Y27014D01*
D02*
G37*
G36*
X20240Y28468D02*
X20075D01*
X20080Y28446D01*
X20135Y28363D01*
X20218Y28308D01*
X20240Y28303D01*
Y28468D01*
D02*
G37*
G36*
X20555D02*
X20390D01*
Y28303D01*
X20413Y28308D01*
X20496Y28363D01*
X20551Y28446D01*
X20555Y28468D01*
D02*
G37*
G36*
X20240Y28783D02*
X20218Y28779D01*
X20135Y28724D01*
X20080Y28641D01*
X20075Y28618D01*
X20240D01*
Y28783D01*
D02*
G37*
G36*
X40000Y26789D02*
X39918Y26773D01*
X39849Y26726D01*
X39823Y26687D01*
X39557D01*
X39515Y26678D01*
X39478Y26654D01*
X39478Y26654D01*
X35618Y22793D01*
X35571Y22803D01*
X35489Y22786D01*
X35420Y22740D01*
X35373Y22671D01*
X35357Y22589D01*
X35373Y22507D01*
X35420Y22437D01*
X35489Y22391D01*
X35571Y22374D01*
X35653Y22391D01*
X35723Y22437D01*
X35769Y22507D01*
X35785Y22589D01*
X35776Y22635D01*
X39604Y26463D01*
X39823D01*
X39849Y26423D01*
X39918Y26377D01*
X40000Y26361D01*
X40082Y26377D01*
X40152Y26423D01*
X40198Y26493D01*
X40215Y26575D01*
X40198Y26657D01*
X40152Y26726D01*
X40082Y26773D01*
X40000Y26789D01*
D02*
G37*
G36*
X38327Y27675D02*
X38245Y27658D01*
X38176Y27612D01*
X38150Y27573D01*
X35128D01*
X35085Y27564D01*
X35049Y27540D01*
X35049Y27540D01*
X34486Y26977D01*
X34439Y26986D01*
X34357Y26969D01*
X34288Y26923D01*
X34242Y26854D01*
X34225Y26772D01*
X34242Y26690D01*
X34288Y26620D01*
X34357Y26574D01*
X34439Y26558D01*
X34521Y26574D01*
X34591Y26620D01*
X34637Y26690D01*
X34653Y26772D01*
X34644Y26818D01*
X35175Y27348D01*
X38150D01*
X38176Y27309D01*
X38245Y27263D01*
X38327Y27247D01*
X38409Y27263D01*
X38479Y27309D01*
X38525Y27379D01*
X38541Y27461D01*
X38525Y27543D01*
X38479Y27612D01*
X38409Y27658D01*
X38327Y27675D01*
D02*
G37*
G36*
X30158Y28588D02*
X30044Y28573D01*
X29939Y28530D01*
X29848Y28460D01*
X29778Y28369D01*
X29734Y28263D01*
X29719Y28150D01*
X29734Y28036D01*
X29778Y27930D01*
X29848Y27839D01*
X29939Y27770D01*
X30044Y27726D01*
X30158Y27711D01*
X30271Y27726D01*
X30377Y27770D01*
X30468Y27839D01*
X30538Y27930D01*
X30582Y28036D01*
X30597Y28150D01*
X30582Y28263D01*
X30538Y28369D01*
X30468Y28460D01*
X30377Y28530D01*
X30271Y28573D01*
X30158Y28588D01*
D02*
G37*
G36*
X40784Y29685D02*
X40371D01*
Y29272D01*
X40425Y29279D01*
X40545Y29329D01*
X40648Y29408D01*
X40727Y29511D01*
X40777Y29631D01*
X40784Y29685D01*
D02*
G37*
G36*
X20591Y32298D02*
X20425Y32282D01*
X20265Y32234D01*
X20118Y32155D01*
X19989Y32049D01*
X19883Y31920D01*
X19804Y31773D01*
X19756Y31613D01*
X19739Y31447D01*
X19756Y31281D01*
X19804Y31121D01*
X19883Y30974D01*
X19989Y30845D01*
X20118Y30739D01*
X20265Y30660D01*
X20425Y30612D01*
X20591Y30595D01*
X20757Y30612D01*
X20917Y30660D01*
X21064Y30739D01*
X21193Y30845D01*
X21299Y30974D01*
X21378Y31121D01*
X21426Y31281D01*
X21442Y31447D01*
X21426Y31613D01*
X21378Y31773D01*
X21299Y31920D01*
X21193Y32049D01*
X21064Y32155D01*
X20917Y32234D01*
X20757Y32282D01*
X20591Y32298D01*
D02*
G37*
G36*
X24646D02*
X24480Y32282D01*
X24320Y32234D01*
X24173Y32155D01*
X24044Y32049D01*
X23938Y31920D01*
X23859Y31773D01*
X23811Y31613D01*
X23795Y31447D01*
X23811Y31281D01*
X23859Y31121D01*
X23938Y30974D01*
X24044Y30845D01*
X24173Y30739D01*
X24320Y30660D01*
X24480Y30612D01*
X24646Y30595D01*
X24812Y30612D01*
X24972Y30660D01*
X25119Y30739D01*
X25248Y30845D01*
X25354Y30974D01*
X25433Y31121D01*
X25481Y31281D01*
X25498Y31447D01*
X25481Y31613D01*
X25433Y31773D01*
X25354Y31920D01*
X25248Y32049D01*
X25119Y32155D01*
X24972Y32234D01*
X24812Y32282D01*
X24646Y32298D01*
D02*
G37*
G36*
X26743D02*
X26576Y32282D01*
X26417Y32234D01*
X26269Y32155D01*
X26140Y32049D01*
X26035Y31920D01*
X25956Y31773D01*
X25907Y31613D01*
X25891Y31447D01*
X25907Y31281D01*
X25956Y31121D01*
X26035Y30974D01*
X26140Y30845D01*
X26269Y30739D01*
X26417Y30660D01*
X26576Y30612D01*
X26743Y30595D01*
X26909Y30612D01*
X27068Y30660D01*
X27216Y30739D01*
X27345Y30845D01*
X27451Y30974D01*
X27529Y31121D01*
X27578Y31281D01*
X27594Y31447D01*
X27578Y31613D01*
X27529Y31773D01*
X27451Y31920D01*
X27345Y32049D01*
X27216Y32155D01*
X27068Y32234D01*
X26909Y32282D01*
X26743Y32298D01*
D02*
G37*
G36*
X10959Y30990D02*
X9836D01*
X9845Y30877D01*
X9889Y30693D01*
X9961Y30519D01*
X10060Y30358D01*
X10183Y30214D01*
X10326Y30091D01*
X10487Y29993D01*
X10662Y29920D01*
X10846Y29876D01*
X10959Y29867D01*
Y30990D01*
D02*
G37*
G36*
X12232D02*
X11109D01*
Y29867D01*
X11222Y29876D01*
X11406Y29920D01*
X11580Y29993D01*
X11741Y30091D01*
X11885Y30214D01*
X12008Y30358D01*
X12106Y30519D01*
X12179Y30693D01*
X12223Y30877D01*
X12232Y30990D01*
D02*
G37*
G36*
X1575Y32907D02*
X1385Y32892D01*
X1200Y32847D01*
X1024Y32774D01*
X861Y32675D01*
X717Y32551D01*
X593Y32406D01*
X493Y32244D01*
X420Y32068D01*
X376Y31883D01*
X361Y31693D01*
X376Y31503D01*
X420Y31318D01*
X493Y31142D01*
X593Y30979D01*
X717Y30835D01*
X861Y30711D01*
X1024Y30611D01*
X1200Y30539D01*
X1385Y30494D01*
X1575Y30479D01*
X1765Y30494D01*
X1950Y30539D01*
X2126Y30611D01*
X2288Y30711D01*
X2433Y30835D01*
X2557Y30979D01*
X2656Y31142D01*
X2729Y31318D01*
X2774Y31503D01*
X2789Y31693D01*
X2774Y31883D01*
X2729Y32068D01*
X2656Y32244D01*
X2557Y32406D01*
X2433Y32551D01*
X2288Y32675D01*
X2126Y32774D01*
X1950Y32847D01*
X1765Y32892D01*
X1575Y32907D01*
D02*
G37*
G36*
X30798Y32298D02*
X30632Y32282D01*
X30472Y32234D01*
X30325Y32155D01*
X30196Y32049D01*
X30090Y31920D01*
X30011Y31773D01*
X29963Y31613D01*
X29946Y31447D01*
X29963Y31281D01*
X30011Y31121D01*
X30090Y30974D01*
X30196Y30845D01*
X30325Y30739D01*
X30472Y30660D01*
X30632Y30612D01*
X30798Y30595D01*
X30964Y30612D01*
X31124Y30660D01*
X31271Y30739D01*
X31400Y30845D01*
X31506Y30974D01*
X31584Y31121D01*
X31633Y31281D01*
X31649Y31447D01*
X31633Y31613D01*
X31584Y31773D01*
X31506Y31920D01*
X31400Y32049D01*
X31271Y32155D01*
X31124Y32234D01*
X30964Y32282D01*
X30798Y32298D01*
D02*
G37*
G36*
X43307Y33054D02*
X43117Y33039D01*
X42932Y32995D01*
X42756Y32922D01*
X42594Y32822D01*
X42449Y32699D01*
X42325Y32554D01*
X42226Y32392D01*
X42153Y32216D01*
X42108Y32030D01*
X42093Y31841D01*
X42108Y31651D01*
X42153Y31465D01*
X42226Y31290D01*
X42325Y31127D01*
X42449Y30982D01*
X42594Y30859D01*
X42756Y30759D01*
X42932Y30686D01*
X43117Y30642D01*
X43307Y30627D01*
X43497Y30642D01*
X43682Y30686D01*
X43858Y30759D01*
X44021Y30859D01*
X44165Y30982D01*
X44289Y31127D01*
X44389Y31290D01*
X44461Y31465D01*
X44506Y31651D01*
X44521Y31841D01*
X44506Y32030D01*
X44461Y32216D01*
X44389Y32392D01*
X44289Y32554D01*
X44165Y32699D01*
X44021Y32822D01*
X43858Y32922D01*
X43682Y32995D01*
X43497Y33039D01*
X43307Y33054D01*
D02*
G37*
G36*
X10959Y32263D02*
X10846Y32254D01*
X10662Y32210D01*
X10487Y32138D01*
X10326Y32039D01*
X10183Y31916D01*
X10060Y31773D01*
X9961Y31612D01*
X9889Y31437D01*
X9845Y31253D01*
X9836Y31140D01*
X10959D01*
Y32263D01*
D02*
G37*
G36*
X11109D02*
Y31140D01*
X12232D01*
X12223Y31253D01*
X12179Y31437D01*
X12106Y31612D01*
X12008Y31773D01*
X11885Y31916D01*
X11741Y32039D01*
X11580Y32138D01*
X11406Y32210D01*
X11222Y32254D01*
X11109Y32263D01*
D02*
G37*
G36*
X36369Y32312D02*
X36202Y32296D01*
X36043Y32247D01*
X35895Y32169D01*
X35766Y32063D01*
X35661Y31934D01*
X35582Y31786D01*
X35533Y31627D01*
X35517Y31461D01*
X35533Y31295D01*
X35582Y31135D01*
X35661Y30988D01*
X35766Y30859D01*
X35895Y30753D01*
X36043Y30674D01*
X36202Y30625D01*
X36369Y30609D01*
X36535Y30625D01*
X36694Y30674D01*
X36842Y30753D01*
X36971Y30859D01*
X37077Y30988D01*
X37155Y31135D01*
X37204Y31295D01*
X37220Y31461D01*
X37204Y31627D01*
X37155Y31786D01*
X37077Y31934D01*
X36971Y32063D01*
X36842Y32169D01*
X36694Y32247D01*
X36535Y32296D01*
X36369Y32312D01*
D02*
G37*
G36*
X38268D02*
X38102Y32296D01*
X37942Y32247D01*
X37795Y32169D01*
X37666Y32063D01*
X37560Y31934D01*
X37481Y31786D01*
X37433Y31627D01*
X37417Y31461D01*
X37433Y31295D01*
X37481Y31135D01*
X37560Y30988D01*
X37666Y30859D01*
X37795Y30753D01*
X37942Y30674D01*
X38102Y30625D01*
X38268Y30609D01*
X38434Y30625D01*
X38594Y30674D01*
X38741Y30753D01*
X38870Y30859D01*
X38976Y30988D01*
X39055Y31135D01*
X39103Y31295D01*
X39120Y31461D01*
X39103Y31627D01*
X39055Y31786D01*
X38976Y31934D01*
X38870Y32063D01*
X38741Y32169D01*
X38594Y32247D01*
X38434Y32296D01*
X38268Y32312D01*
D02*
G37*
G36*
X41142D02*
X40976Y32296D01*
X40816Y32247D01*
X40669Y32169D01*
X40540Y32063D01*
X40434Y31934D01*
X40355Y31786D01*
X40307Y31627D01*
X40291Y31461D01*
X40307Y31295D01*
X40355Y31135D01*
X40434Y30988D01*
X40540Y30859D01*
X40669Y30753D01*
X40816Y30674D01*
X40976Y30625D01*
X41142Y30609D01*
X41308Y30625D01*
X41468Y30674D01*
X41615Y30753D01*
X41744Y30859D01*
X41850Y30988D01*
X41929Y31135D01*
X41977Y31295D01*
X41994Y31461D01*
X41977Y31627D01*
X41929Y31786D01*
X41850Y31934D01*
X41744Y32063D01*
X41615Y32169D01*
X41468Y32247D01*
X41308Y32296D01*
X41142Y32312D01*
D02*
G37*
G36*
X34341Y30217D02*
X34223Y30202D01*
X34112Y30156D01*
X34017Y30083D01*
X33945Y29989D01*
X33899Y29878D01*
X33883Y29760D01*
X33899Y29641D01*
X33945Y29531D01*
X34017Y29436D01*
X34112Y29364D01*
X34223Y29318D01*
X34341Y29302D01*
X34459Y29318D01*
X34570Y29364D01*
X34665Y29436D01*
X34737Y29531D01*
X34783Y29641D01*
X34799Y29760D01*
X34783Y29878D01*
X34737Y29989D01*
X34665Y30083D01*
X34570Y30156D01*
X34459Y30202D01*
X34341Y30217D01*
D02*
G37*
G36*
X39115D02*
X38996Y30202D01*
X38886Y30156D01*
X38791Y30083D01*
X38718Y29989D01*
X38673Y29878D01*
X38657Y29760D01*
X38673Y29641D01*
X38718Y29531D01*
X38791Y29436D01*
X38886Y29364D01*
X38996Y29318D01*
X39115Y29302D01*
X39233Y29318D01*
X39343Y29364D01*
X39438Y29436D01*
X39511Y29531D01*
X39557Y29641D01*
X39572Y29760D01*
X39557Y29878D01*
X39511Y29989D01*
X39438Y30083D01*
X39343Y30156D01*
X39233Y30202D01*
X39115Y30217D01*
D02*
G37*
G36*
X23725Y30234D02*
X23671Y30227D01*
X23551Y30177D01*
X23448Y30098D01*
X23368Y29995D01*
X23319Y29875D01*
X23312Y29821D01*
X23725D01*
Y30234D01*
D02*
G37*
G36*
X22619Y30204D02*
X22500Y30188D01*
X22390Y30142D01*
X22295Y30070D01*
X22222Y29975D01*
X22176Y29865D01*
X22161Y29746D01*
X22176Y29628D01*
X22222Y29517D01*
X22295Y29422D01*
X22390Y29350D01*
X22500Y29304D01*
X22619Y29288D01*
X22737Y29304D01*
X22847Y29350D01*
X22942Y29422D01*
X23015Y29517D01*
X23061Y29628D01*
X23076Y29746D01*
X23061Y29865D01*
X23015Y29975D01*
X22942Y30070D01*
X22847Y30142D01*
X22737Y30188D01*
X22619Y30204D01*
D02*
G37*
G36*
X27589D02*
X27471Y30188D01*
X27360Y30142D01*
X27265Y30070D01*
X27193Y29975D01*
X27147Y29865D01*
X27131Y29746D01*
X27147Y29628D01*
X27193Y29517D01*
X27265Y29422D01*
X27360Y29350D01*
X27471Y29304D01*
X27589Y29288D01*
X27707Y29304D01*
X27818Y29350D01*
X27913Y29422D01*
X27985Y29517D01*
X28031Y29628D01*
X28047Y29746D01*
X28031Y29865D01*
X27985Y29975D01*
X27913Y30070D01*
X27818Y30142D01*
X27707Y30188D01*
X27589Y30204D01*
D02*
G37*
G36*
X28770D02*
X28652Y30188D01*
X28541Y30142D01*
X28447Y30070D01*
X28374Y29975D01*
X28328Y29865D01*
X28312Y29746D01*
X28328Y29628D01*
X28374Y29517D01*
X28447Y29422D01*
X28541Y29350D01*
X28652Y29304D01*
X28770Y29288D01*
X28889Y29304D01*
X28999Y29350D01*
X29094Y29422D01*
X29166Y29517D01*
X29212Y29628D01*
X29228Y29746D01*
X29212Y29865D01*
X29166Y29975D01*
X29094Y30070D01*
X28999Y30142D01*
X28889Y30188D01*
X28770Y30204D01*
D02*
G37*
G36*
X23875Y30234D02*
Y29821D01*
X24288D01*
X24281Y29875D01*
X24231Y29995D01*
X24152Y30098D01*
X24049Y30177D01*
X23928Y30227D01*
X23875Y30234D01*
D02*
G37*
G36*
X35597Y30248D02*
Y29835D01*
X36010D01*
X36003Y29889D01*
X35953Y30009D01*
X35874Y30112D01*
X35771Y30191D01*
X35651Y30241D01*
X35597Y30248D01*
D02*
G37*
G36*
X40221D02*
X40167Y30241D01*
X40047Y30191D01*
X39944Y30112D01*
X39864Y30009D01*
X39815Y29889D01*
X39808Y29835D01*
X40221D01*
Y30248D01*
D02*
G37*
G36*
X40371D02*
Y29835D01*
X40784D01*
X40777Y29889D01*
X40727Y30009D01*
X40648Y30112D01*
X40545Y30191D01*
X40425Y30241D01*
X40371Y30248D01*
D02*
G37*
G36*
X29876Y30234D02*
X29822Y30227D01*
X29702Y30177D01*
X29599Y30098D01*
X29520Y29995D01*
X29470Y29875D01*
X29463Y29821D01*
X29876D01*
Y30234D01*
D02*
G37*
G36*
X30026D02*
Y29821D01*
X30439D01*
X30432Y29875D01*
X30382Y29995D01*
X30303Y30098D01*
X30200Y30177D01*
X30080Y30227D01*
X30026Y30234D01*
D02*
G37*
G36*
X35447Y30248D02*
X35393Y30241D01*
X35273Y30191D01*
X35170Y30112D01*
X35091Y30009D01*
X35041Y29889D01*
X35034Y29835D01*
X35447D01*
Y30248D01*
D02*
G37*
G36*
X32848Y18498D02*
X32826Y18493D01*
X32743Y18438D01*
X32688Y18355D01*
X32683Y18333D01*
X32848D01*
Y18498D01*
D02*
G37*
G36*
X32998D02*
Y18333D01*
X33163D01*
X33159Y18355D01*
X33103Y18438D01*
X33021Y18493D01*
X32998Y18498D01*
D02*
G37*
G36*
X37303Y19336D02*
X37190Y19321D01*
X37084Y19278D01*
X36993Y19208D01*
X36923Y19117D01*
X36879Y19011D01*
X36864Y18898D01*
X36879Y18784D01*
X36923Y18678D01*
X36993Y18587D01*
X37084Y18518D01*
X37190Y18474D01*
X37303Y18459D01*
X37417Y18474D01*
X37523Y18518D01*
X37613Y18587D01*
X37683Y18678D01*
X37727Y18784D01*
X37742Y18898D01*
X37727Y19011D01*
X37683Y19117D01*
X37613Y19208D01*
X37523Y19278D01*
X37417Y19321D01*
X37303Y19336D01*
D02*
G37*
G36*
X33163Y18183D02*
X32998D01*
Y18018D01*
X33021Y18022D01*
X33103Y18078D01*
X33159Y18160D01*
X33163Y18183D01*
D02*
G37*
G36*
X41151Y18697D02*
X41097Y18690D01*
X40977Y18640D01*
X40874Y18561D01*
X40795Y18458D01*
X40745Y18338D01*
X40738Y18284D01*
X41151D01*
Y18697D01*
D02*
G37*
G36*
X41301D02*
Y18284D01*
X41714D01*
X41707Y18338D01*
X41658Y18458D01*
X41578Y18561D01*
X41475Y18640D01*
X41355Y18690D01*
X41301Y18697D01*
D02*
G37*
G36*
X28248Y19998D02*
X28166Y19981D01*
X28097Y19935D01*
X28050Y19865D01*
X28034Y19783D01*
X28050Y19702D01*
X28097Y19632D01*
X28136Y19606D01*
Y19174D01*
X28097Y19147D01*
X28050Y19078D01*
X28034Y18996D01*
X28050Y18914D01*
X28097Y18845D01*
X28166Y18798D01*
X28248Y18782D01*
X28330Y18798D01*
X28399Y18845D01*
X28446Y18914D01*
X28462Y18996D01*
X28446Y19078D01*
X28399Y19147D01*
X28360Y19174D01*
Y19606D01*
X28399Y19632D01*
X28446Y19702D01*
X28462Y19783D01*
X28446Y19865D01*
X28399Y19935D01*
X28330Y19981D01*
X28248Y19998D01*
D02*
G37*
G36*
X42927Y23184D02*
X42761Y23168D01*
X42601Y23119D01*
X42454Y23041D01*
X42325Y22935D01*
X42219Y22806D01*
X42140Y22659D01*
X42092Y22499D01*
X42076Y22333D01*
X42092Y22167D01*
X42140Y22007D01*
X42219Y21860D01*
X42325Y21731D01*
X42454Y21625D01*
X42601Y21546D01*
X42761Y21498D01*
X42927Y21481D01*
X43093Y21498D01*
X43253Y21546D01*
X43400Y21625D01*
X43529Y21731D01*
X43635Y21860D01*
X43714Y22007D01*
X43762Y22167D01*
X43779Y22333D01*
X43762Y22499D01*
X43714Y22659D01*
X43635Y22806D01*
X43529Y22935D01*
X43400Y23041D01*
X43253Y23119D01*
X43093Y23168D01*
X42927Y23184D01*
D02*
G37*
G36*
X37352Y23175D02*
X37239Y23160D01*
X37133Y23116D01*
X37042Y23046D01*
X36972Y22956D01*
X36929Y22850D01*
X36914Y22736D01*
X36929Y22623D01*
X36972Y22517D01*
X37042Y22426D01*
X37133Y22356D01*
X37239Y22312D01*
X37352Y22297D01*
X37466Y22312D01*
X37572Y22356D01*
X37663Y22426D01*
X37732Y22517D01*
X37776Y22623D01*
X37791Y22736D01*
X37776Y22850D01*
X37732Y22956D01*
X37663Y23046D01*
X37572Y23116D01*
X37466Y23160D01*
X37352Y23175D01*
D02*
G37*
G36*
X24138Y22710D02*
X23973D01*
X23977Y22688D01*
X24032Y22605D01*
X24115Y22550D01*
X24138Y22545D01*
Y22710D01*
D02*
G37*
G36*
X41226Y19847D02*
X41108Y19832D01*
X40998Y19786D01*
X40903Y19713D01*
X40830Y19619D01*
X40784Y19508D01*
X40769Y19390D01*
X40784Y19271D01*
X40830Y19161D01*
X40903Y19066D01*
X40998Y18993D01*
X41108Y18948D01*
X41226Y18932D01*
X41345Y18948D01*
X41455Y18993D01*
X41550Y19066D01*
X41623Y19161D01*
X41668Y19271D01*
X41684Y19390D01*
X41668Y19508D01*
X41623Y19619D01*
X41550Y19713D01*
X41455Y19786D01*
X41345Y19832D01*
X41226Y19847D01*
D02*
G37*
G36*
X42927Y21088D02*
X42761Y21071D01*
X42601Y21023D01*
X42454Y20944D01*
X42325Y20838D01*
X42219Y20709D01*
X42140Y20562D01*
X42092Y20402D01*
X42076Y20236D01*
X42092Y20070D01*
X42140Y19910D01*
X42219Y19763D01*
X42325Y19634D01*
X42454Y19528D01*
X42601Y19450D01*
X42761Y19401D01*
X42927Y19385D01*
X43093Y19401D01*
X43253Y19450D01*
X43400Y19528D01*
X43529Y19634D01*
X43635Y19763D01*
X43714Y19910D01*
X43762Y20070D01*
X43779Y20236D01*
X43762Y20402D01*
X43714Y20562D01*
X43635Y20709D01*
X43529Y20838D01*
X43400Y20944D01*
X43253Y21023D01*
X43093Y21071D01*
X42927Y21088D01*
D02*
G37*
G36*
X35178Y26986D02*
X35096Y26969D01*
X35026Y26923D01*
X34980Y26854D01*
X34963Y26772D01*
X34973Y26725D01*
X34371Y26124D01*
X34341Y26128D01*
X34227Y26113D01*
X34122Y26069D01*
X34031Y25999D01*
X33961Y25908D01*
X33917Y25803D01*
X33902Y25689D01*
X33917Y25575D01*
X33961Y25470D01*
X34031Y25379D01*
X34122Y25309D01*
X34227Y25265D01*
X34341Y25250D01*
X34455Y25265D01*
X34560Y25309D01*
X34651Y25379D01*
X34721Y25470D01*
X34765Y25575D01*
X34780Y25689D01*
X34765Y25803D01*
X34721Y25908D01*
X34651Y25999D01*
X34632Y26014D01*
X34629Y26064D01*
X35019Y26455D01*
X35065Y26436D01*
Y21405D01*
X34190Y20530D01*
X34144Y20539D01*
X34062Y20523D01*
X33993Y20476D01*
X33946Y20407D01*
X33930Y20325D01*
X33946Y20243D01*
X33993Y20173D01*
X34062Y20127D01*
X34144Y20111D01*
X34226Y20127D01*
X34296Y20173D01*
X34342Y20243D01*
X34358Y20325D01*
X34349Y20371D01*
X35257Y21279D01*
X35257Y21279D01*
X35281Y21315D01*
X35290Y21358D01*
Y26594D01*
X35329Y26620D01*
X35375Y26690D01*
X35392Y26772D01*
X35375Y26854D01*
X35329Y26923D01*
X35260Y26969D01*
X35178Y26986D01*
D02*
G37*
G36*
X8947Y18008D02*
X8834Y17993D01*
X8728Y17949D01*
X8637Y17879D01*
X8567Y17788D01*
X8523Y17682D01*
X8508Y17569D01*
X8523Y17455D01*
X8567Y17350D01*
X8637Y17259D01*
X8728Y17189D01*
X8834Y17145D01*
X8947Y17130D01*
X9061Y17145D01*
X9167Y17189D01*
X9258Y17259D01*
X9327Y17350D01*
X9371Y17455D01*
X9386Y17569D01*
X9371Y17682D01*
X9327Y17788D01*
X9258Y17879D01*
X9167Y17949D01*
X9061Y17993D01*
X8947Y18008D01*
D02*
G37*
G36*
X13229D02*
X13115Y17993D01*
X13009Y17949D01*
X12919Y17879D01*
X12849Y17788D01*
X12805Y17682D01*
X12790Y17569D01*
X12805Y17455D01*
X12849Y17350D01*
X12919Y17259D01*
X13009Y17189D01*
X13115Y17145D01*
X13229Y17130D01*
X13342Y17145D01*
X13448Y17189D01*
X13539Y17259D01*
X13609Y17350D01*
X13653Y17455D01*
X13668Y17569D01*
X13653Y17682D01*
X13609Y17788D01*
X13539Y17879D01*
X13448Y17949D01*
X13342Y17993D01*
X13229Y18008D01*
D02*
G37*
G36*
X32848Y17494D02*
X32683D01*
X32688Y17471D01*
X32743Y17389D01*
X32826Y17333D01*
X32848Y17329D01*
Y17494D01*
D02*
G37*
G36*
X36368Y19505D02*
X36286Y19489D01*
X36217Y19443D01*
X36170Y19373D01*
X36154Y19291D01*
X36170Y19209D01*
X36217Y19140D01*
X36247Y19120D01*
Y16861D01*
X36207Y16834D01*
X36161Y16765D01*
X36145Y16683D01*
X36161Y16601D01*
X36207Y16532D01*
X36277Y16485D01*
X36359Y16469D01*
X36441Y16485D01*
X36510Y16532D01*
X36556Y16601D01*
X36573Y16683D01*
X36556Y16765D01*
X36510Y16834D01*
X36471Y16861D01*
Y19107D01*
X36520Y19140D01*
X36566Y19209D01*
X36582Y19291D01*
X36566Y19373D01*
X36520Y19443D01*
X36450Y19489D01*
X36368Y19505D01*
D02*
G37*
G36*
X42927Y18214D02*
X42761Y18197D01*
X42601Y18149D01*
X42454Y18070D01*
X42325Y17964D01*
X42219Y17835D01*
X42140Y17688D01*
X42092Y17528D01*
X42076Y17362D01*
X42092Y17196D01*
X42140Y17036D01*
X42219Y16889D01*
X42325Y16760D01*
X42454Y16654D01*
X42601Y16576D01*
X42761Y16527D01*
X42927Y16511D01*
X43093Y16527D01*
X43253Y16576D01*
X43400Y16654D01*
X43529Y16760D01*
X43635Y16889D01*
X43714Y17036D01*
X43762Y17196D01*
X43779Y17362D01*
X43762Y17528D01*
X43714Y17688D01*
X43635Y17835D01*
X43529Y17964D01*
X43400Y18070D01*
X43253Y18149D01*
X43093Y18197D01*
X42927Y18214D01*
D02*
G37*
G36*
X6034Y27099D02*
X5852Y27084D01*
X5674Y27042D01*
X5506Y26972D01*
X5350Y26876D01*
X5211Y26758D01*
X5093Y26619D01*
X4997Y26463D01*
X4927Y26295D01*
X4885Y26117D01*
X4870Y25935D01*
X4885Y25753D01*
X4927Y25575D01*
X4997Y25407D01*
X5093Y25251D01*
X5211Y25112D01*
X5350Y24994D01*
X5506Y24898D01*
X5674Y24828D01*
X5852Y24786D01*
X5872Y24784D01*
Y22844D01*
X5884Y22782D01*
X5919Y22730D01*
X11887Y16762D01*
X11899Y16700D01*
X11945Y16630D01*
X12015Y16584D01*
X12097Y16567D01*
X12179Y16584D01*
X12248Y16630D01*
X12295Y16700D01*
X12311Y16782D01*
X12295Y16863D01*
X12248Y16933D01*
X12179Y16979D01*
X12116Y16992D01*
X6196Y22912D01*
Y24784D01*
X6216Y24786D01*
X6393Y24828D01*
X6562Y24898D01*
X6718Y24994D01*
X6857Y25112D01*
X6975Y25251D01*
X7071Y25407D01*
X7141Y25575D01*
X7183Y25753D01*
X7197Y25935D01*
X7183Y26117D01*
X7141Y26295D01*
X7071Y26463D01*
X6975Y26619D01*
X6857Y26758D01*
X6718Y26876D01*
X6562Y26972D01*
X6393Y27042D01*
X6216Y27084D01*
X6034Y27099D01*
D02*
G37*
G36*
X33163Y17494D02*
X32998D01*
Y17329D01*
X33021Y17333D01*
X33103Y17389D01*
X33159Y17471D01*
X33163Y17494D01*
D02*
G37*
G36*
X41151Y18134D02*
X40738D01*
X40745Y18080D01*
X40795Y17960D01*
X40874Y17857D01*
X40977Y17777D01*
X41097Y17728D01*
X41151Y17721D01*
Y18134D01*
D02*
G37*
G36*
X41714D02*
X41301D01*
Y17721D01*
X41355Y17728D01*
X41475Y17777D01*
X41578Y17857D01*
X41658Y17960D01*
X41707Y18080D01*
X41714Y18134D01*
D02*
G37*
G36*
X32848Y18183D02*
X32683D01*
X32688Y18160D01*
X32743Y18078D01*
X32826Y18022D01*
X32848Y18018D01*
Y18183D01*
D02*
G37*
G36*
X26024Y17663D02*
X25910Y17648D01*
X25805Y17604D01*
X25714Y17535D01*
X25644Y17444D01*
X25600Y17338D01*
X25600Y17337D01*
X25532D01*
X25532Y17337D01*
X25489Y17328D01*
X25453Y17304D01*
X25453Y17304D01*
X24742Y16593D01*
X24695Y16602D01*
X24613Y16586D01*
X24544Y16539D01*
X24497Y16470D01*
X24481Y16388D01*
X24490Y16342D01*
X24206Y16057D01*
X18504D01*
X18504Y16057D01*
X18461Y16049D01*
X18425Y16024D01*
X18425Y16024D01*
X15160Y12760D01*
X13938D01*
X13912Y12799D01*
X13842Y12845D01*
X13760Y12862D01*
X13678Y12845D01*
X13609Y12799D01*
X13562Y12730D01*
X13546Y12648D01*
X13562Y12566D01*
X13609Y12496D01*
X13678Y12450D01*
X13760Y12434D01*
X13842Y12450D01*
X13912Y12496D01*
X13938Y12535D01*
X15207D01*
X15207Y12535D01*
X15250Y12544D01*
X15286Y12568D01*
X18550Y15833D01*
X24252D01*
X24252Y15833D01*
X24295Y15841D01*
X24332Y15866D01*
X24649Y16183D01*
X24695Y16174D01*
X24777Y16190D01*
X24847Y16236D01*
X24893Y16306D01*
X24909Y16388D01*
X24900Y16434D01*
X25555Y17089D01*
X25614Y17078D01*
X25644Y17005D01*
X25714Y16914D01*
X25805Y16844D01*
X25910Y16801D01*
X26024Y16786D01*
X26138Y16801D01*
X26243Y16844D01*
X26334Y16914D01*
X26404Y17005D01*
X26448Y17111D01*
X26463Y17224D01*
X26448Y17338D01*
X26404Y17444D01*
X26334Y17535D01*
X26243Y17604D01*
X26138Y17648D01*
X26024Y17663D01*
D02*
G37*
G36*
X32848Y17809D02*
X32826Y17804D01*
X32743Y17749D01*
X32688Y17666D01*
X32683Y17644D01*
X32848D01*
Y17809D01*
D02*
G37*
G36*
X32998D02*
Y17644D01*
X33163D01*
X33159Y17666D01*
X33103Y17749D01*
X33021Y17804D01*
X32998Y17809D01*
D02*
G37*
G36*
X24453Y22710D02*
X24288D01*
Y22545D01*
X24310Y22550D01*
X24393Y22605D01*
X24448Y22688D01*
X24453Y22710D01*
D02*
G37*
G36*
X29469Y26346D02*
X29387Y26330D01*
X29318Y26283D01*
X29271Y26214D01*
X29255Y26132D01*
X29271Y26050D01*
X29318Y25980D01*
X29357Y25954D01*
Y25541D01*
X29357Y25541D01*
X29365Y25498D01*
X29390Y25462D01*
X31071Y23780D01*
X31052Y23734D01*
X30552D01*
X30552Y23734D01*
X30509Y23726D01*
X30472Y23701D01*
X27798Y21028D01*
X27038D01*
X27012Y21067D01*
X26943Y21113D01*
X26861Y21129D01*
X26814Y21120D01*
X25939Y21995D01*
Y22165D01*
X25979Y22191D01*
X26025Y22261D01*
X26041Y22343D01*
X26025Y22424D01*
X25979Y22494D01*
X25909Y22540D01*
X25827Y22557D01*
X25745Y22540D01*
X25676Y22494D01*
X25629Y22424D01*
X25613Y22343D01*
X25629Y22261D01*
X25676Y22191D01*
X25715Y22165D01*
Y21949D01*
X25715Y21949D01*
X25724Y21906D01*
X25748Y21870D01*
X26656Y20962D01*
X26647Y20915D01*
X26663Y20833D01*
X26709Y20764D01*
X26756Y20733D01*
X26740Y20683D01*
X25571D01*
X25545Y20722D01*
X25476Y20769D01*
X25394Y20785D01*
X25312Y20769D01*
X25242Y20722D01*
X25216Y20683D01*
X24705D01*
X24705Y20683D01*
X24662Y20674D01*
X24625Y20650D01*
X23681Y19706D01*
X23657Y19669D01*
X23648Y19626D01*
X23648Y19626D01*
Y16724D01*
X23602Y16705D01*
X23149Y17157D01*
X23151Y17160D01*
X23166Y17274D01*
X23151Y17387D01*
X23107Y17493D01*
X23037Y17584D01*
X22946Y17654D01*
X22840Y17697D01*
X22727Y17712D01*
X22613Y17697D01*
X22507Y17654D01*
X22417Y17584D01*
X22347Y17493D01*
X22303Y17387D01*
X22288Y17274D01*
X22303Y17160D01*
X22347Y17054D01*
X22417Y16963D01*
X22507Y16894D01*
X22613Y16850D01*
X22727Y16835D01*
X22840Y16850D01*
X22946Y16894D01*
X23031Y16959D01*
X23443Y16546D01*
X23424Y16500D01*
X17924D01*
X17881Y16491D01*
X17844Y16467D01*
X17844Y16467D01*
X14777Y13400D01*
X13957D01*
X13931Y13439D01*
X13861Y13485D01*
X13780Y13502D01*
X13698Y13485D01*
X13628Y13439D01*
X13582Y13369D01*
X13565Y13287D01*
X13582Y13205D01*
X13628Y13136D01*
X13698Y13090D01*
X13780Y13073D01*
X13861Y13090D01*
X13931Y13136D01*
X13957Y13175D01*
X14823D01*
X14823Y13175D01*
X14866Y13184D01*
X14903Y13208D01*
X17970Y16276D01*
X23583D01*
X23609Y16236D01*
X23678Y16190D01*
X23760Y16174D01*
X23842Y16190D01*
X23912Y16236D01*
X23958Y16306D01*
X23974Y16388D01*
X23958Y16470D01*
X23912Y16539D01*
X23872Y16565D01*
Y19580D01*
X24751Y20459D01*
X25216D01*
X25242Y20419D01*
X25312Y20373D01*
X25394Y20357D01*
X25476Y20373D01*
X25545Y20419D01*
X25571Y20459D01*
X30472D01*
X30499Y20419D01*
X30568Y20373D01*
X30650Y20357D01*
X30696Y20366D01*
X31719Y19343D01*
Y15384D01*
X31680Y15358D01*
X31633Y15289D01*
X31617Y15207D01*
X31633Y15125D01*
X31680Y15055D01*
X31749Y15009D01*
X31831Y14993D01*
X31913Y15009D01*
X31983Y15055D01*
X32029Y15125D01*
X32045Y15207D01*
X32029Y15289D01*
X31983Y15358D01*
X31943Y15384D01*
Y19390D01*
X31935Y19433D01*
X31910Y19469D01*
X31910Y19469D01*
X30855Y20525D01*
X30864Y20571D01*
X30848Y20653D01*
X30801Y20722D01*
X30732Y20769D01*
X30650Y20785D01*
X30568Y20769D01*
X30499Y20722D01*
X30472Y20683D01*
X26981D01*
X26966Y20733D01*
X27012Y20764D01*
X27038Y20803D01*
X27845D01*
X27845Y20803D01*
X27888Y20812D01*
X27924Y20836D01*
X30598Y23510D01*
X31211D01*
X31237Y23471D01*
X31306Y23424D01*
X31388Y23408D01*
X31470Y23424D01*
X31540Y23471D01*
X31586Y23540D01*
X31602Y23622D01*
X31586Y23704D01*
X31540Y23773D01*
X31470Y23820D01*
X31388Y23836D01*
X31342Y23827D01*
X29581Y25588D01*
Y25954D01*
X29620Y25980D01*
X29667Y26050D01*
X29683Y26132D01*
X29667Y26214D01*
X29620Y26283D01*
X29551Y26330D01*
X29469Y26346D01*
D02*
G37*
G36*
X41226Y24818D02*
X41108Y24802D01*
X40998Y24757D01*
X40903Y24684D01*
X40830Y24589D01*
X40784Y24479D01*
X40769Y24360D01*
X40784Y24242D01*
X40830Y24131D01*
X40903Y24037D01*
X40998Y23964D01*
X41108Y23918D01*
X41226Y23903D01*
X41345Y23918D01*
X41455Y23964D01*
X41550Y24037D01*
X41623Y24131D01*
X41668Y24242D01*
X41684Y24360D01*
X41668Y24479D01*
X41623Y24589D01*
X41550Y24684D01*
X41455Y24757D01*
X41345Y24802D01*
X41226Y24818D01*
D02*
G37*
G36*
X29453Y24207D02*
X29430Y24202D01*
X29347Y24147D01*
X29292Y24064D01*
X29288Y24042D01*
X29453D01*
Y24207D01*
D02*
G37*
G36*
X41301Y23667D02*
Y23254D01*
X41714D01*
X41707Y23308D01*
X41658Y23428D01*
X41578Y23531D01*
X41475Y23610D01*
X41355Y23660D01*
X41301Y23667D01*
D02*
G37*
G36*
X29453Y23892D02*
X29288D01*
X29292Y23869D01*
X29347Y23786D01*
X29430Y23731D01*
X29453Y23727D01*
Y23892D01*
D02*
G37*
G36*
X29768D02*
X29603D01*
Y23727D01*
X29625Y23731D01*
X29708Y23786D01*
X29763Y23869D01*
X29768Y23892D01*
D02*
G37*
G36*
X29603Y24207D02*
Y24042D01*
X29768D01*
X29763Y24064D01*
X29708Y24147D01*
X29625Y24202D01*
X29603Y24207D01*
D02*
G37*
G36*
X42927Y26058D02*
X42761Y26042D01*
X42601Y25993D01*
X42454Y25915D01*
X42325Y25809D01*
X42219Y25680D01*
X42140Y25533D01*
X42092Y25373D01*
X42076Y25207D01*
X42092Y25041D01*
X42140Y24881D01*
X42219Y24734D01*
X42325Y24605D01*
X42454Y24499D01*
X42601Y24420D01*
X42761Y24372D01*
X42927Y24355D01*
X43093Y24372D01*
X43253Y24420D01*
X43400Y24499D01*
X43529Y24605D01*
X43635Y24734D01*
X43714Y24881D01*
X43762Y25041D01*
X43779Y25207D01*
X43762Y25373D01*
X43714Y25533D01*
X43635Y25680D01*
X43529Y25809D01*
X43400Y25915D01*
X43253Y25993D01*
X43093Y26042D01*
X42927Y26058D01*
D02*
G37*
G36*
X26565Y27084D02*
X26483Y27068D01*
X26414Y27021D01*
X26368Y26952D01*
X26351Y26870D01*
X26368Y26788D01*
X26414Y26719D01*
X26483Y26672D01*
X26565Y26656D01*
X26647Y26672D01*
X26717Y26719D01*
X26743Y26758D01*
X27159D01*
X29264Y24653D01*
X29255Y24606D01*
X29271Y24524D01*
X29318Y24455D01*
X29387Y24408D01*
X29469Y24392D01*
X29551Y24408D01*
X29620Y24455D01*
X29667Y24524D01*
X29683Y24606D01*
X29667Y24688D01*
X29620Y24758D01*
X29551Y24804D01*
X29469Y24820D01*
X29423Y24811D01*
X27284Y26949D01*
X27248Y26974D01*
X27205Y26982D01*
X27205Y26982D01*
X26743D01*
X26717Y27021D01*
X26647Y27068D01*
X26565Y27084D01*
D02*
G37*
G36*
X16034Y27099D02*
X15852Y27084D01*
X15674Y27042D01*
X15506Y26972D01*
X15350Y26876D01*
X15211Y26758D01*
X15093Y26619D01*
X14997Y26463D01*
X14927Y26295D01*
X14885Y26117D01*
X14870Y25935D01*
X14885Y25753D01*
X14927Y25575D01*
X14997Y25407D01*
X15093Y25251D01*
X15211Y25112D01*
X15350Y24994D01*
X15506Y24898D01*
X15674Y24828D01*
X15852Y24786D01*
X16034Y24771D01*
X16216Y24786D01*
X16393Y24828D01*
X16562Y24898D01*
X16718Y24994D01*
X16857Y25112D01*
X16975Y25251D01*
X17071Y25407D01*
X17141Y25575D01*
X17183Y25753D01*
X17197Y25935D01*
X17183Y26117D01*
X17141Y26295D01*
X17071Y26463D01*
X16975Y26619D01*
X16857Y26758D01*
X16718Y26876D01*
X16562Y26972D01*
X16393Y27042D01*
X16216Y27084D01*
X16034Y27099D01*
D02*
G37*
G36*
X37894Y24476D02*
X37812Y24460D01*
X37742Y24413D01*
X37696Y24344D01*
X37680Y24262D01*
X37689Y24216D01*
X36338Y22865D01*
X36314Y22828D01*
X36305Y22785D01*
X36305Y22785D01*
Y22766D01*
X36266Y22740D01*
X36220Y22671D01*
X36203Y22589D01*
X36220Y22507D01*
X36266Y22437D01*
X36335Y22391D01*
X36417Y22374D01*
X36499Y22391D01*
X36569Y22437D01*
X36615Y22507D01*
X36631Y22589D01*
X36615Y22671D01*
X36569Y22740D01*
X36565Y22775D01*
X37847Y24057D01*
X37894Y24048D01*
X37976Y24064D01*
X38045Y24110D01*
X38092Y24180D01*
X38108Y24262D01*
X38092Y24344D01*
X38045Y24413D01*
X37976Y24460D01*
X37894Y24476D01*
D02*
G37*
G36*
X25211Y24630D02*
X24817D01*
X24823Y24581D01*
X24871Y24465D01*
X24947Y24366D01*
X25046Y24290D01*
X25162Y24242D01*
X25211Y24235D01*
Y24630D01*
D02*
G37*
G36*
X25755D02*
X25361D01*
Y24235D01*
X25410Y24242D01*
X25525Y24290D01*
X25625Y24366D01*
X25701Y24465D01*
X25749Y24581D01*
X25755Y24630D01*
D02*
G37*
G36*
X41714Y23104D02*
X41301D01*
Y22691D01*
X41355Y22698D01*
X41475Y22748D01*
X41578Y22827D01*
X41658Y22930D01*
X41707Y23050D01*
X41714Y23104D01*
D02*
G37*
G36*
X27533Y22858D02*
X27368D01*
X27373Y22836D01*
X27428Y22753D01*
X27511Y22698D01*
X27533Y22693D01*
Y22858D01*
D02*
G37*
G36*
X27848D02*
X27683D01*
Y22693D01*
X27706Y22698D01*
X27789Y22753D01*
X27844Y22836D01*
X27848Y22858D01*
D02*
G37*
G36*
X21234Y22760D02*
X21069D01*
X21074Y22737D01*
X21129Y22654D01*
X21212Y22599D01*
X21234Y22595D01*
Y22760D01*
D02*
G37*
G36*
X21549D02*
X21384D01*
Y22595D01*
X21407Y22599D01*
X21489Y22654D01*
X21545Y22737D01*
X21549Y22760D01*
D02*
G37*
G36*
X41151Y23104D02*
X40738D01*
X40745Y23050D01*
X40795Y22930D01*
X40874Y22827D01*
X40977Y22748D01*
X41097Y22698D01*
X41151Y22691D01*
Y23104D01*
D02*
G37*
G36*
X24138Y23025D02*
X24115Y23021D01*
X24032Y22966D01*
X23977Y22883D01*
X23973Y22860D01*
X24138D01*
Y23025D01*
D02*
G37*
G36*
X27533Y23173D02*
X27511Y23169D01*
X27428Y23113D01*
X27373Y23031D01*
X27368Y23008D01*
X27533D01*
Y23173D01*
D02*
G37*
G36*
X27683D02*
Y23008D01*
X27848D01*
X27844Y23031D01*
X27789Y23113D01*
X27706Y23169D01*
X27683Y23173D01*
D02*
G37*
G36*
X41151Y23667D02*
X41097Y23660D01*
X40977Y23610D01*
X40874Y23531D01*
X40795Y23428D01*
X40745Y23308D01*
X40738Y23254D01*
X41151D01*
Y23667D01*
D02*
G37*
G36*
X24288Y23025D02*
Y22860D01*
X24453D01*
X24448Y22883D01*
X24393Y22966D01*
X24310Y23021D01*
X24288Y23025D01*
D02*
G37*
G36*
X21234Y23075D02*
X21212Y23070D01*
X21129Y23015D01*
X21074Y22932D01*
X21069Y22910D01*
X21234D01*
Y23075D01*
D02*
G37*
G36*
X21384D02*
Y22910D01*
X21549D01*
X21545Y22932D01*
X21489Y23015D01*
X21407Y23070D01*
X21384Y23075D01*
D02*
G37*
%LPD*%
D25*
X28189Y10228D02*
D03*
D32*
X28248Y18996D02*
Y19783D01*
X31398Y7579D02*
X32234Y8415D01*
X31398Y6782D02*
Y7579D01*
Y6782D02*
X32037Y6142D01*
X32234Y8415D02*
Y12648D01*
X29872Y15010D02*
X32234Y12648D01*
X26910Y15010D02*
X29872D01*
X12205Y11319D02*
X14911D01*
X19045Y15453D01*
X21358D01*
X29120Y4134D02*
X29675Y4689D01*
X23425Y4134D02*
X29120D01*
X22392Y5167D02*
X23425Y4134D01*
X22392Y5167D02*
Y8169D01*
X20866Y9055D02*
Y14419D01*
X21358Y14911D01*
X32037Y4689D02*
Y6142D01*
X28337Y9104D02*
X31447Y5995D01*
Y4098D02*
Y5995D01*
Y4098D02*
X32037Y3508D01*
X24852Y9695D02*
X28494Y6053D01*
Y4689D02*
Y6053D01*
X24419Y19291D02*
X25148Y18563D01*
X24213Y19291D02*
X24419D01*
X25148Y18159D02*
Y18563D01*
X26762Y20177D01*
X30906Y16437D02*
Y19488D01*
X30217Y20177D02*
X30906Y19488D01*
X26762Y20177D02*
X30217D01*
X30118Y15886D02*
X31979Y14026D01*
X30118Y15886D02*
Y19734D01*
X24705Y20571D02*
X30650D01*
X23760Y19626D02*
X24705Y20571D01*
X23760Y16388D02*
Y19626D01*
X17924Y16388D02*
X23760D01*
X14823Y13287D02*
X17924Y16388D01*
X13780Y13287D02*
X14823D01*
X24409Y5610D02*
X26230D01*
X24449Y10316D02*
Y10630D01*
X23425Y9292D02*
X24449Y10316D01*
X23425Y7825D02*
Y9292D01*
X22785Y5610D02*
X24409D01*
X24409Y5610D01*
X24409Y5610D01*
X13533Y6053D02*
X13878Y6398D01*
X11073Y6053D02*
X13533D01*
X10876Y6250D02*
X11073Y6053D01*
X14222D02*
X15404D01*
X13878Y6398D02*
X14222Y6053D01*
X13878Y6398D02*
Y7490D01*
X18347Y6693D02*
X18790Y6250D01*
X20660D02*
X21398Y6988D01*
X18790Y6250D02*
X20660D01*
X21398Y6988D02*
X21949D01*
X15542Y9154D02*
X17412Y11024D01*
X13878Y7490D02*
X15542Y9154D01*
X32923Y17569D02*
Y18258D01*
X31437Y20571D02*
X33711Y18298D01*
Y14361D02*
Y18298D01*
Y14361D02*
X36467Y11605D01*
X31930Y20423D02*
X33957Y18396D01*
Y14557D02*
Y18396D01*
Y14557D02*
X36860Y11654D01*
X32323Y20620D02*
X34203Y18741D01*
Y14705D02*
Y18741D01*
Y14705D02*
X37303Y11605D01*
X32668Y21063D02*
X34449Y19282D01*
Y14853D02*
Y19282D01*
Y14853D02*
X37648Y11654D01*
X36417Y22589D02*
Y22785D01*
X37894Y24262D01*
X22727Y17274D02*
X22874D01*
X23760Y16388D01*
X25532Y17224D02*
X26024D01*
X24695Y16388D02*
X25532Y17224D01*
X34341Y25689D02*
Y25935D01*
X35178Y26772D01*
X19036Y6742D02*
X20069D01*
X23711Y10384D01*
Y10630D01*
X38229Y4232D02*
Y5364D01*
X37547Y3550D02*
X38229Y4232D01*
X30847Y7776D02*
X31930Y8858D01*
X30404Y7776D02*
X30847D01*
X28977Y10974D02*
Y11467D01*
X39557Y26575D02*
X40000D01*
X34144Y20325D02*
X35178Y21358D01*
Y26772D01*
X35571Y22589D02*
X39557Y26575D01*
X41034Y10039D02*
Y10827D01*
X40640Y9695D02*
Y10974D01*
X41034Y9990D02*
Y10039D01*
X40640Y10974D02*
X40960Y11294D01*
Y11319D01*
X33406Y9301D02*
Y9941D01*
Y9301D02*
X33770Y8937D01*
X29124Y10138D02*
X30995D01*
X28386Y9400D02*
X29124Y10138D01*
X25876Y9400D02*
X28386D01*
X24548Y13927D02*
X24597Y13878D01*
X28928D01*
X28977D01*
X38721Y28937D02*
X39670D01*
X40493Y29760D01*
X34439Y26772D02*
X35128Y27461D01*
X38327D01*
X17412Y11024D02*
Y11860D01*
X27205Y26870D02*
X29469Y24606D01*
X31831Y15207D02*
Y19390D01*
X30650Y20571D02*
X31831Y19390D01*
X24252Y15945D02*
X24695Y16388D01*
X11309Y13091D02*
X13376Y15157D01*
X11309Y12648D02*
Y13091D01*
X10522Y11860D02*
X11309Y12648D01*
X25827Y21949D02*
X26861Y20915D01*
X25827Y21949D02*
Y22343D01*
X29469Y25541D02*
Y26132D01*
Y25541D02*
X31388Y23622D01*
X30552D02*
X31388D01*
X27845Y20915D02*
X30552Y23622D01*
X26861Y20915D02*
X27845D01*
X27099Y11228D02*
X27638D01*
X25089Y13238D02*
X27099Y11228D01*
X28928Y12549D02*
Y13878D01*
X29075Y11959D02*
X30404Y10630D01*
X31142D01*
X31388Y10384D01*
Y9547D02*
Y10384D01*
X26861Y12205D02*
X28239D01*
Y12205D01*
X28977Y11467D01*
X36063Y8465D02*
Y11368D01*
X31930Y20423D02*
Y21063D01*
X35620Y29858D02*
X35705Y29774D01*
X37884D01*
X38721Y28937D01*
X25827Y9104D02*
X28337D01*
X31831Y7148D02*
X32520Y7837D01*
X32766Y9203D02*
X33504Y8465D01*
X32766Y9203D02*
Y13533D01*
X24006Y14272D02*
X29518D01*
X31142Y12648D01*
X31339D01*
X27451Y14616D02*
X29813D01*
X31930Y12500D01*
Y8858D02*
Y12500D01*
X26664Y15846D02*
X29469D01*
X32520Y12795D01*
Y7837D02*
Y12795D01*
X38229Y9203D02*
X38495Y8937D01*
X38229Y9203D02*
Y10679D01*
X38573Y11024D01*
X39459Y11909D01*
X41034D01*
X40935Y9400D02*
X40985D01*
X40640Y9695D02*
X40935Y9400D01*
X38573Y9400D02*
Y9941D01*
Y9400D02*
X39016Y8957D01*
X26565Y26870D02*
X27205D01*
X5985Y25935D02*
X6605Y26555D01*
X36368Y19193D02*
Y19291D01*
X36359Y19183D02*
X36368Y19193D01*
X36359Y16683D02*
Y19183D01*
X40256Y19179D02*
X41226Y18209D01*
X40256Y19179D02*
Y22209D01*
X41226Y23179D01*
X37648Y5945D02*
Y11654D01*
Y5945D02*
X38229Y5364D01*
X36860Y5453D02*
Y11654D01*
Y5453D02*
X37057Y5256D01*
X37557Y4756D01*
X36352Y4731D02*
X36467Y4846D01*
Y11605D01*
X33770Y8937D02*
X34951D01*
X35030Y8858D01*
X37303Y6693D02*
Y11605D01*
X11614Y15059D02*
X12500Y15945D01*
X10285Y15059D02*
X11614D01*
X18356Y11378D02*
X18839Y11860D01*
X18356Y10925D02*
Y11378D01*
Y6702D02*
Y10925D01*
X18347Y6693D02*
X18356Y6702D01*
X18248Y6693D02*
X18248Y6693D01*
X14616Y6693D02*
X18248D01*
X21358Y22785D02*
X24213D01*
X21309Y22835D02*
X21358Y22785D01*
X28494Y22933D02*
X29528Y23967D01*
X27608Y22933D02*
X28494D01*
X24360D02*
X27608D01*
X24213Y22785D02*
X24360Y22933D01*
X25738Y10532D02*
X27441D01*
X27638Y10728D01*
X25394Y9882D02*
X25876Y9400D01*
X25394Y9882D02*
Y12392D01*
X23514Y14272D02*
X25394Y12392D01*
X25197Y9735D02*
X25827Y9104D01*
X24351Y12559D02*
Y12943D01*
Y12559D02*
X25197Y11713D01*
Y9735D02*
Y11713D01*
X23967Y14862D02*
X25148Y16043D01*
X23179Y14862D02*
X23967D01*
X22884Y14567D02*
X23179Y14862D01*
X22884Y13435D02*
Y14567D01*
Y13435D02*
X24852Y11467D01*
Y9695D02*
Y11467D01*
X13760Y12648D02*
X15207D01*
X18504Y15945D01*
X24252D01*
D33*
X29284Y30413D02*
X29951Y29746D01*
X26969Y30413D02*
X29284D01*
X25689Y29134D02*
X26969Y30413D01*
X23800Y29587D02*
Y29746D01*
X20315Y28543D02*
X21447D01*
X25286Y24705D01*
D34*
X21437Y29746D02*
X22296Y28888D01*
X23416D01*
X6034Y22844D02*
Y25935D01*
Y22844D02*
X12097Y16782D01*
D37*
X28494Y4689D02*
D03*
Y3508D02*
D03*
X32037D02*
D03*
X30856D02*
D03*
X29675D02*
D03*
X32037Y4689D02*
D03*
X30856D02*
D03*
X29675D02*
D03*
X13770Y3522D02*
D03*
X12589D02*
D03*
X13770Y4703D02*
D03*
X12589D02*
D03*
X22835Y3508D02*
D03*
X24016D02*
D03*
X35522Y29760D02*
D03*
X34341D02*
D03*
X40296D02*
D03*
X39115D02*
D03*
X37550Y3522D02*
D03*
X36369D02*
D03*
X37550Y4703D02*
D03*
X36369D02*
D03*
X17667Y3508D02*
D03*
X18848D02*
D03*
X27589Y29746D02*
D03*
X28770D02*
D03*
X29951D02*
D03*
X41226Y24360D02*
D03*
Y23179D02*
D03*
Y19390D02*
D03*
Y18209D02*
D03*
X21437Y29746D02*
D03*
X22619D02*
D03*
X23800D02*
D03*
D38*
X27648Y1807D02*
D03*
X32884D02*
D03*
X11742Y1821D02*
D03*
X14616D02*
D03*
X24862Y1807D02*
D03*
X21988D02*
D03*
X33495Y31461D02*
D03*
X36369D02*
D03*
X38268D02*
D03*
X41142D02*
D03*
X35522Y1821D02*
D03*
X38396D02*
D03*
X19695Y1807D02*
D03*
X16821D02*
D03*
X30798Y31447D02*
D03*
X26743D02*
D03*
X42927Y22333D02*
D03*
Y25207D02*
D03*
Y17362D02*
D03*
Y20236D02*
D03*
X24646Y31447D02*
D03*
X20591D02*
D03*
D39*
X43927Y12282D02*
D03*
Y9569D02*
D03*
D40*
X42864Y11909D02*
D03*
Y9941D02*
D03*
D41*
X26024Y17224D02*
D03*
X22727Y17274D02*
D03*
X30650Y25443D02*
D03*
X27008D02*
D03*
X23367Y25689D02*
D03*
X20315Y25591D02*
D03*
X13229Y17569D02*
D03*
X8947D02*
D03*
X30158Y28150D02*
D03*
X37303Y18898D02*
D03*
X40985Y26575D02*
D03*
X37352Y22736D02*
D03*
X34341Y25689D02*
D03*
X25286Y24705D02*
D03*
D42*
X27638Y10228D02*
D03*
X28189Y10728D02*
D03*
X27638D02*
D03*
X28189Y11228D02*
D03*
X27638D02*
D03*
D43*
X6034Y25935D02*
D03*
X16034D02*
D03*
X11034Y31065D02*
D03*
X1526Y1526D02*
D03*
X43209D02*
D03*
X1575Y31693D02*
D03*
X43307Y31841D02*
D03*
D44*
X28248Y18996D02*
D03*
Y19783D02*
D03*
X12205Y11319D02*
D03*
X21358Y15453D02*
D03*
X22392Y8169D02*
D03*
X20866Y9055D02*
D03*
X21358Y14911D02*
D03*
X24213Y19291D02*
D03*
X25148Y18159D02*
D03*
X30118Y19734D02*
D03*
X25394Y20571D02*
D03*
X13760Y12648D02*
D03*
X13780Y13287D02*
D03*
X26230Y5610D02*
D03*
X23425Y7825D02*
D03*
X22785Y5610D02*
D03*
X24409D02*
D03*
X21949Y6988D02*
D03*
X15404Y6053D02*
D03*
X10876Y6250D02*
D03*
X30906Y16437D02*
D03*
X25689Y29134D02*
D03*
X32923Y18258D02*
D03*
Y17569D02*
D03*
X36417Y22589D02*
D03*
X37894Y24262D02*
D03*
X15542Y9154D02*
D03*
X30404Y7776D02*
D03*
X18347Y6693D02*
D03*
X19036Y6742D02*
D03*
X24449Y10630D02*
D03*
X28977Y10974D02*
D03*
X40000Y26575D02*
D03*
X34144Y20325D02*
D03*
X35178Y26772D02*
D03*
X35571Y22589D02*
D03*
X28977Y13878D02*
D03*
X38573Y9941D02*
D03*
X41034Y10827D02*
D03*
Y10039D02*
D03*
X36063Y11368D02*
D03*
X41034Y11909D02*
D03*
X38573Y11024D02*
D03*
X33406Y9941D02*
D03*
X40960Y11319D02*
D03*
X23514Y14272D02*
D03*
X24006D02*
D03*
X30995Y10138D02*
D03*
X24548Y13927D02*
D03*
X34439Y26772D02*
D03*
X38327Y27461D02*
D03*
X36359Y16683D02*
D03*
X18839Y11860D02*
D03*
X17412D02*
D03*
X29469Y24606D02*
D03*
X31831Y15207D02*
D03*
X30650Y20571D02*
D03*
X23760Y16388D02*
D03*
X12097Y16782D02*
D03*
X24695Y16388D02*
D03*
X10522Y11860D02*
D03*
X13376Y15157D02*
D03*
X25827Y22343D02*
D03*
X26762Y20177D02*
D03*
X26861Y20915D02*
D03*
X29469Y26132D02*
D03*
X31388Y23622D02*
D03*
X32766Y13533D02*
D03*
X33504Y8465D02*
D03*
X25089Y13238D02*
D03*
X29075Y11959D02*
D03*
X28928Y12549D02*
D03*
X31388Y9547D02*
D03*
X26861Y12205D02*
D03*
X23711Y10630D02*
D03*
X24351Y12943D02*
D03*
X31979Y14026D02*
D03*
X31339Y12648D02*
D03*
X26664Y15846D02*
D03*
X31831Y7148D02*
D03*
X26910Y15010D02*
D03*
X27451Y14616D02*
D03*
X36063Y8465D02*
D03*
X35030Y8858D02*
D03*
X38524Y8957D02*
D03*
X31930Y21063D02*
D03*
X32323Y20620D02*
D03*
X32668Y21063D02*
D03*
X31437Y20571D02*
D03*
X40985Y9400D02*
D03*
X39016Y8957D02*
D03*
X23416Y28888D02*
D03*
X26565Y26870D02*
D03*
X20315Y28543D02*
D03*
X36368Y19291D02*
D03*
X37303Y6693D02*
D03*
X12500Y15945D02*
D03*
X10285Y15059D02*
D03*
X18356Y10925D02*
D03*
X14616Y6693D02*
D03*
X24213Y22785D02*
D03*
X21309Y22835D02*
D03*
X29528Y23967D02*
D03*
X27608Y22933D02*
D03*
X25738Y10532D02*
D03*
X25148Y16043D02*
D03*
M02*
