%FSLAX24Y24*%
%MOIN*%
G70*
G01*
G75*
G04 Layer_Color=32896*
%ADD10R,0.0551X0.0591*%
%ADD11R,0.0354X0.0394*%
%ADD12R,0.0394X0.0354*%
%ADD13R,0.0315X0.0354*%
%ADD14R,0.0354X0.0315*%
%ADD15R,0.0591X0.0512*%
%ADD16R,0.0512X0.0591*%
%ADD17R,0.0610X0.0591*%
%ADD18R,0.0532X0.0157*%
%ADD19R,0.0433X0.0709*%
%ADD20O,0.0138X0.0669*%
%ADD21O,0.0886X0.0157*%
%ADD22O,0.0236X0.0768*%
%ADD23O,0.0768X0.0236*%
%ADD24R,0.0827X0.0157*%
%ADD25R,0.0394X0.0394*%
%ADD26R,0.0394X0.0394*%
%ADD27R,0.0512X0.1063*%
%ADD28R,0.0315X0.0315*%
%ADD29R,0.0315X0.0315*%
%ADD30R,0.0118X0.0571*%
%ADD31R,0.2047X0.3445*%
%ADD32C,0.0100*%
%ADD33C,0.0200*%
%ADD34C,0.0198*%
%ADD35C,0.3500*%
%ADD36C,0.0500*%
%ADD37C,0.0787*%
%ADD38C,0.1575*%
%ADD39C,0.0610*%
%ADD40C,0.0492*%
%ADD41C,0.0750*%
%ADD42C,0.0394*%
%ADD43C,0.2200*%
%ADD44C,0.0300*%
%ADD45C,0.0100*%
%ADD46C,0.0098*%
%ADD47C,0.0236*%
%ADD48C,0.0157*%
%ADD49C,0.0079*%
%ADD50C,0.0080*%
%ADD51R,0.0631X0.0671*%
%ADD52R,0.0434X0.0474*%
%ADD53R,0.0474X0.0434*%
%ADD54R,0.0395X0.0434*%
%ADD55R,0.0434X0.0395*%
%ADD56R,0.0671X0.0592*%
%ADD57R,0.0592X0.0671*%
%ADD58R,0.0690X0.0671*%
%ADD59R,0.0612X0.0237*%
%ADD60R,0.0513X0.0789*%
%ADD61O,0.0218X0.0749*%
%ADD62O,0.0966X0.0237*%
%ADD63O,0.0316X0.0848*%
%ADD64O,0.0848X0.0316*%
%ADD65R,0.0907X0.0237*%
%ADD66R,0.0474X0.0474*%
%ADD67R,0.0474X0.0474*%
%ADD68R,0.0592X0.1143*%
%ADD69R,0.0395X0.0395*%
%ADD70R,0.0395X0.0395*%
%ADD71R,0.0198X0.0651*%
%ADD72R,0.2127X0.3525*%
%ADD73C,0.0867*%
%ADD74C,0.1655*%
%ADD75C,0.0690*%
%ADD76C,0.0572*%
%ADD77C,0.0830*%
%ADD78C,0.0474*%
%ADD79C,0.2280*%
%ADD80C,0.0380*%
D32*
X1338Y3894D02*
Y3694D01*
Y3794D01*
X838D01*
X738Y3694D01*
Y3594D01*
X838Y3494D01*
X1338Y4494D02*
Y4294D01*
Y4394D01*
X838D01*
X738Y4294D01*
Y4194D01*
X838Y4094D01*
X1238Y5094D02*
X1338Y4994D01*
Y4794D01*
X1238Y4694D01*
X838D01*
X738Y4794D01*
Y4994D01*
X838Y5094D01*
X2271Y3494D02*
X2371Y3594D01*
Y3794D01*
X2271Y3894D01*
X1872D01*
X1772Y3794D01*
Y3594D01*
X1872Y3494D01*
X2271D01*
X2371Y4494D02*
X2271Y4294D01*
X2072Y4094D01*
X1872D01*
X1772Y4194D01*
Y4394D01*
X1872Y4494D01*
X1972D01*
X2072Y4394D01*
Y4094D01*
X1772Y4694D02*
X2172Y5094D01*
X1772Y5693D02*
Y5294D01*
X2172Y5693D01*
X2271D01*
X2371Y5593D01*
Y5393D01*
X2271Y5294D01*
Y5893D02*
X2371Y5993D01*
Y6193D01*
X2271Y6293D01*
X2172D01*
X2072Y6193D01*
X1972Y6293D01*
X1872D01*
X1772Y6193D01*
Y5993D01*
X1872Y5893D01*
X1972D01*
X2072Y5993D01*
X2172Y5893D01*
X2271D01*
X2072Y5993D02*
Y6193D01*
X1772Y6493D02*
X2172Y6893D01*
X1772Y7093D02*
Y7293D01*
Y7193D01*
X2371D01*
X2271Y7093D01*
X2371Y7993D02*
X2271Y7793D01*
X2072Y7593D01*
X1872D01*
X1772Y7693D01*
Y7893D01*
X1872Y7993D01*
X1972D01*
X2072Y7893D01*
Y7593D01*
X2805Y3494D02*
X3405D01*
Y3794D01*
X3305Y3894D01*
X3105D01*
X3005Y3794D01*
Y3494D01*
Y3694D02*
X2805Y3894D01*
Y4394D02*
Y4194D01*
X2905Y4094D01*
X3105D01*
X3205Y4194D01*
Y4394D01*
X3105Y4494D01*
X3005D01*
Y4094D01*
X3205Y4694D02*
X2805Y4894D01*
X3205Y5094D01*
X2805Y5893D02*
Y6093D01*
Y5993D01*
X3405D01*
X3305Y5893D01*
X2805Y6393D02*
X2905D01*
Y6493D01*
X2805D01*
Y6393D01*
X3305Y6893D02*
X3405Y6993D01*
Y7193D01*
X3305Y7293D01*
X2905D01*
X2805Y7193D01*
Y6993D01*
X2905Y6893D01*
X3305D01*
X4340Y3494D02*
X3740D01*
Y3894D01*
Y4094D02*
Y4294D01*
Y4194D01*
X4140D01*
Y4094D01*
X3740Y4594D02*
Y4794D01*
Y4694D01*
X4340D01*
Y4594D01*
X3740Y5094D02*
X4340D01*
Y5393D01*
X4240Y5493D01*
X4040D01*
X3940Y5393D01*
Y5094D01*
Y5294D02*
X3740Y5493D01*
Y5993D02*
Y5793D01*
X3840Y5693D01*
X4040D01*
X4140Y5793D01*
Y5993D01*
X4040Y6093D01*
X3940D01*
Y5693D01*
X4340Y6693D02*
X3740D01*
Y6393D01*
X3840Y6293D01*
X4040D01*
X4140Y6393D01*
Y6693D01*
X3740Y7493D02*
X4340D01*
X4140Y7693D01*
X4340Y7893D01*
X3740D01*
X4140Y8193D02*
Y8393D01*
X4040Y8492D01*
X3740D01*
Y8193D01*
X3840Y8093D01*
X3940Y8193D01*
Y8492D01*
X3740Y8692D02*
X4140D01*
Y8992D01*
X4040Y9092D01*
X3740D01*
X4140Y9392D02*
Y9592D01*
X4040Y9692D01*
X3740D01*
Y9392D01*
X3840Y9292D01*
X3940Y9392D01*
Y9692D01*
X3540Y10092D02*
Y10192D01*
X3640Y10292D01*
X4140D01*
Y9992D01*
X4040Y9892D01*
X3840D01*
X3740Y9992D01*
Y10292D01*
Y10792D02*
Y10592D01*
X3840Y10492D01*
X4040D01*
X4140Y10592D01*
Y10792D01*
X4040Y10892D01*
X3940D01*
Y10492D01*
X3740Y11092D02*
X4140D01*
Y11192D01*
X4040Y11292D01*
X3740D01*
X4040D01*
X4140Y11392D01*
X4040Y11492D01*
X3740D01*
Y11991D02*
Y11791D01*
X3840Y11691D01*
X4040D01*
X4140Y11791D01*
Y11991D01*
X4040Y12091D01*
X3940D01*
Y11691D01*
X3740Y12291D02*
X4140D01*
Y12591D01*
X4040Y12691D01*
X3740D01*
X4240Y12991D02*
X4140D01*
Y12891D01*
Y13091D01*
Y12991D01*
X3840D01*
X3740Y13091D01*
X4340Y13991D02*
X3740D01*
Y14291D01*
X3840Y14391D01*
X3940D01*
X4040Y14291D01*
Y13991D01*
Y14291D01*
X4140Y14391D01*
X4240D01*
X4340Y14291D01*
Y13991D01*
X3740Y14690D02*
Y14890D01*
X3840Y14990D01*
X4040D01*
X4140Y14890D01*
Y14690D01*
X4040Y14591D01*
X3840D01*
X3740Y14690D01*
X4140Y15290D02*
Y15490D01*
X4040Y15590D01*
X3740D01*
Y15290D01*
X3840Y15190D01*
X3940Y15290D01*
Y15590D01*
X4140Y15790D02*
X3740D01*
X3940D01*
X4040Y15890D01*
X4140Y15990D01*
Y16090D01*
X4340Y16790D02*
X3740D01*
Y16490D01*
X3840Y16390D01*
X4040D01*
X4140Y16490D01*
Y16790D01*
X29331Y5315D02*
X29931D01*
Y5615D01*
X29831Y5715D01*
X29631D01*
X29531Y5615D01*
Y5315D01*
X29931Y5915D02*
X29331D01*
Y6215D01*
X29431Y6315D01*
X29831D01*
X29931Y6215D01*
Y5915D01*
X29831Y6515D02*
X29931Y6615D01*
Y6814D01*
X29831Y6914D01*
X29731D01*
X29631Y6814D01*
Y6715D01*
Y6814D01*
X29531Y6914D01*
X29431D01*
X29331Y6814D01*
Y6615D01*
X29431Y6515D01*
X35187Y3199D02*
Y3599D01*
X34987Y3799D01*
X34787Y3599D01*
Y3199D01*
Y3499D01*
X35187D01*
X34587Y3799D02*
Y3199D01*
X34287D01*
X34187Y3299D01*
Y3699D01*
X34287Y3799D01*
X34587D01*
X33588Y3699D02*
X33687Y3799D01*
X33887D01*
X33987Y3699D01*
Y3299D01*
X33887Y3199D01*
X33687D01*
X33588Y3299D01*
X32988Y3799D02*
X33188Y3699D01*
X33388Y3499D01*
Y3299D01*
X33288Y3199D01*
X33088D01*
X32988Y3299D01*
Y3399D01*
X33088Y3499D01*
X33388D01*
X27559Y3199D02*
Y3799D01*
X27259D01*
X27159Y3699D01*
Y3499D01*
X27259Y3399D01*
X27559D01*
X26959Y3799D02*
Y3199D01*
X26659D01*
X26559Y3299D01*
Y3399D01*
X26659Y3499D01*
X26959D01*
X26659D01*
X26559Y3599D01*
Y3699D01*
X26659Y3799D01*
X26959D01*
X25960Y3199D02*
X26359D01*
X25960Y3599D01*
Y3699D01*
X26060Y3799D01*
X26259D01*
X26359Y3699D01*
X30561Y640D02*
X30961D01*
X31161Y840D01*
X30961Y1040D01*
X30561D01*
X30861D01*
Y640D01*
X31161Y1240D02*
X30561D01*
Y1539D01*
X30661Y1639D01*
X31061D01*
X31161Y1539D01*
Y1240D01*
X31061Y2239D02*
X31161Y2139D01*
Y1939D01*
X31061Y1839D01*
X30661D01*
X30561Y1939D01*
Y2139D01*
X30661Y2239D01*
X31161Y2439D02*
Y2839D01*
X31061D01*
X30661Y2439D01*
X30561D01*
X34646Y4380D02*
Y4980D01*
X34346D01*
X34246Y4880D01*
Y4680D01*
X34346Y4580D01*
X34646D01*
X33646Y4880D02*
X33746Y4980D01*
X33946D01*
X34046Y4880D01*
Y4480D01*
X33946Y4380D01*
X33746D01*
X33646Y4480D01*
X33446Y4880D02*
X33346Y4980D01*
X33146D01*
X33046Y4880D01*
Y4480D01*
X33146Y4380D01*
X33346D01*
X33446Y4480D01*
Y4880D01*
X29380Y1230D02*
X29980D01*
Y1530D01*
X29880Y1630D01*
X29680D01*
X29580Y1530D01*
Y1230D01*
X29980Y1830D02*
X29380D01*
Y2130D01*
X29480Y2230D01*
X29580D01*
X29680Y2130D01*
Y1830D01*
Y2130D01*
X29780Y2230D01*
X29880D01*
X29980Y2130D01*
Y1830D01*
X29880Y2430D02*
X29980Y2530D01*
Y2730D01*
X29880Y2830D01*
X29480D01*
X29380Y2730D01*
Y2530D01*
X29480Y2430D01*
X29880D01*
X30561Y5315D02*
X31161D01*
Y5615D01*
X31061Y5715D01*
X30861D01*
X30761Y5615D01*
Y5315D01*
X31061Y6315D02*
X31161Y6215D01*
Y6015D01*
X31061Y5915D01*
X30661D01*
X30561Y6015D01*
Y6215D01*
X30661Y6315D01*
X30561Y6914D02*
Y6515D01*
X30961Y6914D01*
X31061D01*
X31161Y6814D01*
Y6615D01*
X31061Y6515D01*
X27559Y4380D02*
Y4980D01*
X27259D01*
X27159Y4880D01*
Y4680D01*
X27259Y4580D01*
X27559D01*
X26559Y4880D02*
X26659Y4980D01*
X26859D01*
X26959Y4880D01*
Y4480D01*
X26859Y4380D01*
X26659D01*
X26559Y4480D01*
X26359Y4880D02*
X26259Y4980D01*
X26060D01*
X25960Y4880D01*
Y4780D01*
X26060Y4680D01*
X26160D01*
X26060D01*
X25960Y4580D01*
Y4480D01*
X26060Y4380D01*
X26259D01*
X26359Y4480D01*
X37486Y2362D02*
Y2962D01*
X37786Y2662D01*
X37386D01*
X37337Y5915D02*
X37537Y5815D01*
X37737Y5615D01*
Y5415D01*
X37637Y5315D01*
X37437D01*
X37337Y5415D01*
Y5515D01*
X37437Y5615D01*
X37737D01*
X36156Y2962D02*
X36556D01*
Y2662D01*
X36356Y2762D01*
X36256D01*
X36156Y2662D01*
Y2462D01*
X36256Y2362D01*
X36456D01*
X36556Y2462D01*
X36408Y5915D02*
X36008D01*
Y5815D01*
X36408Y5415D01*
Y5315D01*
X24163Y4183D02*
X23963D01*
X24063D01*
Y4783D01*
X24163Y4683D01*
X22582Y4232D02*
X22982D01*
X22582Y4632D01*
Y4732D01*
X22682Y4832D01*
X22882D01*
X22982Y4732D01*
X19153Y4731D02*
Y4331D01*
X18553D01*
Y4731D01*
X18853Y4331D02*
Y4531D01*
X19053Y5330D02*
X19153Y5230D01*
Y5030D01*
X19053Y4931D01*
X18953D01*
X18853Y5030D01*
Y5230D01*
X18753Y5330D01*
X18653D01*
X18553Y5230D01*
Y5030D01*
X18653Y4931D01*
X19153Y5530D02*
Y5930D01*
Y5730D01*
X18553D01*
X19153Y6430D02*
Y6230D01*
X19053Y6130D01*
X18653D01*
X18553Y6230D01*
Y6430D01*
X18653Y6530D01*
X19053D01*
X19153Y6430D01*
X18553Y6730D02*
X19153D01*
Y7030D01*
X19053Y7130D01*
X18853D01*
X18753Y7030D01*
Y6730D01*
X17872Y4681D02*
X17972Y4581D01*
Y4381D01*
X17872Y4281D01*
X17772D01*
X17672Y4381D01*
Y4581D01*
X17572Y4681D01*
X17472D01*
X17372Y4581D01*
Y4381D01*
X17472Y4281D01*
X17972Y4881D02*
X17372D01*
X17572Y5081D01*
X17372Y5281D01*
X17972D01*
Y5481D02*
Y5681D01*
Y5581D01*
X17372D01*
Y5481D01*
Y5681D01*
X17972Y5981D02*
Y6381D01*
Y6181D01*
X17372D01*
X17872Y6981D02*
X17972Y6881D01*
Y6681D01*
X17872Y6581D01*
X17472D01*
X17372Y6681D01*
Y6881D01*
X17472Y6981D01*
X17972Y7181D02*
X17372D01*
X17672D01*
Y7580D01*
X17972D01*
X17372D01*
X11510Y3248D02*
X11909D01*
X11510Y3648D01*
Y3748D01*
X11610Y3848D01*
X11809D01*
X11909Y3748D01*
X11610Y4380D02*
Y4980D01*
X11909Y4680D01*
X11510D01*
X14911Y4880D02*
X14811Y4980D01*
X14612D01*
X14512Y4880D01*
Y4780D01*
X14612Y4680D01*
X14711D01*
X14612D01*
X14512Y4580D01*
Y4480D01*
X14612Y4380D01*
X14811D01*
X14911Y4480D01*
X14813Y3199D02*
X14613D01*
X14713D01*
Y3799D01*
X14813Y3699D01*
X39551Y18118D02*
X39651Y18218D01*
X39851D01*
X39951Y18118D01*
Y17718D01*
X39851Y17618D01*
X39651D01*
X39551Y17718D01*
Y17918D01*
X39751D01*
X39351Y17618D02*
Y18218D01*
X38952Y17618D01*
Y18218D01*
X38752D02*
Y17618D01*
X38452D01*
X38352Y17718D01*
Y18118D01*
X38452Y18218D01*
X38752D01*
X39911Y19094D02*
Y19694D01*
X39612D01*
X39512Y19594D01*
Y19394D01*
X39612Y19294D01*
X39911D01*
X39711D02*
X39512Y19094D01*
X39312Y19694D02*
X38912D01*
X39112D01*
Y19094D01*
X38412D02*
Y19694D01*
X38712Y19394D01*
X38312D01*
X39954Y23334D02*
X40054Y23434D01*
X40254D01*
X40354Y23334D01*
Y22935D01*
X40254Y22835D01*
X40054D01*
X39954Y22935D01*
Y23135D01*
X40154D01*
X39755Y22835D02*
Y23434D01*
X39355Y22835D01*
Y23434D01*
X39155D02*
Y22835D01*
X38855D01*
X38755Y22935D01*
Y23334D01*
X38855Y23434D01*
X39155D01*
X40354Y24065D02*
Y24665D01*
X40054D01*
X39954Y24565D01*
Y24365D01*
X40054Y24265D01*
X40354D01*
X40154D02*
X39954Y24065D01*
X39755Y24665D02*
X39355D01*
X39555D01*
Y24065D01*
X39155Y24565D02*
X39055Y24665D01*
X38855D01*
X38755Y24565D01*
Y24465D01*
X38855Y24365D01*
X38955D01*
X38855D01*
X38755Y24265D01*
Y24165D01*
X38855Y24065D01*
X39055D01*
X39155Y24165D01*
X40599Y27614D02*
X40699Y27514D01*
Y27315D01*
X40599Y27215D01*
X40199D01*
X40099Y27315D01*
Y27514D01*
X40199Y27614D01*
X40399D01*
Y27415D01*
X40099Y27814D02*
X40699D01*
X40099Y28214D01*
X40699D01*
Y28414D02*
X40099D01*
Y28714D01*
X40199Y28814D01*
X40599D01*
X40699Y28714D01*
Y28414D01*
X38869Y27264D02*
X39468D01*
Y27564D01*
X39368Y27664D01*
X39168D01*
X39068Y27564D01*
Y27264D01*
Y27464D02*
X38869Y27664D01*
X39468Y27864D02*
Y28263D01*
Y28064D01*
X38869D01*
Y28863D02*
Y28463D01*
X39268Y28863D01*
X39368D01*
X39468Y28763D01*
Y28563D01*
X39368Y28463D01*
X35776Y27811D02*
X35876Y27711D01*
Y27511D01*
X35776Y27411D01*
X35376D01*
X35276Y27511D01*
Y27711D01*
X35376Y27811D01*
X35576D01*
Y27611D01*
X35276Y28011D02*
X35876D01*
X35276Y28411D01*
X35876D01*
Y28611D02*
X35276D01*
Y28911D01*
X35376Y29011D01*
X35776D01*
X35876Y28911D01*
Y28611D01*
X34095Y27461D02*
X34695D01*
Y27761D01*
X34595Y27861D01*
X34395D01*
X34295Y27761D01*
Y27461D01*
Y27661D02*
X34095Y27861D01*
X34695Y28060D02*
Y28460D01*
Y28260D01*
X34095D01*
Y28660D02*
Y28860D01*
Y28760D01*
X34695D01*
X34595Y28660D01*
X30175Y27664D02*
X30275Y27564D01*
Y27364D01*
X30175Y27264D01*
X29775D01*
X29675Y27364D01*
Y27564D01*
X29775Y27664D01*
X29975D01*
Y27464D01*
X29675Y27864D02*
X30275D01*
X29675Y28263D01*
X30275D01*
Y28463D02*
X29675D01*
Y28763D01*
X29775Y28863D01*
X30175D01*
X30275Y28763D01*
Y28463D01*
X29183Y24852D02*
X28583D01*
Y25252D01*
X29183Y25752D02*
Y25552D01*
X29083Y25452D01*
X28683D01*
X28583Y25552D01*
Y25752D01*
X28683Y25852D01*
X29083D01*
X29183Y25752D01*
X28583Y26052D02*
X28983D01*
X29183Y26252D01*
X28983Y26452D01*
X28583D01*
X28883D01*
Y26052D01*
X29183Y26652D02*
X28583D01*
Y26952D01*
X28683Y27052D01*
X29083D01*
X29183Y26952D01*
Y26652D01*
X28483Y27252D02*
Y27651D01*
X29183Y28251D02*
Y27851D01*
X28883D01*
X28983Y28051D01*
Y28151D01*
X28883Y28251D01*
X28683D01*
X28583Y28151D01*
Y27951D01*
X28683Y27851D01*
X29183Y28451D02*
X28783D01*
X28583Y28651D01*
X28783Y28851D01*
X29183D01*
X27903Y28254D02*
Y27854D01*
X27603D01*
X27703Y28054D01*
Y28154D01*
X27603Y28254D01*
X27404D01*
X27304Y28154D01*
Y27954D01*
X27404Y27854D01*
X27903Y28454D02*
X27503D01*
X27304Y28654D01*
X27503Y28854D01*
X27903D01*
X24023Y27418D02*
X24123Y27318D01*
Y27118D01*
X24023Y27018D01*
X23624D01*
X23524Y27118D01*
Y27318D01*
X23624Y27418D01*
X23824D01*
Y27218D01*
X23524Y27618D02*
X24123D01*
X23524Y28017D01*
X24123D01*
Y28217D02*
X23524D01*
Y28517D01*
X23624Y28617D01*
X24023D01*
X24123Y28517D01*
Y28217D01*
X22884Y24705D02*
X22284D01*
Y25105D01*
X22884Y25604D02*
Y25405D01*
X22784Y25305D01*
X22384D01*
X22284Y25405D01*
Y25604D01*
X22384Y25704D01*
X22784D01*
X22884Y25604D01*
X22284Y25904D02*
X22684D01*
X22884Y26104D01*
X22684Y26304D01*
X22284D01*
X22584D01*
Y25904D01*
X22884Y26504D02*
X22284D01*
Y26804D01*
X22384Y26904D01*
X22784D01*
X22884Y26804D01*
Y26504D01*
X22184Y27104D02*
Y27504D01*
X22284Y27704D02*
Y27904D01*
Y27804D01*
X22884D01*
X22784Y27704D01*
X22284Y28603D02*
Y28204D01*
X22684Y28603D01*
X22784D01*
X22884Y28503D01*
Y28304D01*
X22784Y28204D01*
X21103Y27067D02*
Y27267D01*
Y27167D01*
X21703D01*
X21603Y27067D01*
X21103Y27967D02*
Y27567D01*
X21503Y27967D01*
X21603D01*
X21703Y27867D01*
Y27667D01*
X21603Y27567D01*
X21703Y28167D02*
X21303D01*
X21103Y28367D01*
X21303Y28566D01*
X21703D01*
X18052Y28700D02*
Y28100D01*
X17652D01*
X17152Y28700D02*
X17352D01*
X17452Y28600D01*
Y28200D01*
X17352Y28100D01*
X17152D01*
X17052Y28200D01*
Y28600D01*
X17152Y28700D01*
X16852Y28100D02*
Y28500D01*
X16652Y28700D01*
X16452Y28500D01*
Y28100D01*
Y28400D01*
X16852D01*
X16252Y28700D02*
Y28100D01*
X15952D01*
X15852Y28200D01*
Y28600D01*
X15952Y28700D01*
X16252D01*
X15652Y28000D02*
X15252D01*
X14653Y28100D02*
X15053D01*
X14653Y28500D01*
Y28600D01*
X14753Y28700D01*
X14953D01*
X15053Y28600D01*
X14153Y28100D02*
Y28700D01*
X14453Y28400D01*
X14053D01*
X11362Y29486D02*
X11462Y29586D01*
X11662D01*
X11762Y29486D01*
Y29086D01*
X11662Y28986D01*
X11462D01*
X11362Y29086D01*
Y29286D01*
X11562D01*
X11162Y28986D02*
Y29586D01*
X10762Y28986D01*
Y29586D01*
X10562D02*
Y28986D01*
X10262D01*
X10162Y29086D01*
Y29486D01*
X10262Y29586D01*
X10562D01*
X6185Y28100D02*
X6585D01*
X6185Y28500D01*
Y28600D01*
X6285Y28700D01*
X6485D01*
X6585Y28600D01*
X5685Y28100D02*
Y28700D01*
X5985Y28400D01*
X5585D01*
X5385Y28700D02*
Y28300D01*
X5186Y28100D01*
X4986Y28300D01*
Y28700D01*
M02*
