M48
;Layer_Color=9474304
;FILE_FORMAT=2:4
INCH,LZ
;TYPE=PLATED
T1F00S00C0.0150
T2F00S00C0.0236
T3F00S00C0.0335
T4F00S00C0.0421
T5F00S00C0.0453
T6F00S00C0.0500
T7F00S00C0.0957
T8F00S00C0.1285
T9F00S00C0.1560
%
T01
X022785Y00561
X024409
X02623
X030404Y007776
X031831Y007148
X031388Y009547
X030995Y010138
X033406Y009941
X033504Y008465
X03503Y008858
X036063Y008465
Y011368
X038573Y011024
Y009941
X038524Y008957
X039016
X040985Y0094
X041034Y010039
Y010827
X04096Y011319
X041034Y011909
X037303Y006693
X036359Y016683
X036368Y019291
X034144Y020325
X032323Y02062
X032668Y021063
X03193
X031437Y020571
X03065
X030118Y019734
X028248Y019783
Y018996
X026762Y020177
X026861Y020915
X026664Y015846
X02691Y01501
X027451Y014616
X028977Y013878
X028928Y012549
X029075Y011959
X028977Y010974
X026861Y012205
X031339Y012648
X031979Y014026
X032766Y013533
X031831Y015207
X030906Y016437
X032923Y017569
Y018258
X025148Y018159
X024213Y019291
X025394Y020571
X025148Y016043
X024695Y016388
X02376
X023514Y014272
X024006
X024548Y013927
X024351Y012943
X025089Y013238
X024449Y01063
X023711
X025738Y010532
X023425Y007825
X022392Y008169
X021949Y006988
X020866Y009055
X019036Y006742
X018347Y006693
X015404Y006053
X014616Y006693
X015542Y009154
X017412Y01186
X018839
X018356Y010925
X01376Y012648
X01378Y013287
X013376Y015157
X0125Y015945
X012097Y016782
X012205Y011319
X010876Y00625
X021358Y014911
Y015453
X010285Y015059
X010522Y01186
X021309Y022835
X024213Y022785
X025827Y022343
X025689Y029134
X023416Y028888
X020315Y028543
X026565Y02687
X029469Y026132
Y024606
X029528Y023967
X031388Y023622
X027608Y022933
X035571Y022589
X036417Y022589
X037894Y024262
X038327Y027461
X04Y026575
X035178Y026772
X034439
T02
X027638Y010228
Y010728
Y011228
X028189
Y010728
Y010228
T03
X042864Y009941
Y011909
T04
X012589Y003522
X01377
Y004703
X012589
X017667Y003508
X018848
X022835
X024016
X028494
Y004689
X029675
Y003508
X030856
X032037
Y004689
X030856
X036369Y004703
Y003522
X03755
Y004703
X041226Y018209
Y01939
X0238Y029746
X022619
X021437
X027589
X02877
X029951
X034341Y02976
X035522
X039115
X040296
X041226Y02436
Y023179
T05
X043927Y009569
Y012282
T06
X037303Y018898
X026024Y017224
X022727Y017274
X013229Y017569
X008947
X020315Y025591
X023367Y025689
X025286Y024705
X027008Y025443
X03065
X030158Y02815
X034341Y025689
X037352Y022736
X040985Y026575
T07
X011742Y001821
X014616
X016821Y001807
X019695
X021988
X024862
X027648
X032884
X035522Y001821
X038396
X042927Y017362
Y020236
X024646Y031447
X020591
X026743
X030798
X033495Y031461
X036369
X038268
X041142
X042927Y025207
Y022333
T08
X001526Y001526
X043209
X001575Y031693
X043307Y031841
T09
X006034Y025935
X016034
X011034Y031065
M30
