%FSLAX24Y24*%
%MOIN*%
G70*
G01*
G75*
G04 Layer_Color=65535*
%ADD10R,0.0551X0.0591*%
%ADD11R,0.0354X0.0394*%
%ADD12R,0.0394X0.0354*%
%ADD13R,0.0315X0.0354*%
%ADD14R,0.0354X0.0315*%
%ADD15R,0.0591X0.0512*%
%ADD16R,0.0512X0.0591*%
%ADD17R,0.0610X0.0591*%
%ADD18R,0.0532X0.0157*%
%ADD19R,0.0433X0.0709*%
%ADD20O,0.0138X0.0669*%
%ADD21O,0.0886X0.0157*%
%ADD22O,0.0236X0.0768*%
%ADD23O,0.0768X0.0236*%
%ADD24R,0.0827X0.0157*%
%ADD25R,0.0394X0.0394*%
%ADD26R,0.0394X0.0394*%
%ADD27R,0.0512X0.1063*%
%ADD28R,0.0315X0.0315*%
%ADD29R,0.0315X0.0315*%
%ADD30R,0.0118X0.0571*%
%ADD31R,0.2047X0.3445*%
%ADD32C,0.0100*%
%ADD33C,0.0200*%
%ADD34C,0.0198*%
%ADD35C,0.3500*%
%ADD36C,0.0500*%
%ADD37C,0.0787*%
%ADD38C,0.1575*%
%ADD39C,0.0610*%
%ADD40C,0.0492*%
%ADD41C,0.0750*%
%ADD42C,0.0394*%
%ADD43C,0.2200*%
%ADD44C,0.0300*%
%ADD45C,0.0100*%
%ADD46C,0.0098*%
%ADD47C,0.0236*%
%ADD48C,0.0157*%
%ADD49C,0.0079*%
%ADD50C,0.0080*%
D32*
X-0Y1526D02*
G03*
X1526Y-0I1526J0D01*
G01*
X43209Y-0D02*
G03*
X44734Y1526I0J1526D01*
G01*
Y31841D02*
G03*
X43307Y33268I-1427J0D01*
G01*
X1575D02*
G03*
X-0Y31693I0J-1575D01*
G01*
X10965Y14715D02*
G03*
X10965Y14715I-39J0D01*
G01*
X28287Y22589D02*
G03*
X28287Y22589I-39J0D01*
G01*
X21988Y22598D02*
G03*
X21988Y22598I-39J0D01*
G01*
X33425Y8D02*
Y1058D01*
X27094Y8D02*
X33425D01*
Y2508D02*
Y5008D01*
X32425D02*
X33425D01*
X27084Y2508D02*
Y5008D01*
X27094Y8D02*
Y1058D01*
X27084Y5008D02*
X28094D01*
X30217Y18356D02*
X30856D01*
X30217Y17569D02*
Y18356D01*
Y17569D02*
X30856D01*
X35876Y17077D02*
Y17717D01*
X35089D02*
X35876D01*
X35089Y17077D02*
Y17717D01*
X40157Y12106D02*
Y12746D01*
X39370D02*
X40157D01*
X39370Y12106D02*
Y12746D01*
X20965Y13386D02*
Y14026D01*
X21752D01*
Y13386D02*
Y14026D01*
X23150Y6988D02*
Y7185D01*
X23327D01*
X24350D02*
X24528D01*
Y6988D02*
Y7185D01*
X24970Y6988D02*
Y7185D01*
X25148D01*
X26171D02*
X26348D01*
Y6988D02*
Y7185D01*
X9154Y7382D02*
Y7579D01*
X9331D01*
X10354D02*
X10532D01*
Y7382D02*
Y7579D01*
X13996Y8081D02*
Y8278D01*
X14174D01*
X15197D02*
X15374D01*
Y8081D02*
Y8278D01*
X9449Y4823D02*
X9646D01*
X9449D02*
Y5000D01*
Y6024D02*
Y6201D01*
X9646D01*
X16634Y8366D02*
X16831D01*
Y8189D02*
Y8366D01*
Y6988D02*
Y7165D01*
X16634Y6988D02*
X16831D01*
X20522Y5906D02*
X20719D01*
X20522D02*
Y6083D01*
Y7106D02*
Y7283D01*
X20719D01*
X32431Y10827D02*
Y11024D01*
X32254Y10827D02*
X32431D01*
X31053D02*
X31230D01*
X31053D02*
Y11024D01*
X-0Y1526D02*
Y31693D01*
X1526Y-0D02*
X1575D01*
X1575Y-0D02*
X43209D01*
X44734Y1526D02*
Y31841D01*
X1575Y33268D02*
X43307D01*
X-0Y31693D02*
Y31693D01*
X15157Y22D02*
Y1072D01*
X11189Y22D02*
X15157D01*
Y2522D02*
Y5022D01*
X14157D02*
X15157D01*
X11189D02*
X12107D01*
X11189Y2522D02*
Y5022D01*
Y22D02*
Y1072D01*
X44744Y9345D02*
Y12505D01*
X42784Y12235D02*
Y12505D01*
X43634D01*
X44234D02*
X44744D01*
X44234Y9345D02*
X44744D01*
X42784D02*
X43634D01*
X42784D02*
Y9615D01*
X25532Y17717D02*
X26516D01*
Y16732D02*
Y17717D01*
X25532Y16732D02*
X26516D01*
X25532D02*
Y17717D01*
X22235Y17766D02*
X23219D01*
Y16782D02*
Y17766D01*
X22235Y16782D02*
X23219D01*
X22235D02*
Y17766D01*
X30158Y24951D02*
Y25935D01*
X31142D01*
Y24951D02*
Y25935D01*
X30158Y24951D02*
X31142D01*
X26516Y25935D02*
X27500D01*
Y24951D02*
Y25935D01*
X27451Y24951D02*
X27500D01*
X26516D02*
X27451D01*
X26516D02*
Y25935D01*
X22874Y26181D02*
X23859D01*
Y25197D02*
Y26181D01*
X22874Y25197D02*
X23859D01*
X22874D02*
Y26181D01*
X13721Y18012D02*
Y18061D01*
X12737D02*
X13721D01*
X12737Y18012D02*
Y18061D01*
X13721Y17077D02*
Y18012D01*
X12737Y17077D02*
X13721D01*
X12737D02*
Y18012D01*
X8455Y18061D02*
X9439D01*
Y17077D02*
Y18061D01*
X8455Y17077D02*
X9439D01*
X8455D02*
Y18061D01*
X28199Y15118D02*
Y16663D01*
Y15118D02*
X29725D01*
Y16663D01*
X28199D02*
X29725D01*
X19823Y26083D02*
X20807D01*
X19823Y25098D02*
Y26083D01*
X20807Y25098D02*
Y26083D01*
X19823Y25098D02*
X20807D01*
X36811Y19390D02*
X37795D01*
Y18406D02*
Y19390D01*
X36811Y18406D02*
X37795D01*
X36811D02*
Y19390D01*
X36860Y23228D02*
X37844D01*
X36860Y23130D02*
Y23228D01*
X37844Y22244D02*
Y23228D01*
X36860Y22244D02*
X37844D01*
X36860D02*
Y23130D01*
X40493Y27067D02*
X41477D01*
Y26083D02*
Y27067D01*
X40493Y26083D02*
X41477D01*
X40493D02*
Y27067D01*
X33849Y26132D02*
Y26181D01*
X34833D01*
Y26132D02*
Y26181D01*
Y25197D02*
Y26132D01*
X33849Y25197D02*
X34833D01*
X33849D02*
Y26132D01*
X29666Y28543D02*
Y28642D01*
X30650D01*
Y27657D02*
Y28642D01*
X29666Y27657D02*
X30650D01*
X29666D02*
Y28543D01*
X24794Y25197D02*
X25778D01*
X24794Y24213D02*
Y25197D01*
X25778Y24213D02*
Y25197D01*
X24794Y24213D02*
X25778D01*
X27254Y11565D02*
X28534D01*
Y9892D02*
Y11565D01*
X27254Y9892D02*
X28534D01*
X27254D02*
Y11565D01*
X21435Y8D02*
Y1058D01*
Y2508D02*
Y3948D01*
X22354D01*
X24404D02*
X25404D01*
Y2508D02*
Y3948D01*
X21435Y8D02*
X25404D01*
Y1058D01*
X36922Y32210D02*
Y33260D01*
Y29320D02*
Y30760D01*
X36003Y29320D02*
X36922D01*
X32953D02*
X33953D01*
X32953D02*
Y30760D01*
Y33260D02*
X36922D01*
X32953Y32210D02*
Y33260D01*
X41696Y32210D02*
Y33260D01*
Y29320D02*
Y30760D01*
X40777Y29320D02*
X41696D01*
X37727D02*
X38727D01*
X37727D02*
Y30760D01*
Y33260D02*
X41696D01*
X37727Y32210D02*
Y33260D01*
X21455Y10957D02*
Y12267D01*
X20455Y10957D02*
X21455D01*
X20455D02*
Y12267D01*
X21455D01*
X38937Y22D02*
Y1072D01*
X34969Y22D02*
X38937D01*
Y2522D02*
Y5022D01*
X37937D02*
X38937D01*
X34969D02*
X35887D01*
X34969Y2522D02*
Y5022D01*
Y22D02*
Y1072D01*
X16267Y8D02*
Y1058D01*
Y2508D02*
Y3948D01*
X17186D01*
X19236D02*
X20236D01*
Y2508D02*
Y3948D01*
X16267Y8D02*
X20236D01*
Y1058D01*
X26201Y32196D02*
Y33246D01*
X31351D01*
X26201Y29306D02*
Y30746D01*
Y29306D02*
X27201D01*
X30401D02*
X31351D01*
Y30746D01*
Y32196D02*
Y33246D01*
X43676Y25748D02*
X44726D01*
Y21779D02*
Y25748D01*
X40786D02*
X42226D01*
X40786Y24748D02*
Y25748D01*
Y21779D02*
Y22698D01*
Y21779D02*
X42226D01*
X43676D02*
X44726D01*
X43676Y20778D02*
X44726D01*
Y16809D02*
Y20778D01*
X40786D02*
X42226D01*
X40786Y19778D02*
Y20778D01*
Y16809D02*
Y17728D01*
Y16809D02*
X42226D01*
X43676D02*
X44726D01*
X19034Y24435D02*
Y33265D01*
X3034D02*
X19034D01*
X3034Y24435D02*
Y33265D01*
Y24435D02*
X19034D01*
X20050Y32196D02*
Y33246D01*
X25200D01*
X20050Y29306D02*
Y30746D01*
Y29306D02*
X21050D01*
X24250D02*
X25200D01*
Y30746D01*
Y32196D02*
Y33246D01*
X10709Y15541D02*
X11929D01*
Y14518D02*
Y15541D01*
X10709Y14518D02*
X11929D01*
X10709D02*
X10709Y15541D01*
X28031Y23415D02*
X29252D01*
Y22392D02*
Y23415D01*
X28031Y22392D02*
X29252D01*
X28031D02*
X28031Y23415D01*
X21732Y23425D02*
X22953D01*
Y22402D02*
Y23425D01*
X21732Y22402D02*
X22953D01*
X21732D02*
X21732Y23425D01*
X12539Y457D02*
Y1057D01*
X12839D01*
X12939Y957D01*
Y757D01*
X12839Y657D01*
X12539D01*
X13139Y457D02*
X13339D01*
X13239D01*
Y1057D01*
X13139Y957D01*
X13639Y457D02*
X13839D01*
X13739D01*
Y1057D01*
X13639Y957D01*
X22894Y380D02*
Y980D01*
X23194D01*
X23294Y880D01*
Y680D01*
X23194Y580D01*
X22894D01*
X23494Y880D02*
X23593Y980D01*
X23793D01*
X23893Y880D01*
Y780D01*
X23793Y680D01*
X23893Y580D01*
Y480D01*
X23793Y380D01*
X23593D01*
X23494Y480D01*
Y580D01*
X23593Y680D01*
X23494Y780D01*
Y880D01*
X23593Y680D02*
X23793D01*
X34538Y32382D02*
Y32982D01*
X34838D01*
X34938Y32882D01*
Y32682D01*
X34838Y32582D01*
X34538D01*
X35537Y32982D02*
X35138D01*
Y32682D01*
X35338Y32782D01*
X35438D01*
X35537Y32682D01*
Y32482D01*
X35438Y32382D01*
X35238D01*
X35138Y32482D01*
X39311Y32333D02*
Y32932D01*
X39611D01*
X39711Y32833D01*
Y32633D01*
X39611Y32533D01*
X39311D01*
X39911Y32932D02*
X40311D01*
Y32833D01*
X39911Y32433D01*
Y32333D01*
X25011Y25678D02*
X24944Y25744D01*
X24811D01*
X24745Y25678D01*
Y25411D01*
X24811Y25344D01*
X24944D01*
X25011Y25411D01*
Y25544D01*
X24878D01*
X25144Y25344D02*
Y25744D01*
X25411Y25344D01*
Y25744D01*
X25544D02*
Y25344D01*
X25744D01*
X25811Y25411D01*
Y25678D01*
X25744Y25744D01*
X25544D01*
X30080Y29189D02*
X29813D01*
Y28989D01*
X29947Y29056D01*
X30013D01*
X30080Y28989D01*
Y28856D01*
X30013Y28789D01*
X29880D01*
X29813Y28856D01*
X30213Y29189D02*
Y28923D01*
X30347Y28789D01*
X30480Y28923D01*
Y29189D01*
X36762Y17815D02*
Y18215D01*
X36962D01*
X37028Y18148D01*
Y18015D01*
X36962Y17948D01*
X36762D01*
X36895D02*
X37028Y17815D01*
X37162Y18215D02*
X37428D01*
X37295D01*
Y17815D01*
X37761D02*
Y18215D01*
X37562Y18015D01*
X37828D01*
X36811Y21604D02*
Y22004D01*
X37011D01*
X37078Y21938D01*
Y21804D01*
X37011Y21738D01*
X36811D01*
X36944D02*
X37078Y21604D01*
X37211Y22004D02*
X37477D01*
X37344D01*
Y21604D01*
X37611Y21938D02*
X37677Y22004D01*
X37811D01*
X37877Y21938D01*
Y21871D01*
X37811Y21804D01*
X37744D01*
X37811D01*
X37877Y21738D01*
Y21671D01*
X37811Y21604D01*
X37677D01*
X37611Y21671D01*
X41674Y27116D02*
X42074D01*
Y26916D01*
X42007Y26850D01*
X41874D01*
X41807Y26916D01*
Y27116D01*
Y26983D02*
X41674Y26850D01*
X42074Y26716D02*
Y26450D01*
Y26583D01*
X41674D01*
Y26050D02*
Y26316D01*
X41940Y26050D01*
X42007D01*
X42074Y26116D01*
Y26250D01*
X42007Y26316D01*
X33898Y24606D02*
Y25006D01*
X34098D01*
X34165Y24940D01*
Y24806D01*
X34098Y24740D01*
X33898D01*
X34031D02*
X34165Y24606D01*
X34298Y25006D02*
X34564D01*
X34431D01*
Y24606D01*
X34698D02*
X34831D01*
X34764D01*
Y25006D01*
X34698Y24940D01*
X22776Y26778D02*
Y26378D01*
X23043D01*
X23376Y26778D02*
X23243D01*
X23176Y26711D01*
Y26445D01*
X23243Y26378D01*
X23376D01*
X23442Y26445D01*
Y26711D01*
X23376Y26778D01*
X23576Y26378D02*
Y26645D01*
X23709Y26778D01*
X23842Y26645D01*
Y26378D01*
Y26578D01*
X23576D01*
X23976Y26778D02*
Y26378D01*
X24176D01*
X24242Y26445D01*
Y26711D01*
X24176Y26778D01*
X23976D01*
X19450Y26613D02*
X19383Y26679D01*
X19250D01*
X19183Y26613D01*
Y26546D01*
X19250Y26479D01*
X19383D01*
X19450Y26413D01*
Y26346D01*
X19383Y26280D01*
X19250D01*
X19183Y26346D01*
X19583Y26679D02*
Y26346D01*
X19650Y26280D01*
X19783D01*
X19850Y26346D01*
Y26679D01*
X19983Y26280D02*
Y26679D01*
X20183D01*
X20250Y26613D01*
Y26479D01*
X20183Y26413D01*
X19983D01*
X20383Y26280D02*
Y26679D01*
X20583D01*
X20650Y26613D01*
Y26479D01*
X20583Y26413D01*
X20383D01*
X20783Y26679D02*
Y26280D01*
X21050D01*
X21183Y26679D02*
Y26613D01*
X21316Y26479D01*
X21449Y26613D01*
Y26679D01*
X21316Y26479D02*
Y26280D01*
X29961Y26581D02*
Y26181D01*
X30228D01*
X30561Y26581D02*
X30428D01*
X30361Y26514D01*
Y26248D01*
X30428Y26181D01*
X30561D01*
X30627Y26248D01*
Y26514D01*
X30561Y26581D01*
X30761Y26181D02*
Y26448D01*
X30894Y26581D01*
X31027Y26448D01*
Y26181D01*
Y26381D01*
X30761D01*
X31161Y26581D02*
Y26181D01*
X31361D01*
X31427Y26248D01*
Y26514D01*
X31361Y26581D01*
X31161D01*
X8180Y18690D02*
X8114Y18756D01*
X7980D01*
X7914Y18690D01*
Y18623D01*
X7980Y18556D01*
X8114D01*
X8180Y18490D01*
Y18423D01*
X8114Y18356D01*
X7980D01*
X7914Y18423D01*
X8314Y18756D02*
Y18423D01*
X8380Y18356D01*
X8514D01*
X8580Y18423D01*
Y18756D01*
X8714Y18356D02*
Y18756D01*
X8913D01*
X8980Y18690D01*
Y18556D01*
X8913Y18490D01*
X8714D01*
X9113Y18356D02*
Y18756D01*
X9313D01*
X9380Y18690D01*
Y18556D01*
X9313Y18490D01*
X9113D01*
X9513Y18756D02*
Y18356D01*
X9780D01*
X9913Y18756D02*
Y18690D01*
X10046Y18556D01*
X10180Y18690D01*
Y18756D01*
X10046Y18556D02*
Y18356D01*
X26241Y26564D02*
X26175Y26630D01*
X26041D01*
X25975Y26564D01*
Y26497D01*
X26041Y26430D01*
X26175D01*
X26241Y26364D01*
Y26297D01*
X26175Y26230D01*
X26041D01*
X25975Y26297D01*
X26375Y26630D02*
Y26297D01*
X26441Y26230D01*
X26575D01*
X26641Y26297D01*
Y26630D01*
X26775Y26230D02*
Y26630D01*
X26974D01*
X27041Y26564D01*
Y26430D01*
X26974Y26364D01*
X26775D01*
X27174Y26230D02*
Y26630D01*
X27374D01*
X27441Y26564D01*
Y26430D01*
X27374Y26364D01*
X27174D01*
X27574Y26630D02*
Y26230D01*
X27841D01*
X27974Y26630D02*
Y26564D01*
X28107Y26430D01*
X28241Y26564D01*
Y26630D01*
X28107Y26430D02*
Y26230D01*
X12540Y18756D02*
Y18356D01*
X12806D01*
X13140Y18756D02*
X13006D01*
X12940Y18690D01*
Y18423D01*
X13006Y18356D01*
X13140D01*
X13206Y18423D01*
Y18690D01*
X13140Y18756D01*
X13340Y18356D02*
Y18623D01*
X13473Y18756D01*
X13606Y18623D01*
Y18356D01*
Y18556D01*
X13340D01*
X13739Y18756D02*
Y18356D01*
X13939D01*
X14006Y18423D01*
Y18690D01*
X13939Y18756D01*
X13739D01*
X22501Y18296D02*
X22435Y18362D01*
X22301D01*
X22235Y18296D01*
Y18229D01*
X22301Y18163D01*
X22435D01*
X22501Y18096D01*
Y18029D01*
X22435Y17963D01*
X22301D01*
X22235Y18029D01*
X22901Y18296D02*
X22834Y18362D01*
X22701D01*
X22635Y18296D01*
Y18029D01*
X22701Y17963D01*
X22834D01*
X22901Y18029D01*
X23034Y18362D02*
Y17963D01*
X23301D01*
X25749Y18296D02*
X25683Y18362D01*
X25549D01*
X25483Y18296D01*
Y18229D01*
X25549Y18163D01*
X25683D01*
X25749Y18096D01*
Y18029D01*
X25683Y17963D01*
X25549D01*
X25483Y18029D01*
X25883Y18362D02*
Y17963D01*
X26082D01*
X26149Y18029D01*
Y18296D01*
X26082Y18362D01*
X25883D01*
X26282Y17963D02*
Y18229D01*
X26416Y18362D01*
X26549Y18229D01*
Y17963D01*
Y18163D01*
X26282D01*
X32323Y18313D02*
Y17980D01*
X32390Y17913D01*
X32523D01*
X32590Y17980D01*
Y18313D01*
X32990D02*
X32856Y18247D01*
X32723Y18113D01*
Y17980D01*
X32790Y17913D01*
X32923D01*
X32990Y17980D01*
Y18047D01*
X32923Y18113D01*
X32723D01*
X35860Y10039D02*
X36194D01*
X36260Y10106D01*
Y10239D01*
X36194Y10306D01*
X35860D01*
X36260Y10706D02*
Y10439D01*
X35994Y10706D01*
X35927D01*
X35860Y10639D01*
Y10506D01*
X35927Y10439D01*
X24105Y13638D02*
Y13305D01*
X24171Y13238D01*
X24305D01*
X24371Y13305D01*
Y13638D01*
X24505Y13238D02*
X24638D01*
X24571D01*
Y13638D01*
X24505Y13571D01*
X28140Y17717D02*
Y18116D01*
X28340D01*
X28407Y18050D01*
Y17916D01*
X28340Y17850D01*
X28140D01*
X28273D02*
X28407Y17717D01*
X28807Y18116D02*
X28540D01*
Y17717D01*
X28807D01*
X28540Y17916D02*
X28673D01*
X29206Y18050D02*
X29140Y18116D01*
X29007D01*
X28940Y18050D01*
Y17983D01*
X29007Y17916D01*
X29140D01*
X29206Y17850D01*
Y17783D01*
X29140Y17717D01*
X29007D01*
X28940Y17783D01*
X29606Y18116D02*
X29340D01*
Y17717D01*
X29606D01*
X29340Y17916D02*
X29473D01*
X29740Y18116D02*
X30006D01*
X29873D01*
Y17717D01*
X28120Y32431D02*
Y33031D01*
X28420D01*
X28520Y32931D01*
Y32731D01*
X28420Y32631D01*
X28120D01*
X28720Y32531D02*
X28820Y32431D01*
X29020D01*
X29120Y32531D01*
Y32931D01*
X29020Y33031D01*
X28820D01*
X28720Y32931D01*
Y32831D01*
X28820Y32731D01*
X29120D01*
X17766Y591D02*
Y1190D01*
X18066D01*
X18166Y1090D01*
Y890D01*
X18066Y790D01*
X17766D01*
X18665Y591D02*
Y1190D01*
X18366Y890D01*
X18765D01*
X29823Y591D02*
Y1190D01*
X30123D01*
X30223Y1090D01*
Y890D01*
X30123Y790D01*
X29823D01*
X30423Y1090D02*
X30523Y1190D01*
X30723D01*
X30823Y1090D01*
Y990D01*
X30723Y890D01*
X30623D01*
X30723D01*
X30823Y790D01*
Y691D01*
X30723Y591D01*
X30523D01*
X30423Y691D01*
X36477Y443D02*
Y1043D01*
X36777D01*
X36877Y943D01*
Y743D01*
X36777Y643D01*
X36477D01*
X37476Y443D02*
X37077D01*
X37476Y843D01*
Y943D01*
X37376Y1043D01*
X37177D01*
X37077Y943D01*
X27205Y9603D02*
X27338D01*
X27272D01*
Y9203D01*
X27205D01*
X27338D01*
X27805Y9536D02*
X27738Y9603D01*
X27605D01*
X27538Y9536D01*
Y9269D01*
X27605Y9203D01*
X27738D01*
X27805Y9269D01*
X28205Y9536D02*
X28138Y9603D01*
X28005D01*
X27938Y9536D01*
Y9469D01*
X28005Y9403D01*
X28138D01*
X28205Y9336D01*
Y9269D01*
X28138Y9203D01*
X28005D01*
X27938Y9269D01*
X28338Y9203D02*
Y9603D01*
X28538D01*
X28605Y9536D01*
Y9403D01*
X28538Y9336D01*
X28338D01*
X41043Y13244D02*
Y12911D01*
X41110Y12844D01*
X41243D01*
X41310Y12911D01*
Y13244D01*
X41710Y13178D02*
X41643Y13244D01*
X41510D01*
X41443Y13178D01*
Y13111D01*
X41510Y13044D01*
X41643D01*
X41710Y12978D01*
Y12911D01*
X41643Y12844D01*
X41510D01*
X41443Y12911D01*
X41843Y13244D02*
Y12844D01*
X42043D01*
X42110Y12911D01*
Y12978D01*
X42043Y13044D01*
X41843D01*
X42043D01*
X42110Y13111D01*
Y13178D01*
X42043Y13244D01*
X41843D01*
X42243Y13044D02*
X42509D01*
X42643Y12844D02*
Y13244D01*
X42776Y13111D01*
X42909Y13244D01*
Y12844D01*
X43043D02*
X43176D01*
X43109D01*
Y13111D01*
X43043D01*
X43642D02*
X43443D01*
X43376Y13044D01*
Y12911D01*
X43443Y12844D01*
X43642D01*
X43776Y13111D02*
Y12844D01*
Y12978D01*
X43842Y13044D01*
X43909Y13111D01*
X43976D01*
X44242Y12844D02*
X44376D01*
X44442Y12911D01*
Y13044D01*
X44376Y13111D01*
X44242D01*
X44176Y13044D01*
Y12911D01*
X44242Y12844D01*
X43848Y24409D02*
X44448D01*
Y24110D01*
X44348Y24010D01*
X44148D01*
X44048Y24110D01*
Y24409D01*
X43848Y23810D02*
Y23610D01*
Y23710D01*
X44448D01*
X44348Y23810D01*
Y23310D02*
X44448Y23210D01*
Y23010D01*
X44348Y22910D01*
X43948D01*
X43848Y23010D01*
Y23210D01*
X43948Y23310D01*
X44348D01*
X43813Y19478D02*
X44413D01*
Y19178D01*
X44313Y19078D01*
X44113D01*
X44013Y19178D01*
Y19478D01*
X43813Y18879D02*
Y18679D01*
Y18779D01*
X44413D01*
X44313Y18879D01*
X43813Y17979D02*
Y18379D01*
X44213Y17979D01*
X44313D01*
X44413Y18079D01*
Y18279D01*
X44313Y18379D01*
X4327Y32637D02*
X4128D01*
X4227D01*
Y32137D01*
X4128Y32037D01*
X4028D01*
X3928Y32137D01*
X4927Y32037D02*
X4527D01*
X4927Y32437D01*
Y32537D01*
X4827Y32637D01*
X4627D01*
X4527Y32537D01*
X22117Y32333D02*
Y32932D01*
X22416D01*
X22516Y32833D01*
Y32633D01*
X22416Y32533D01*
X22117D01*
X23116Y32932D02*
X22916Y32833D01*
X22716Y32633D01*
Y32433D01*
X22816Y32333D01*
X23016D01*
X23116Y32433D01*
Y32533D01*
X23016Y32633D01*
X22716D01*
X3780Y3894D02*
Y3694D01*
Y3794D01*
X4280D01*
X4380Y3694D01*
Y3594D01*
X4280Y3494D01*
X3780Y4494D02*
Y4294D01*
Y4394D01*
X4280D01*
X4380Y4294D01*
Y4194D01*
X4280Y4094D01*
X3880Y5094D02*
X3780Y4994D01*
Y4794D01*
X3880Y4694D01*
X4280D01*
X4380Y4794D01*
Y4994D01*
X4280Y5094D01*
X2797Y3494D02*
X2697Y3594D01*
Y3794D01*
X2797Y3894D01*
X3197D01*
X3297Y3794D01*
Y3594D01*
X3197Y3494D01*
X2797D01*
X2697Y4494D02*
X2797Y4294D01*
X2997Y4094D01*
X3197D01*
X3297Y4194D01*
Y4394D01*
X3197Y4494D01*
X3097D01*
X2997Y4394D01*
Y4094D01*
X3297Y4694D02*
X2897Y5094D01*
X3297Y5693D02*
Y5294D01*
X2897Y5693D01*
X2797D01*
X2697Y5593D01*
Y5393D01*
X2797Y5294D01*
Y5893D02*
X2697Y5993D01*
Y6193D01*
X2797Y6293D01*
X2897D01*
X2997Y6193D01*
X3097Y6293D01*
X3197D01*
X3297Y6193D01*
Y5993D01*
X3197Y5893D01*
X3097D01*
X2997Y5993D01*
X2897Y5893D01*
X2797D01*
X2997Y5993D02*
Y6193D01*
X3297Y6493D02*
X2897Y6893D01*
X3297Y7093D02*
Y7293D01*
Y7193D01*
X2697D01*
X2797Y7093D01*
X2697Y7993D02*
X2797Y7793D01*
X2997Y7593D01*
X3197D01*
X3297Y7693D01*
Y7893D01*
X3197Y7993D01*
X3097D01*
X2997Y7893D01*
Y7593D01*
X2264Y3494D02*
X1664D01*
Y3794D01*
X1764Y3894D01*
X1964D01*
X2064Y3794D01*
Y3494D01*
Y3694D02*
X2264Y3894D01*
Y4394D02*
Y4194D01*
X2164Y4094D01*
X1964D01*
X1864Y4194D01*
Y4394D01*
X1964Y4494D01*
X2064D01*
Y4094D01*
X1864Y4694D02*
X2264Y4894D01*
X1864Y5094D01*
X2264Y5893D02*
Y6093D01*
Y5993D01*
X1664D01*
X1764Y5893D01*
X2264Y6393D02*
X2164D01*
Y6493D01*
X2264D01*
Y6393D01*
X1764Y6893D02*
X1664Y6993D01*
Y7193D01*
X1764Y7293D01*
X2164D01*
X2264Y7193D01*
Y6993D01*
X2164Y6893D01*
X1764D01*
X680Y3494D02*
X1280D01*
Y3894D01*
Y4094D02*
Y4294D01*
Y4194D01*
X880D01*
Y4094D01*
X1280Y4594D02*
Y4794D01*
Y4694D01*
X680D01*
Y4594D01*
X1280Y5094D02*
X680D01*
Y5393D01*
X780Y5493D01*
X980D01*
X1080Y5393D01*
Y5094D01*
Y5294D02*
X1280Y5493D01*
Y5993D02*
Y5793D01*
X1180Y5693D01*
X980D01*
X880Y5793D01*
Y5993D01*
X980Y6093D01*
X1080D01*
Y5693D01*
X680Y6693D02*
X1280D01*
Y6393D01*
X1180Y6293D01*
X980D01*
X880Y6393D01*
Y6693D01*
X1280Y7493D02*
X680D01*
X880Y7693D01*
X680Y7893D01*
X1280D01*
X880Y8193D02*
Y8393D01*
X980Y8492D01*
X1280D01*
Y8193D01*
X1180Y8093D01*
X1080Y8193D01*
Y8492D01*
X1280Y8692D02*
X880D01*
Y8992D01*
X980Y9092D01*
X1280D01*
X880Y9392D02*
Y9592D01*
X980Y9692D01*
X1280D01*
Y9392D01*
X1180Y9292D01*
X1080Y9392D01*
Y9692D01*
X1479Y10092D02*
Y10192D01*
X1380Y10292D01*
X880D01*
Y9992D01*
X980Y9892D01*
X1180D01*
X1280Y9992D01*
Y10292D01*
Y10792D02*
Y10592D01*
X1180Y10492D01*
X980D01*
X880Y10592D01*
Y10792D01*
X980Y10892D01*
X1080D01*
Y10492D01*
X1280Y11092D02*
X880D01*
Y11192D01*
X980Y11292D01*
X1280D01*
X980D01*
X880Y11392D01*
X980Y11492D01*
X1280D01*
Y11991D02*
Y11791D01*
X1180Y11691D01*
X980D01*
X880Y11791D01*
Y11991D01*
X980Y12091D01*
X1080D01*
Y11691D01*
X1280Y12291D02*
X880D01*
Y12591D01*
X980Y12691D01*
X1280D01*
X780Y12991D02*
X880D01*
Y12891D01*
Y13091D01*
Y12991D01*
X1180D01*
X1280Y13091D01*
X680Y13991D02*
X1280D01*
Y14291D01*
X1180Y14391D01*
X1080D01*
X980Y14291D01*
Y13991D01*
Y14291D01*
X880Y14391D01*
X780D01*
X680Y14291D01*
Y13991D01*
X1280Y14690D02*
Y14890D01*
X1180Y14990D01*
X980D01*
X880Y14890D01*
Y14690D01*
X980Y14591D01*
X1180D01*
X1280Y14690D01*
X880Y15290D02*
Y15490D01*
X980Y15590D01*
X1280D01*
Y15290D01*
X1180Y15190D01*
X1080Y15290D01*
Y15590D01*
X880Y15790D02*
X1280D01*
X1080D01*
X980Y15890D01*
X880Y15990D01*
Y16090D01*
X680Y16790D02*
X1280D01*
Y16490D01*
X1180Y16390D01*
X980D01*
X880Y16490D01*
Y16790D01*
X40560Y24557D02*
Y24157D01*
Y24357D01*
X39961D01*
X40560Y23957D02*
X39961D01*
X40261D01*
Y23557D01*
X40560D01*
X39961D01*
X40560Y22958D02*
Y23357D01*
X39961D01*
Y22958D01*
X40261Y23357D02*
Y23158D01*
X39961Y22758D02*
X40560D01*
Y22458D01*
X40460Y22358D01*
X40261D01*
X40161Y22458D01*
Y22758D01*
Y22558D02*
X39961Y22358D01*
Y22158D02*
X40560D01*
X40360Y21958D01*
X40560Y21758D01*
X39961D01*
X40560Y21558D02*
Y21358D01*
Y21458D01*
X39961D01*
Y21558D01*
Y21358D01*
X40460Y20658D02*
X40560Y20758D01*
Y20958D01*
X40460Y21058D01*
X40360D01*
X40261Y20958D01*
Y20758D01*
X40161Y20658D01*
X40061D01*
X39961Y20758D01*
Y20958D01*
X40061Y21058D01*
X40560Y20458D02*
Y20059D01*
Y20258D01*
X39961D01*
X40560Y19559D02*
Y19759D01*
X40460Y19859D01*
X40061D01*
X39961Y19759D01*
Y19559D01*
X40061Y19459D01*
X40460D01*
X40560Y19559D01*
X39961Y19259D02*
X40560D01*
Y18959D01*
X40460Y18859D01*
X40261D01*
X40161Y18959D01*
Y19259D01*
Y19059D02*
X39961Y18859D01*
X40460Y18259D02*
X40560Y18359D01*
Y18559D01*
X40460Y18659D01*
X40360D01*
X40261Y18559D01*
Y18359D01*
X40161Y18259D01*
X40061D01*
X39961Y18359D01*
Y18559D01*
X40061Y18659D01*
X34301Y29143D02*
X34701D01*
X34501D01*
Y28543D01*
X34901Y29143D02*
Y28543D01*
Y28843D01*
X35301D01*
Y29143D01*
Y28543D01*
X35901Y29143D02*
X35501D01*
Y28543D01*
X35901D01*
X35501Y28843D02*
X35701D01*
X36101Y28543D02*
Y29143D01*
X36400D01*
X36500Y29043D01*
Y28843D01*
X36400Y28743D01*
X36101D01*
X36301D02*
X36500Y28543D01*
X36700D02*
Y29143D01*
X36900Y28943D01*
X37100Y29143D01*
Y28543D01*
X37300Y29143D02*
X37500D01*
X37400D01*
Y28543D01*
X37300D01*
X37500D01*
X38200Y29043D02*
X38100Y29143D01*
X37900D01*
X37800Y29043D01*
Y28943D01*
X37900Y28843D01*
X38100D01*
X38200Y28743D01*
Y28643D01*
X38100Y28543D01*
X37900D01*
X37800Y28643D01*
X38400Y29143D02*
X38800D01*
X38600D01*
Y28543D01*
X39300Y29143D02*
X39100D01*
X39000Y29043D01*
Y28643D01*
X39100Y28543D01*
X39300D01*
X39400Y28643D01*
Y29043D01*
X39300Y29143D01*
X39599Y28543D02*
Y29143D01*
X39899D01*
X39999Y29043D01*
Y28843D01*
X39899Y28743D01*
X39599D01*
X39799D02*
X39999Y28543D01*
X40599Y29043D02*
X40499Y29143D01*
X40299D01*
X40199Y29043D01*
Y28943D01*
X40299Y28843D01*
X40499D01*
X40599Y28743D01*
Y28643D01*
X40499Y28543D01*
X40299D01*
X40199Y28643D01*
X26818Y28995D02*
X26418D01*
Y28696D01*
X26618Y28796D01*
X26718D01*
X26818Y28696D01*
Y28496D01*
X26718Y28396D01*
X26518D01*
X26418Y28496D01*
X27018Y28995D02*
Y28596D01*
X27217Y28396D01*
X27417Y28596D01*
Y28995D01*
X28217D02*
X28417D01*
X28317D01*
Y28396D01*
X28217D01*
X28417D01*
X28717D02*
Y28995D01*
X29117Y28396D01*
Y28995D01*
X19922Y28297D02*
X20122D01*
X20022D01*
Y28897D01*
X19922Y28797D01*
X20821Y28297D02*
X20422D01*
X20821Y28697D01*
Y28797D01*
X20721Y28897D01*
X20521D01*
X20422Y28797D01*
X21021Y28897D02*
Y28497D01*
X21221Y28297D01*
X21421Y28497D01*
Y28897D01*
X22221D02*
X22421D01*
X22321D01*
Y28297D01*
X22221D01*
X22421D01*
X22721D02*
Y28897D01*
X23121Y28297D01*
Y28897D01*
X9692Y23425D02*
X9292D01*
X9692Y23825D01*
Y23925D01*
X9592Y24025D01*
X9392D01*
X9292Y23925D01*
X10191Y23425D02*
Y24025D01*
X9892Y23725D01*
X10291D01*
X10491Y24025D02*
Y23625D01*
X10691Y23425D01*
X10891Y23625D01*
Y24025D01*
X11691D02*
X11891D01*
X11791D01*
Y23425D01*
X11691D01*
X11891D01*
X12191D02*
Y24025D01*
X12591Y23425D01*
Y24025D01*
X36162Y5463D02*
Y5862D01*
X36362Y6062D01*
X36562Y5862D01*
Y5463D01*
Y5763D01*
X36162D01*
X36762Y6062D02*
Y5463D01*
X37062D01*
X37162Y5563D01*
Y5962D01*
X37062Y6062D01*
X36762D01*
X37761Y5962D02*
X37661Y6062D01*
X37461D01*
X37361Y5962D01*
Y5563D01*
X37461Y5463D01*
X37661D01*
X37761Y5563D01*
X22343Y4832D02*
Y4232D01*
X22742D01*
X23342Y4832D02*
X22942D01*
Y4232D01*
X23342D01*
X22942Y4532D02*
X23142D01*
X23542Y4832D02*
Y4232D01*
X23842D01*
X23942Y4332D01*
Y4732D01*
X23842Y4832D01*
X23542D01*
X24542Y4732D02*
X24442Y4832D01*
X24242D01*
X24142Y4732D01*
Y4632D01*
X24242Y4532D01*
X24442D01*
X24542Y4432D01*
Y4332D01*
X24442Y4232D01*
X24242D01*
X24142Y4332D01*
X17280Y4832D02*
X16880D01*
Y4232D01*
X17280D01*
X16880Y4532D02*
X17080D01*
X17880Y4732D02*
X17780Y4832D01*
X17580D01*
X17480Y4732D01*
Y4632D01*
X17580Y4532D01*
X17780D01*
X17880Y4432D01*
Y4332D01*
X17780Y4232D01*
X17580D01*
X17480Y4332D01*
X18080Y4832D02*
X18479D01*
X18279D01*
Y4232D01*
X18979Y4832D02*
X18779D01*
X18679Y4732D01*
Y4332D01*
X18779Y4232D01*
X18979D01*
X19079Y4332D01*
Y4732D01*
X18979Y4832D01*
X19279Y4232D02*
Y4832D01*
X19579D01*
X19679Y4732D01*
Y4532D01*
X19579Y4432D01*
X19279D01*
X12555Y5964D02*
X12156D01*
Y5664D01*
X12355D01*
X12156D01*
Y5364D01*
X12755D02*
Y5764D01*
X12955Y5964D01*
X13155Y5764D01*
Y5364D01*
Y5664D01*
X12755D01*
X13355Y5364D02*
Y5964D01*
X13755Y5364D01*
Y5964D01*
X14355Y5864D02*
X14255Y5964D01*
X14055D01*
X13955Y5864D01*
Y5764D01*
X14055Y5664D01*
X14255D01*
X14355Y5564D01*
Y5464D01*
X14255Y5364D01*
X14055D01*
X13955Y5464D01*
X17461Y12746D02*
Y13146D01*
X17661D01*
X17728Y13079D01*
Y12946D01*
X17661Y12879D01*
X17461D01*
X17861Y13146D02*
Y12746D01*
X17994Y12879D01*
X18127Y12746D01*
Y13146D01*
X18261Y12746D02*
Y13146D01*
X18461D01*
X18527Y13079D01*
Y12946D01*
X18461Y12879D01*
X18261D01*
X18394D02*
X18527Y12746D01*
X29735Y9388D02*
X29669Y9455D01*
X29536D01*
X29469Y9388D01*
Y9322D01*
X29536Y9255D01*
X29669D01*
X29735Y9188D01*
Y9122D01*
X29669Y9055D01*
X29536D01*
X29469Y9122D01*
X30135Y9388D02*
X30069Y9455D01*
X29935D01*
X29869Y9388D01*
Y9122D01*
X29935Y9055D01*
X30069D01*
X30135Y9122D01*
X30269Y9455D02*
Y9055D01*
Y9188D01*
X30535Y9455D01*
X30335Y9255D01*
X30535Y9055D01*
X33111Y6847D02*
X33377D01*
X33244D01*
Y6447D01*
X33511Y6847D02*
X33777Y6447D01*
Y6847D02*
X33511Y6447D01*
X34046D02*
Y6847D01*
X34246D01*
X34312Y6780D01*
Y6647D01*
X34246Y6580D01*
X34046D01*
X34179D02*
X34312Y6447D01*
X34446Y6847D02*
X34712Y6447D01*
Y6847D02*
X34446Y6447D01*
X29583Y5913D02*
X29483Y6013D01*
X29283D01*
X29183Y5913D01*
Y5513D01*
X29283Y5413D01*
X29483D01*
X29583Y5513D01*
Y5713D01*
X29383D01*
X29783Y5413D02*
Y6013D01*
X30083D01*
X30183Y5913D01*
Y5713D01*
X30083Y5613D01*
X29783D01*
X30383Y6013D02*
X30583D01*
X30483D01*
Y5413D01*
X30383D01*
X30583D01*
X31182Y6013D02*
X30982D01*
X30883Y5913D01*
Y5513D01*
X30982Y5413D01*
X31182D01*
X31282Y5513D01*
Y5913D01*
X31182Y6013D01*
D45*
X1575Y-0D02*
D03*
D46*
X34046Y19183D02*
G03*
X34046Y19183I-49J0D01*
G01*
X35178Y11903D02*
G03*
X35178Y11903I-49J0D01*
G01*
X22678Y14823D02*
G03*
X22678Y14823I-49J0D01*
G01*
D47*
X33544Y18297D02*
G03*
X33544Y18297I-118J0D01*
G01*
X23691Y14114D02*
G03*
X23691Y14114I-118J0D01*
G01*
D48*
X36103Y11880D02*
G03*
X36103Y11880I-79J0D01*
G01*
D49*
X27874Y20315D02*
X28031D01*
X27874Y20630D02*
X28031D01*
X12470Y12067D02*
X12628D01*
X12470Y11752D02*
X12628D01*
X22500Y19360D02*
Y19518D01*
X22185Y19360D02*
Y19518D01*
X27795Y25709D02*
Y25866D01*
X28110Y25709D02*
Y25866D01*
X10423Y17835D02*
Y17992D01*
X10738Y17835D02*
Y17992D01*
X22283Y25758D02*
Y25915D01*
X22598Y25758D02*
Y25915D01*
X24075Y18179D02*
Y18337D01*
X23760Y18179D02*
Y18337D01*
X25709Y19006D02*
X25866D01*
X25709Y18691D02*
X25866D01*
X32864Y11191D02*
Y11348D01*
X33179Y11191D02*
Y11348D01*
X31811Y18691D02*
X33819D01*
X31811Y17431D02*
X33819D01*
Y18691D01*
X31811Y17431D02*
Y18691D01*
X35709Y8770D02*
Y12195D01*
X36418Y8770D02*
Y12195D01*
X35709D02*
X36418D01*
X35709Y8770D02*
X36418D01*
X23180Y12264D02*
X25424D01*
X23180Y14508D02*
X25424D01*
Y12264D02*
Y14508D01*
X23180Y12264D02*
Y14508D01*
X19203Y13789D02*
X19361D01*
X19203Y13474D02*
X19361D01*
X29872Y12470D02*
Y12628D01*
X29557Y12470D02*
Y12628D01*
X29932Y10837D02*
X30089D01*
X29932Y10522D02*
X30089D01*
X38760Y13356D02*
Y13514D01*
X39075Y13356D02*
Y13514D01*
X32146Y9931D02*
X32304D01*
X32146Y10246D02*
X32304D01*
X39931Y9931D02*
X40089D01*
X39931Y10246D02*
X40089D01*
X30669Y12470D02*
Y12628D01*
X30354Y12470D02*
Y12628D01*
X39971Y9242D02*
X40128D01*
X39971Y9557D02*
X40128D01*
X35433Y7549D02*
Y7707D01*
X35119Y7549D02*
Y7707D01*
X32874Y7598D02*
Y7756D01*
X32559Y7598D02*
Y7756D01*
X29400Y20315D02*
X29557D01*
X29400Y20630D02*
X29557D01*
X12470Y12441D02*
X12628D01*
X12470Y12756D02*
X12628D01*
X11300Y17835D02*
Y17992D01*
X11615Y17835D02*
Y17992D01*
X28533Y25709D02*
Y25866D01*
X28848Y25709D02*
Y25866D01*
X29400Y21004D02*
X29557D01*
X29400Y21319D02*
X29557D01*
X12470Y13130D02*
X12628D01*
X12470Y13445D02*
X12628D01*
X21437Y25758D02*
Y25915D01*
X21752Y25758D02*
Y25915D01*
X23986Y20610D02*
X24144D01*
X23986Y20925D02*
X24144D01*
X23986Y21348D02*
X24144D01*
X23986Y21663D02*
X24144D01*
X18179Y5423D02*
X18337D01*
X18179Y5108D02*
X18337D01*
X19843Y6319D02*
Y6476D01*
X19528Y6319D02*
Y6476D01*
X19902Y7667D02*
X20059D01*
X19902Y7982D02*
X20059D01*
X18534Y7795D02*
Y7953D01*
X18849Y7795D02*
Y7953D01*
X8976Y3287D02*
X9134D01*
X8976Y3602D02*
X9134D01*
X18061Y7795D02*
Y7953D01*
X17746Y7795D02*
Y7953D01*
X8976Y4341D02*
X9134D01*
X8976Y4026D02*
X9134D01*
X12146Y7894D02*
Y8051D01*
X12461Y7894D02*
Y8051D01*
X9567Y9262D02*
X9725D01*
X9567Y8947D02*
X9725D01*
X13199Y7894D02*
Y8051D01*
X12884Y7894D02*
Y8051D01*
X9567Y8159D02*
X9725D01*
X9567Y8474D02*
X9725D01*
X25148Y4990D02*
Y5148D01*
X24833Y4990D02*
Y5148D01*
X23612Y4990D02*
Y5148D01*
X23927Y4990D02*
Y5148D01*
X34282Y27776D02*
Y27933D01*
X34597Y27776D02*
Y27933D01*
X39105Y27726D02*
Y27884D01*
X39420Y27726D02*
Y27884D01*
X35335Y27776D02*
Y27933D01*
X35020Y27776D02*
Y27933D01*
X40158Y27726D02*
Y27884D01*
X39843Y27726D02*
Y27884D01*
X32973Y15423D02*
Y15581D01*
X32658Y15423D02*
Y15581D01*
X33760Y15423D02*
Y15581D01*
X33445Y15423D02*
Y15581D01*
X38898Y24518D02*
X39055D01*
X38898Y24203D02*
X39055D01*
X38937Y19596D02*
X39095D01*
X38937Y19282D02*
X39095D01*
X38898Y23465D02*
X39055D01*
X38898Y23780D02*
X39055D01*
X38937Y18494D02*
X39095D01*
X38937Y18809D02*
X39095D01*
X21831Y26919D02*
X22146D01*
X21831Y27904D02*
X22146D01*
X28130Y27018D02*
X28445D01*
X28130Y28002D02*
X28445D01*
X28731Y10039D02*
X28862D01*
X28796D01*
Y10433D01*
X28731Y10367D01*
D50*
X18752Y13183D02*
X19192D01*
X18752Y12703D02*
X19192D01*
X18752D02*
Y13183D01*
X29480Y10132D02*
X29920D01*
X29480Y9652D02*
X29920D01*
X29480D02*
Y10132D01*
X34101Y7049D02*
Y7489D01*
X34581Y7049D02*
Y7489D01*
X34101Y7049D02*
X34581D01*
X33215D02*
Y7489D01*
X33695Y7049D02*
Y7489D01*
X33215Y7049D02*
X33695D01*
M02*
