%FSLAX24Y24*%
%MOIN*%
G70*
G01*
G75*
G04 Layer_Color=16711935*
%ADD10R,0.0551X0.0591*%
%ADD11R,0.0354X0.0394*%
%ADD12R,0.0394X0.0354*%
%ADD13R,0.0315X0.0354*%
%ADD14R,0.0354X0.0315*%
%ADD15R,0.0591X0.0512*%
%ADD16R,0.0512X0.0591*%
%ADD17R,0.0610X0.0591*%
%ADD18R,0.0532X0.0157*%
%ADD19R,0.0433X0.0709*%
%ADD20O,0.0138X0.0669*%
%ADD21O,0.0886X0.0157*%
%ADD22O,0.0236X0.0768*%
%ADD23O,0.0768X0.0236*%
%ADD24R,0.0827X0.0157*%
%ADD25R,0.0394X0.0394*%
%ADD26R,0.0394X0.0394*%
%ADD27R,0.0512X0.1063*%
%ADD28R,0.0315X0.0315*%
%ADD29R,0.0315X0.0315*%
%ADD30R,0.0118X0.0571*%
%ADD31R,0.2047X0.3445*%
%ADD32C,0.0100*%
%ADD33C,0.0200*%
%ADD34C,0.0198*%
%ADD35C,0.3500*%
%ADD36C,0.0500*%
%ADD37C,0.0787*%
%ADD38C,0.1575*%
%ADD39C,0.0610*%
%ADD40C,0.0492*%
%ADD41C,0.0750*%
%ADD42C,0.0394*%
%ADD43C,0.2200*%
%ADD44C,0.0300*%
%ADD45C,0.0100*%
%ADD46C,0.0098*%
%ADD47C,0.0236*%
%ADD48C,0.0157*%
%ADD49C,0.0079*%
%ADD50C,0.0080*%
%ADD51R,0.0631X0.0671*%
%ADD52R,0.0434X0.0474*%
%ADD53R,0.0474X0.0434*%
%ADD54R,0.0395X0.0434*%
%ADD55R,0.0434X0.0395*%
%ADD56R,0.0671X0.0592*%
%ADD57R,0.0592X0.0671*%
%ADD58R,0.0690X0.0671*%
%ADD59R,0.0612X0.0237*%
%ADD60R,0.0513X0.0789*%
%ADD61O,0.0218X0.0749*%
%ADD62O,0.0966X0.0237*%
%ADD63O,0.0316X0.0848*%
%ADD64O,0.0848X0.0316*%
%ADD65R,0.0907X0.0237*%
%ADD66R,0.0474X0.0474*%
%ADD67R,0.0474X0.0474*%
%ADD68R,0.0592X0.1143*%
%ADD69R,0.0395X0.0395*%
%ADD70R,0.0395X0.0395*%
%ADD71R,0.0198X0.0651*%
%ADD72R,0.2127X0.3525*%
%ADD73C,0.0867*%
%ADD74C,0.1655*%
%ADD75C,0.0690*%
%ADD76C,0.0572*%
%ADD77C,0.0830*%
%ADD78C,0.0474*%
%ADD79C,0.2280*%
%ADD80C,0.0380*%
D66*
X28189Y10228D02*
D03*
D73*
X28494Y4689D02*
D03*
Y3508D02*
D03*
X32037D02*
D03*
X30856D02*
D03*
X29675D02*
D03*
X32037Y4689D02*
D03*
X30856D02*
D03*
X29675D02*
D03*
X13770Y3522D02*
D03*
X12589D02*
D03*
X13770Y4703D02*
D03*
X12589D02*
D03*
X22835Y3508D02*
D03*
X24016D02*
D03*
X35522Y29760D02*
D03*
X34341D02*
D03*
X40296D02*
D03*
X39115D02*
D03*
X37550Y3522D02*
D03*
X36369D02*
D03*
X37550Y4703D02*
D03*
X36369D02*
D03*
X17667Y3508D02*
D03*
X18848D02*
D03*
X27589Y29746D02*
D03*
X28770D02*
D03*
X29951D02*
D03*
X41226Y24360D02*
D03*
Y23179D02*
D03*
Y19390D02*
D03*
Y18209D02*
D03*
X21437Y29746D02*
D03*
X22619D02*
D03*
X23800D02*
D03*
D74*
X27648Y1807D02*
D03*
X32884D02*
D03*
X11742Y1821D02*
D03*
X14616D02*
D03*
X24862Y1807D02*
D03*
X21988D02*
D03*
X33495Y31461D02*
D03*
X36369D02*
D03*
X38268D02*
D03*
X41142D02*
D03*
X35522Y1821D02*
D03*
X38396D02*
D03*
X19695Y1807D02*
D03*
X16821D02*
D03*
X30798Y31447D02*
D03*
X26743D02*
D03*
X42927Y22333D02*
D03*
Y25207D02*
D03*
Y17362D02*
D03*
Y20236D02*
D03*
X24646Y31447D02*
D03*
X20591D02*
D03*
D75*
X43927Y12282D02*
D03*
Y9569D02*
D03*
D76*
X42864Y11909D02*
D03*
Y9941D02*
D03*
D77*
X26024Y17224D02*
D03*
X22727Y17274D02*
D03*
X30650Y25443D02*
D03*
X27008D02*
D03*
X23367Y25689D02*
D03*
X20315Y25591D02*
D03*
X13229Y17569D02*
D03*
X8947D02*
D03*
X30158Y28150D02*
D03*
X37303Y18898D02*
D03*
X40985Y26575D02*
D03*
X37352Y22736D02*
D03*
X34341Y25689D02*
D03*
X25286Y24705D02*
D03*
D78*
X27638Y10228D02*
D03*
X28189Y10728D02*
D03*
X27638D02*
D03*
X28189Y11228D02*
D03*
X27638D02*
D03*
D79*
X6034Y25935D02*
D03*
X16034D02*
D03*
X11034Y31065D02*
D03*
X1526Y1526D02*
D03*
X43209D02*
D03*
X1575Y31693D02*
D03*
X43307Y31841D02*
D03*
D80*
X28248Y18996D02*
D03*
Y19783D02*
D03*
X12205Y11319D02*
D03*
X21358Y15453D02*
D03*
X22392Y8169D02*
D03*
X20866Y9055D02*
D03*
X21358Y14911D02*
D03*
X24213Y19291D02*
D03*
X25148Y18159D02*
D03*
X30118Y19734D02*
D03*
X25394Y20571D02*
D03*
X13760Y12648D02*
D03*
X13780Y13287D02*
D03*
X26230Y5610D02*
D03*
X23425Y7825D02*
D03*
X22785Y5610D02*
D03*
X24409D02*
D03*
X21949Y6988D02*
D03*
X15404Y6053D02*
D03*
X10876Y6250D02*
D03*
X30906Y16437D02*
D03*
X25689Y29134D02*
D03*
X32923Y18258D02*
D03*
Y17569D02*
D03*
X36417Y22589D02*
D03*
X37894Y24262D02*
D03*
X15542Y9154D02*
D03*
X30404Y7776D02*
D03*
X18347Y6693D02*
D03*
X19036Y6742D02*
D03*
X24449Y10630D02*
D03*
X28977Y10974D02*
D03*
X40000Y26575D02*
D03*
X34144Y20325D02*
D03*
X35178Y26772D02*
D03*
X35571Y22589D02*
D03*
X28977Y13878D02*
D03*
X38573Y9941D02*
D03*
X41034Y10827D02*
D03*
Y10039D02*
D03*
X36063Y11368D02*
D03*
X41034Y11909D02*
D03*
X38573Y11024D02*
D03*
X33406Y9941D02*
D03*
X40960Y11319D02*
D03*
X23514Y14272D02*
D03*
X24006D02*
D03*
X30995Y10138D02*
D03*
X24548Y13927D02*
D03*
X34439Y26772D02*
D03*
X38327Y27461D02*
D03*
X36359Y16683D02*
D03*
X18839Y11860D02*
D03*
X17412D02*
D03*
X29469Y24606D02*
D03*
X31831Y15207D02*
D03*
X30650Y20571D02*
D03*
X23760Y16388D02*
D03*
X12097Y16782D02*
D03*
X24695Y16388D02*
D03*
X10522Y11860D02*
D03*
X13376Y15157D02*
D03*
X25827Y22343D02*
D03*
X26762Y20177D02*
D03*
X26861Y20915D02*
D03*
X29469Y26132D02*
D03*
X31388Y23622D02*
D03*
X32766Y13533D02*
D03*
X33504Y8465D02*
D03*
X25089Y13238D02*
D03*
X29075Y11959D02*
D03*
X28928Y12549D02*
D03*
X31388Y9547D02*
D03*
X26861Y12205D02*
D03*
X23711Y10630D02*
D03*
X24351Y12943D02*
D03*
X31979Y14026D02*
D03*
X31339Y12648D02*
D03*
X26664Y15846D02*
D03*
X31831Y7148D02*
D03*
X26910Y15010D02*
D03*
X27451Y14616D02*
D03*
X36063Y8465D02*
D03*
X35030Y8858D02*
D03*
X38524Y8957D02*
D03*
X31930Y21063D02*
D03*
X32323Y20620D02*
D03*
X32668Y21063D02*
D03*
X31437Y20571D02*
D03*
X40985Y9400D02*
D03*
X39016Y8957D02*
D03*
X23416Y28888D02*
D03*
X26565Y26870D02*
D03*
X20315Y28543D02*
D03*
X36368Y19291D02*
D03*
X37303Y6693D02*
D03*
X12500Y15945D02*
D03*
X10285Y15059D02*
D03*
X18356Y10925D02*
D03*
X14616Y6693D02*
D03*
X24213Y22785D02*
D03*
X21309Y22835D02*
D03*
X29528Y23967D02*
D03*
X27608Y22933D02*
D03*
X25738Y10532D02*
D03*
X25148Y16043D02*
D03*
M02*
